#VRML V2.0 utf8
DEF TXFM_1 Transform {
  center 0 0 0
  rotation 0 0 1 0
  scale 1 1 1
  scaleOrientation 0 0 1 0
  translation 0 0 0
 children [
DEF TXFM_2 Transform {
  center 0 0 0
  rotation 0 0 1 0
  scale 1 1 1
  scaleOrientation 0 0 1 0
  translation 0 0 0
 children [
DEF TXFM_3 Transform {
  center 0 0 0
  rotation 0 0 1 0
  scale 1 1 1
  scaleOrientation 0 0 1 0
  translation 0 0 0
 children [
DEF SHAPE_1 Shape {
 appearance DEF APP_1 Appearance {
  material Material {
   ambientIntensity 0.1
   diffuseColor 1 1 1
   emissiveColor 0 0 0
   shininess 0.1
   specularColor 0.12 0.12 0.12
   transparency 0
} }
 geometry DEF FACE_1 IndexedFaceSet {
  coord DEF COORD_1 Coordinate { point [
  -0.63653035 0.40006299 -0.60217102,-0.55308538 0.40006299 -0.69318155,
  0.63653035 0.40006299 -0.69318155,0.63653035 0.40006299 0.69318155,
  -0.63653035 0.40006299 0.69318155,0.57086614 0.40006299 -0.23580709,
  0.57086614 0.40006299 0.23580709,0.21653543 0.40006299 -0.62167323,
  0.29419852 0.40006299 -0.61229046,0.37289003 0.40006299 -0.58207397,
  0.44550614 0.40006299 -0.53028579,0.50489899 0.40006299 -0.46003721,
  0.54598798 0.40006299 -0.37784237,0.56495072 0.40006299 -0.30602047,
  -0.21653543 0.40006299 -0.62167323,-0.57086614 0.40006299 -0.23580709,
  -0.56015192 0.40006299 -0.32997858,-0.52560409 0.40006299 -0.42451171,
  -0.47390699 0.40006299 -0.50101857,-0.4136599 0.40006299 -0.55644722,
  -0.34521715 0.40006299 -0.59532764,-0.28013323 0.40006299 -0.61540689,
  -0.57086614 0.40006299 0.23580709,-0.21653543 0.40006299 0.62167323,
  -0.29419852 0.40006299 0.61229046,-0.37289003 0.40006299 0.58207397,
  -0.44550614 0.40006299 0.53028579,-0.50489899 0.40006299 0.46003721,
  -0.54598798 0.40006299 0.37784237,-0.56495072 0.40006299 0.30602047,
  0.21653543 0.40006299 0.62167323,0.56015192 0.40006299 0.32997858,
  0.52560409 0.40006299 0.42451171,0.47390699 0.40006299 0.50101857,
  0.4136599 0.40006299 0.55644722,0.34521715 0.40006299 0.59532764,
  0.28013323 0.40006299 0.61540689] }
 coordIndex [
  11,2,10,-1,9,10,2,-1,12,2,11,-1,8,9,2,-1,13,2,12,-1,7,8,2,-1,5,2,13,-1,1,14,7,-1,
  1,19,20,-1,1,20,21,-1,1,21,14,-1,18,19,1,-1,0,18,1,-1,3,5,6,-1,3,6,31,-1,3,31,32,-1,
  3,32,33,-1,3,2,5,-1,17,18,0,-1,34,3,33,-1,16,17,0,-1,35,3,34,-1,15,16,0,-1,36,3,35,-1,
  30,3,36,-1,4,23,24,-1,4,24,25,-1,4,25,26,-1,4,26,27,-1,4,27,28,-1,4,28,29,-1,1,7,2,-1,
  3,23,4,-1,3,30,23,-1,4,15,0,-1,4,22,15,-1,4,29,22,-1]
  normalPerVertex TRUE
  normal DEF NORM_1 Normal { vector [
  0 1 0,0 1 0,
  0 1 0,0 1 0,
  0 1 0,0 1 0,
  0 1 0,0 1 0,
  0 1 0,0 1 0,
  0 1 0,0 1 0,
  0 1 0,0 1 0,
  0 1 0,0 1 0,
  0 1 0,0 1 0,
  0 1 0,0 1 0,
  0 1 0,0 1 0,
  0 1 0,0 1 0,
  0 1 0,0 1 0,
  0 1 0,0 1 0,
  0 1 0,0 1 0,
  0 1 0,0 1 0,
  0 1 0,0 1 0,
  0 1 0,0 1 0,
  0 1 0] }
}
}
DEF SHAPE_2 Shape {
 appearance USE APP_1
 geometry DEF FACE_2 IndexedFaceSet {
  coord DEF COORD_2 Coordinate { point [
  -0.63653035 0.40006299 -0.60217102,-0.55308538 0.40006299 -0.69318155,
  -0.65029547 0.30872441 -0.58715788,-0.53934128 0.30872441 -0.70817177] }
 coordIndex [
  3,2,0,-1,1,3,0,-1]
  normalPerVertex TRUE
  normal DEF NORM_2 Normal { vector [
  -0.73707889 0 -0.67580671,-0.73707889 0 -0.67580671,
  -0.73707889 0 -0.67580671,-0.73707889 0 -0.67580671] }
}
}
DEF SHAPE_3 Shape {
 appearance USE APP_1
 geometry DEF FACE_3 IndexedFaceSet {
  coord DEF COORD_3 Coordinate { point [
  -0.65029547 0.30872441 -0.58715788,-0.63653035 0.40006299 -0.60217102,
  -0.65029547 0.30872441 -0.70817177,-0.66929134 0.18267717 -0.72885827,
  -0.66929134 0.18267717 0.72885827,-0.63653035 0.40006299 0.69318155] }
 coordIndex [
  0,4,5,-1,3,4,0,-1,1,0,5,-1,2,3,0,-1]
  normalPerVertex TRUE
  normal DEF NORM_3 Normal { vector [
  -0.98883395 0.14902156 0,-0.98883395 0.14902156 0,
  -0.98883395 0.14902156 0,-0.98883395 0.14902156 0,
  -0.98883395 0.14902156 0,-0.98883395 0.14902156 0] }
}
}
DEF SHAPE_4 Shape {
 appearance USE APP_1
 geometry DEF FACE_4 IndexedFaceSet {
  coord DEF COORD_4 Coordinate { point [
  0.63653035 0.40006299 0.69318155,0.66929134 0.18267717 0.72885827,
  -0.63653035 0.40006299 0.69318155,-0.66929134 0.18267717 0.72885827] }
 coordIndex [
  2,1,0,-1,2,3,1,-1]
  normalPerVertex TRUE
  normal DEF NORM_4 Normal { vector [
  0 0.16195049 0.98679888,0 0.16195049 0.98679888,
  0 0.16195049 0.98679888,0 0.16195049 0.98679888] }
}
}
DEF SHAPE_5 Shape {
 appearance USE APP_1
 geometry DEF FACE_5 IndexedFaceSet {
  coord DEF COORD_5 Coordinate { point [
  -0.66929134 0.18267717 -0.72885827,0.66929134 0.18267717 -0.72885827,
  0.66929134 0.18267717 0.72885827,-0.66929134 0.18267717 0.72885827] }
 coordIndex [
  3,0,1,-1,3,1,2,-1]
  normalPerVertex TRUE
  normal DEF NORM_5 Normal { vector [
  0 -1 0,0 -1 0,
  0 -1 0,0 -1 0] }
}
}
DEF SHAPE_6 Shape {
 appearance USE APP_1
 geometry DEF FACE_6 IndexedFaceSet {
  coord DEF COORD_6 Coordinate { point [
  0.63653035 0.40006299 -0.69318155,0.66929134 0.18267717 -0.72885827,
  0.63653035 0.40006299 0.69318155,0.66929134 0.18267717 0.72885827] }
 coordIndex [
  1,0,2,-1,1,2,3,-1]
  normalPerVertex TRUE
  normal DEF NORM_6 Normal { vector [
  0.98883395 0.14902156 0,0.98883395 0.14902156 0,
  0.98883395 0.14902156 0,0.98883395 0.14902156 0] }
}
}
DEF SHAPE_7 Shape {
 appearance USE APP_1
 geometry DEF FACE_7 IndexedFaceSet {
  coord DEF COORD_7 Coordinate { point [
  -0.55308538 0.40006299 -0.69318155,-0.53934128 0.30872441 -0.70817177,
  0.63653035 0.40006299 -0.69318155,0.66929134 0.18267717 -0.72885827,
  -0.66929134 0.18267717 -0.72885827,-0.65029547 0.30872441 -0.70817177] }
 coordIndex [
  1,0,2,-1,1,2,3,-1,4,5,1,-1,4,1,3,-1]
  normalPerVertex TRUE
  normal DEF NORM_7 Normal { vector [
  0 0.16195049 -0.98679888,0 0.16195049 -0.98679888,
  0 0.16195049 -0.98679888,0 0.16195049 -0.98679888,
  0 0.16195049 -0.98679888,0 0.16195049 -0.98679888] }
}
}
DEF SHAPE_8 Shape {
 appearance USE APP_1
 geometry DEF FACE_8 IndexedFaceSet {
  coord DEF COORD_8 Coordinate { point [
  -0.53934128 0.30872441 -0.70817177,-0.65029547 0.30872441 -0.58715788,
  -0.65029547 0.30872441 -0.70817177] }
 coordIndex [
  2,1,0,-1]
  normalPerVertex TRUE
  normal DEF NORM_8 Normal { vector [
  0 1 0,0 1 0,
  0 1 0] }
}
}
DEF SHAPE_9 Shape {
 appearance USE APP_1
 geometry DEF FACE_9 IndexedFaceSet {
  coord DEF COORD_9 Coordinate { point [
  0.57086614 0.40006299 -0.23580709,0.57086614 0.40188976 -0.23580709,
  0.57086614 0.40006299 0.23580709,0.57086614 0.40188976 0.23580709] }
 coordIndex [
  3,0,1,-1,3,2,0,-1]
  normalPerVertex TRUE
  normal DEF NORM_9 Normal { vector [
  1 0 0,1 0 0,
  1 0 0,1 0 0] }
}
}
DEF SHAPE_10 Shape {
 appearance USE APP_1
 geometry DEF FACE_10 IndexedFaceSet {
  coord DEF COORD_10 Coordinate { point [
  0.57086614 0.40006299 -0.23580709,0.57086614 0.40188976 -0.23580709,
  0.21653543 0.40006299 -0.62167323,0.29419852 0.40006299 -0.61229046,
  0.37289003 0.40006299 -0.58207397,0.44550614 0.40006299 -0.53028579,
  0.50489899 0.40006299 -0.46003721,0.54598798 0.40006299 -0.37784237,
  0.56495072 0.40006299 -0.30602047,0.21653543 0.40188976 -0.62167323,
  0.56015192 0.40188976 -0.32997858,0.52560409 0.40188976 -0.42451171,
  0.47390699 0.40188976 -0.50101857,0.4136599 0.40188976 -0.55644722,
  0.34521715 0.40188976 -0.59532764,0.28013323 0.40188976 -0.61540689] }
 coordIndex [
  8,1,0,-1,7,10,8,-1,6,11,7,-1,5,12,6,-1,4,13,5,-1,3,14,4,-1,15,14,3,-1,2,15,3,-1,
  9,15,2,-1,10,1,8,-1,11,10,7,-1,12,11,6,-1,13,12,5,-1,14,13,4,-1]
  normalPerVertex TRUE
  normal DEF NORM_10 Normal { vector [
  0.99646982 0 -0.083951777,0.83540996 0.54309101 -0.084512446,
  0.10137553 -0.39029081 -0.91509348,0.22643405 -0.49275769 -0.84018895,
  0.40788635 -0.53277088 -0.74147415,0.56454827 -0.55428409 -0.61159987,
  0.7475994 -0.44064769 -0.49691524,0.93187206 -0.076284594 -0.35467607,
  0.97035812 0.19242094 -0.14621662,0.098055959 0 -0.9951809,
  0.75210258 0.6324284 -0.18540774,0.75672713 0.53158279 -0.38050466,
  0.71280763 0.35640233 -0.60405519,0.57161985 0.22998007 -0.7876293,
  0.38551219 0.098521422 -0.91742786,0.17007161 -0.079394246 -0.98222818] }
}
}
DEF SHAPE_11 Shape {
 appearance DEF APP_2 Appearance {
  material Material {
   ambientIntensity 0.10375877
   diffuseColor 1 1 0.49803922
   emissiveColor 0 0 0
   shininess 0.1
   specularColor 0.12 0.12 0.12
   transparency 0
} }
 geometry DEF FACE_11 IndexedFaceSet {
  coord DEF COORD_11 Coordinate { point [
  -0.57086614 0.40188976 -0.23580709,-0.57086614 0.40188976 0.23580709,
  -0.56015192 0.40188976 0.32997858,-0.52560409 0.40188976 0.42451171,
  -0.47390699 0.40188976 0.50101857,-0.4136599 0.40188976 0.55644722,
  -0.34521715 0.40188976 0.59532764,-0.28013323 0.40188976 0.61540689,
  -0.21653543 0.40188976 0.62167323,0.21653543 0.40188976 0.62167323,
  0.29419852 0.40188976 0.61229046,0.37289003 0.40188976 0.58207397,
  0.44550614 0.40188976 0.53028579,0.50489899 0.40188976 0.46003721,
  0.54598798 0.40188976 0.37784237,0.56495072 0.40188976 0.30602047,
  0.57086614 0.40188976 0.23580709,0.57086614 0.40188976 -0.23580709,
  0.56015192 0.40188976 -0.32997858,0.52560409 0.40188976 -0.42451171,
  0.47390699 0.40188976 -0.50101857,0.4136599 0.40188976 -0.55644722,
  0.34521715 0.40188976 -0.59532764,0.28013323 0.40188976 -0.61540689,
  0.21653543 0.40188976 -0.62167323,-0.21653543 0.40188976 -0.62167323,
  -0.29419852 0.40188976 -0.61229046,-0.37289003 0.40188976 -0.58207397,
  -0.44550614 0.40188976 -0.53028579,-0.50489899 0.40188976 -0.46003721,
  -0.54598798 0.40188976 -0.37784237,-0.56495072 0.40188976 -0.30602047] }
 coordIndex [
  9,10,11,-1,9,11,12,-1,9,12,13,-1,9,13,14,-1,9,14,15,-1,16,9,15,-1,6,7,8,-1,5,6,8,-1,
  4,5,8,-1,3,4,8,-1,2,3,8,-1,1,8,9,-1,1,9,16,-1,1,2,8,-1,24,17,18,-1,24,18,19,-1,
  24,19,20,-1,24,20,21,-1,24,21,22,-1,24,22,23,-1,0,16,17,-1,0,1,16,-1,25,17,24,-1,25,0,17,-1,
  31,0,25,-1,30,31,25,-1,27,25,26,-1,29,30,25,-1,28,25,27,-1,28,29,25,-1]
  normalPerVertex TRUE
  normal DEF NORM_11 Normal { vector [
  0 1 0,0 1 0,
  0 1 0,0 1 0,
  0 1 0,0 1 0,
  0 1 0,0 1 0,
  0 1 0,0 1 0,
  0 1 0,0 1 0,
  0 1 0,0 1 0,
  0 1 0,0 1 0,
  0 1 0,0 1 0,
  0 1 0,0 1 0,
  0 1 0,0 1 0,
  0 1 0,0 1 0,
  0 1 0,0 1 0,
  0 1 0,0 1 0,
  0 1 0,0 1 0,
  0 1 0,0 1 0] }
}
}
DEF SHAPE_12 Shape {
 appearance USE APP_1
 geometry DEF FACE_12 IndexedFaceSet {
  coord DEF COORD_12 Coordinate { point [
  -0.21653543 0.40006299 -0.62167323,-0.21653543 0.40188976 -0.62167323,
  -0.57086614 0.40006299 -0.23580709,-0.56015192 0.40006299 -0.32997858,
  -0.52560409 0.40006299 -0.42451171,-0.47390699 0.40006299 -0.50101857,
  -0.4136599 0.40006299 -0.55644722,-0.34521715 0.40006299 -0.59532764,
  -0.28013323 0.40006299 -0.61540689,-0.57086614 0.40188976 -0.23580709,
  -0.29419852 0.40188976 -0.61229046,-0.37289003 0.40188976 -0.58207397,
  -0.44550614 0.40188976 -0.53028579,-0.50489899 0.40188976 -0.46003721,
  -0.54598798 0.40188976 -0.37784237,-0.56495072 0.40188976 -0.30602047] }
 coordIndex [
  8,1,0,-1,10,1,8,-1,7,10,8,-1,6,11,7,-1,5,12,6,-1,4,13,5,-1,3,14,4,-1,2,15,3,-1,
  9,15,2,-1,11,10,7,-1,12,11,6,-1,13,12,5,-1,14,13,4,-1,15,14,3,-1]
  normalPerVertex TRUE
  normal DEF NORM_12 Normal { vector [
  -0.098055959 0 -0.9951809,-0.10137553 0.39029081 -0.91509348,
  -0.83540996 -0.54309101 -0.084512446,-0.75210258 -0.6324284 -0.18540774,
  -0.75672713 -0.53158279 -0.38050466,-0.71280763 -0.35640233 -0.60405519,
  -0.57161985 -0.22998007 -0.7876293,-0.38551219 -0.098521422 -0.91742786,
  -0.17007161 0.079394246 -0.98222818,-0.99646982 0 -0.083951777,
  -0.22643405 0.49275769 -0.84018895,-0.40788635 0.53277088 -0.74147415,
  -0.56454827 0.55428409 -0.61159987,-0.7475994 0.44064769 -0.49691524,
  -0.93187206 0.076284594 -0.35467607,-0.97035812 -0.19242094 -0.14621662] }
}
}
DEF SHAPE_13 Shape {
 appearance USE APP_1
 geometry DEF FACE_13 IndexedFaceSet {
  coord DEF COORD_13 Coordinate { point [
  -0.57086614 0.40006299 -0.23580709,-0.57086614 0.40188976 -0.23580709,
  -0.57086614 0.40188976 0.23580709,-0.57086614 0.40006299 0.23580709] }
 coordIndex [
  1,3,2,-1,1,0,3,-1]
  normalPerVertex TRUE
  normal DEF NORM_13 Normal { vector [
  -1 0 0,-1 0 0,
  -1 0 0,-1 0 0] }
}
}
DEF SHAPE_14 Shape {
 appearance USE APP_1
 geometry DEF FACE_14 IndexedFaceSet {
  coord DEF COORD_14 Coordinate { point [
  -0.57086614 0.40006299 0.23580709,-0.57086614 0.40188976 0.23580709,
  -0.21653543 0.40006299 0.62167323,-0.29419852 0.40006299 0.61229046,
  -0.37289003 0.40006299 0.58207397,-0.44550614 0.40006299 0.53028579,
  -0.50489899 0.40006299 0.46003721,-0.54598798 0.40006299 0.37784237,
  -0.56495072 0.40006299 0.30602047,-0.21653543 0.40188976 0.62167323,
  -0.56015192 0.40188976 0.32997858,-0.52560409 0.40188976 0.42451171,
  -0.47390699 0.40188976 0.50101857,-0.4136599 0.40188976 0.55644722,
  -0.34521715 0.40188976 0.59532764,-0.28013323 0.40188976 0.61540689] }
 coordIndex [
  8,1,0,-1,7,10,8,-1,6,11,7,-1,5,12,6,-1,4,13,5,-1,3,14,4,-1,15,14,3,-1,2,15,3,-1,
  9,15,2,-1,10,1,8,-1,11,10,7,-1,12,11,6,-1,13,12,5,-1,14,13,4,-1]
  normalPerVertex TRUE
  normal DEF NORM_14 Normal { vector [
  -0.99646982 0 0.083951777,-0.83540996 0.54309101 0.084512446,
  -0.10137553 -0.39029081 0.91509348,-0.22643405 -0.49275769 0.84018895,
  -0.40788635 -0.53277088 0.74147415,-0.56454827 -0.55428409 0.61159987,
  -0.7475994 -0.44064769 0.49691524,-0.93187206 -0.076284594 0.35467607,
  -0.97035812 0.19242094 0.14621662,-0.098055959 0 0.9951809,
  -0.75210258 0.6324284 0.18540774,-0.75672713 0.53158279 0.38050466,
  -0.71280763 0.35640233 0.60405519,-0.57161985 0.22998007 0.7876293,
  -0.38551219 0.098521422 0.91742786,-0.17007161 -0.079394246 0.98222818] }
}
}
DEF SHAPE_15 Shape {
 appearance USE APP_1
 geometry DEF FACE_15 IndexedFaceSet {
  coord DEF COORD_15 Coordinate { point [
  0.21653543 0.40006299 0.62167323,0.21653543 0.40188976 0.62167323,
  -0.21653543 0.40006299 0.62167323,-0.21653543 0.40188976 0.62167323] }
 coordIndex [
  3,0,1,-1,3,2,0,-1]
  normalPerVertex TRUE
  normal DEF NORM_15 Normal { vector [
  0 0 1,0 0 1,
  0 0 1,0 0 1] }
}
}
DEF SHAPE_16 Shape {
 appearance USE APP_1
 geometry DEF FACE_16 IndexedFaceSet {
  coord DEF COORD_16 Coordinate { point [
  0.21653543 0.40006299 0.62167323,0.21653543 0.40188976 0.62167323,
  0.57086614 0.40006299 0.23580709,0.56015192 0.40006299 0.32997858,
  0.52560409 0.40006299 0.42451171,0.47390699 0.40006299 0.50101857,
  0.4136599 0.40006299 0.55644722,0.34521715 0.40006299 0.59532764,
  0.28013323 0.40006299 0.61540689,0.57086614 0.40188976 0.23580709,
  0.29419852 0.40188976 0.61229046,0.37289003 0.40188976 0.58207397,
  0.44550614 0.40188976 0.53028579,0.50489899 0.40188976 0.46003721,
  0.54598798 0.40188976 0.37784237,0.56495072 0.40188976 0.30602047] }
 coordIndex [
  8,1,0,-1,10,1,8,-1,7,10,8,-1,6,11,7,-1,5,12,6,-1,4,13,5,-1,3,14,4,-1,2,15,3,-1,
  9,15,2,-1,11,10,7,-1,12,11,6,-1,13,12,5,-1,14,13,4,-1,15,14,3,-1]
  normalPerVertex TRUE
  normal DEF NORM_16 Normal { vector [
  0.098055959 0 0.9951809,0.10137553 0.39029081 0.91509348,
  0.83540996 -0.54309101 0.084512446,0.75210258 -0.6324284 0.18540774,
  0.75672713 -0.53158279 0.38050466,0.71280763 -0.35640233 0.60405519,
  0.57161985 -0.22998007 0.7876293,0.38551219 -0.098521422 0.91742786,
  0.17007161 0.079394246 0.98222818,0.99646982 0 0.083951777,
  0.22643405 0.49275769 0.84018895,0.40788635 0.53277088 0.74147415,
  0.56454827 0.55428409 0.61159987,0.7475994 0.44064769 0.49691524,
  0.93187206 0.076284594 0.35467607,0.97035812 -0.19242094 0.14621662] }
}
}
DEF SHAPE_17 Shape {
 appearance USE APP_1
 geometry DEF FACE_17 IndexedFaceSet {
  coord DEF COORD_17 Coordinate { point [
  -0.21653543 0.40006299 -0.62167323,-0.21653543 0.40188976 -0.62167323,
  0.21653543 0.40006299 -0.62167323,0.21653543 0.40188976 -0.62167323] }
 coordIndex [
  3,0,1,-1,3,2,0,-1]
  normalPerVertex TRUE
  normal DEF NORM_17 Normal { vector [
  0 0 -1,0 0 -1,
  0 0 -1,0 0 -1] }
}
}
] }
DEF TXFM_4 Transform {
  center 0 0 0
  rotation 0 0 1 0
  scale 1 1 1
  scaleOrientation 0 0 1 0
  translation 0 0 0
 children [
DEF SHAPE_18 Shape {
 appearance DEF APP_3 Appearance {
  material Material {
   ambientIntensity 1
   diffuseColor 0 0 0
   emissiveColor 0 0 0
   shininess 0.1
   specularColor 0.12 0.12 0.12
   transparency 0
} }
 geometry DEF FACE_18 IndexedFaceSet {
  coord DEF COORD_18 Coordinate { point [
  0.36614173 -0.073070866 -0.5573622,0.53149606 -0.073070866 -0.5573622,
  0.36614173 -0.073070866 -0.30011811,0.53149606 -0.073070866 -0.30011811,
  0.53149606 -0.073070866 -0.12862205,0.36614173 -0.073070866 -0.12862205,
  0.36614173 -0.073070866 0.12862205,0.53149606 -0.073070866 0.12862205,
  0.53149606 -0.073070866 0.30011811,0.36614173 -0.073070866 0.30011811,
  0.36614173 -0.073070866 0.5573622,0.53149606 -0.073070866 0.5573622,
  0.53149606 -0.073070866 0.72885827,-0.53149606 -0.073070866 0.72885827,
  -0.53149606 -0.073070866 0.5573622,-0.36614173 -0.073070866 0.5573622,
  -0.36614173 -0.073070866 0.30011811,-0.53149606 -0.073070866 0.30011811,
  -0.53149606 -0.073070866 0.12862205,-0.36614173 -0.073070866 0.12862205,
  -0.36614173 -0.073070866 -0.12862205,-0.53149606 -0.073070866 -0.12862205,
  -0.53149606 -0.073070866 -0.30011811,-0.36614173 -0.073070866 -0.30011811,
  -0.36614173 -0.073070866 -0.5573622,-0.53149606 -0.073070866 -0.5573622,
  -0.53149606 -0.073070866 -0.72885827,0.53149606 -0.073070866 -0.72885827] }
 coordIndex [
  0,27,1,-1,5,2,3,-1,5,3,4,-1,24,26,27,-1,24,27,0,-1,9,6,7,-1,9,7,8,-1,25,26,24,-1,
  23,0,2,-1,23,24,0,-1,12,10,11,-1,20,2,5,-1,20,23,2,-1,21,22,23,-1,21,23,20,-1,19,5,6,-1,
  19,20,5,-1,16,19,6,-1,16,6,9,-1,17,18,19,-1,17,19,16,-1,15,9,10,-1,15,16,9,-1,13,14,15,-1,
  13,10,12,-1,13,15,10,-1]
  normalPerVertex TRUE
  normal DEF NORM_18 Normal { vector [
  0 -1 0,0 -1 0,
  0 -1 0,0 -1 0,
  0 -1 0,0 -1 0,
  0 -1 0,0 -1 0,
  0 -1 0,0 -1 0,
  0 -1 0,0 -1 0,
  0 -1 0,0 -1 0,
  0 -1 0,0 -1 0,
  0 -1 0,0 -1 0,
  0 -1 0,0 -1 0,
  0 -1 0,0 -1 0,
  0 -1 0,0 -1 0,
  0 -1 0,0 -1 0,
  0 -1 0,0 -1 0] }
}
}
DEF SHAPE_19 Shape {
 appearance USE APP_3
 geometry DEF FACE_19 IndexedFaceSet {
  coord DEF COORD_19 Coordinate { point [
  0.59898763 0.14614173 -0.5573622,0.61023622 0.18267717 -0.5573622,
  0.59898763 0.14614173 -0.30011811,0.61023622 0.18267717 -0.30011811,
  0.61023622 0.18267717 -0.12862205,0.59898763 0.14614173 -0.12862205,
  0.59898763 0.14614173 0.12862205,0.61023622 0.18267717 0.12862205,
  0.61023622 0.18267717 0.30011811,0.59898763 0.14614173 0.30011811,
  0.59898763 0.14614173 0.5573622,0.61023622 0.18267717 0.5573622,
  0.61023622 0.18267717 0.72885827,0.53149606 -0.073070866 0.72885827,
  0.53149606 -0.073070866 0.5573622,0.53149606 -0.073070866 0.30011811,
  0.53149606 -0.073070866 0.12862205,0.53149606 -0.073070866 -0.12862205,
  0.53149606 -0.073070866 -0.30011811,0.53149606 -0.073070866 -0.5573622,
  0.53149606 -0.073070866 -0.72885827,0.61023622 0.18267717 -0.72885827] }
 coordIndex [
  0,19,20,-1,0,20,21,-1,18,19,0,-1,1,0,21,-1,2,18,0,-1,5,17,18,-1,5,18,2,-1,16,17,5,-1,
  4,2,3,-1,4,5,2,-1,6,16,5,-1,9,15,16,-1,9,16,6,-1,14,15,9,-1,8,6,7,-1,8,9,6,-1,
  10,13,14,-1,10,14,9,-1,12,10,11,-1,12,13,10,-1]
  normalPerVertex TRUE
  normal DEF NORM_19 Normal { vector [
  0.9557281 -0.29425126 0,0.9557281 -0.29425126 0,
  0.9557281 -0.29425126 0,0.9557281 -0.29425126 0,
  0.9557281 -0.29425126 0,0.9557281 -0.29425126 0,
  0.9557281 -0.29425126 0,0.9557281 -0.29425126 0,
  0.9557281 -0.29425126 0,0.9557281 -0.29425126 0,
  0.9557281 -0.29425126 0,0.9557281 -0.29425126 0,
  0.9557281 -0.29425126 0,0.9557281 -0.29425126 0,
  0.9557281 -0.29425126 0,0.9557281 -0.29425126 0,
  0.9557281 -0.29425126 0,0.9557281 -0.29425126 0,
  0.9557281 -0.29425126 0,0.9557281 -0.29425126 0,
  0.9557281 -0.29425126 0,0.9557281 -0.29425126 0] }
}
}
DEF SHAPE_20 Shape {
 appearance DEF APP_4 Appearance {
  material Material {
   ambientIntensity 0.13783784
   diffuseColor 0.72549021 0.72549021 0.72549021
   emissiveColor 0 0 0
   shininess 0.1
   specularColor 0.12 0.12 0.12
   transparency 0
} }
 geometry DEF FACE_20 IndexedFaceSet {
  coord DEF COORD_20 Coordinate { point [
  0.61023622 0.18267717 -0.5573622,0.61023622 0.18267717 -0.30011811,
  0.61023622 0.18267717 -0.12862205,0.61023622 0.18267717 0.12862205,
  0.61023622 0.18267717 0.30011811,0.61023622 0.18267717 0.5573622,
  0.61023622 0.18267717 0.72885827,-0.61023622 0.18267717 0.72885827,
  -0.61023622 0.18267717 0.5573622,-0.61023622 0.18267717 0.30011811,
  -0.61023622 0.18267717 0.12862205,-0.61023622 0.18267717 -0.12862205,
  -0.61023622 0.18267717 -0.30011811,-0.61023622 0.18267717 -0.5573622,
  -0.61023622 0.18267717 -0.72885827,0.61023622 0.18267717 -0.72885827] }
 coordIndex [
  13,15,14,-1,13,0,15,-1,12,1,0,-1,12,0,13,-1,11,2,1,-1,11,1,12,-1,10,3,2,-1,10,2,11,-1,
  9,4,3,-1,9,3,10,-1,8,5,4,-1,8,4,9,-1,7,6,5,-1,7,5,8,-1]
  normalPerVertex TRUE
  normal DEF NORM_20 Normal { vector [
  0 1 0,0 1 0,
  0 1 0,0 1 0,
  0 1 0,0 1 0,
  0 1 0,0 1 0,
  0 1 0,0 1 0,
  0 1 0,0 1 0,
  0 1 0,0 1 0,
  0 1 0,0 1 0] }
}
}
DEF SHAPE_21 Shape {
 appearance USE APP_4
 geometry DEF FACE_21 IndexedFaceSet {
  coord DEF COORD_21 Coordinate { point [
  0.68897638 0.14614173 -0.5573622,0.68897638 0.14614173 -0.30011811,
  0.61023622 0.18267717 -0.5573622,0.64874344 0.17801014 -0.5573622,
  0.66591392 0.17197618 -0.5573622,0.67614138 0.16613428 -0.5573622,
  0.68185894 0.16132098 -0.5573622,0.68593693 0.15619476 -0.5573622,
  0.61023622 0.18267717 -0.30011811,0.68747204 0.15324928 -0.30011811,
  0.68301297 0.16008922 -0.30011811,0.67474623 0.16709107 -0.30011811,
  0.65673111 0.1756276 -0.30011811,0.63378363 0.18100519 -0.30011811] }
 coordIndex [
  9,1,0,-1,9,0,7,-1,10,7,6,-1,10,9,7,-1,11,5,4,-1,11,6,5,-1,11,10,6,-1,12,4,3,-1,
  12,11,4,-1,13,3,2,-1,13,12,3,-1,8,13,2,-1]
  normalPerVertex TRUE
  normal DEF NORM_21 Normal { vector [
  0.96668632 0.25596003 -0.0014189803,0.97832687 0.20706648 0,
  0.10162268 0.99481897 -0.0028363502,0.20034972 0.97972242 -0.0019899678,
  0.40997247 0.91209785 0.00028775432,0.55560938 0.83144345 -7.9144006e-05,
  0.68411254 0.72937636 0.00038527795,0.88512552 0.46535177 -0.00074046608,
  0.070826482 0.99748865 0,0.93629473 0.3512148 -0.00058323146,
  0.74851834 0.66311383 0.00058962636,0.52712723 0.84978564 0.0011202984,
  0.32456778 0.94586183 0.0010777628,0.13654754 0.99063234 -0.0015310063] }
}
}
DEF SHAPE_22 Shape {
 appearance USE APP_4
 geometry DEF FACE_22 IndexedFaceSet {
  coord DEF COORD_22 Coordinate { point [
  0.68897638 0.14614173 -0.30011811,0.68747204 0.15324928 -0.30011811,
  0.68301297 0.16008922 -0.30011811,0.67474623 0.16709107 -0.30011811,
  0.65673111 0.1756276 -0.30011811,0.63378363 0.18100519 -0.30011811,
  0.61023622 0.18267717 -0.30011811,0.68897638 -0.082204724 -0.30011811,
  0.68573155 -0.091162676 -0.30011811,0.67959386 -0.097024714 -0.30011811,
  0.66761406 -0.10329892 -0.30011811,0.64919602 -0.1081057 -0.30011811,
  0.62992126 -0.1096063 -0.30011811,0.36614173 -0.1096063 -0.30011811,
  0.36614173 -0.073070866 -0.30011811,0.53149606 -0.073070866 -0.30011811,
  0.57930259 -0.073070866 -0.30011811,0.59898763 -0.063937008 -0.30011811,
  0.59322201 -0.070395621 -0.30011811,0.58684157 -0.072374469 -0.30011811,
  0.59898763 0.14614173 -0.30011811] }
 coordIndex [
  7,9,8,-1,10,9,7,-1,11,10,7,-1,17,12,11,-1,17,11,7,-1,18,12,17,-1,19,12,18,-1,16,12,19,-1,
  15,12,16,-1,0,17,7,-1,2,0,1,-1,3,0,2,-1,4,0,3,-1,13,12,15,-1,20,17,0,-1,20,0,4,-1,
  5,20,4,-1,14,13,15,-1,6,20,5,-1]
  normalPerVertex TRUE
  normal DEF NORM_22 Normal { vector [
  0 0 1,0 0 1,
  0 0 1,0 0 1,
  0 0 1,0 0 1,
  0 0 1,0 0 1,
  0 0 1,0 0 1,
  0 0 1,0 0 1,
  0 0 1,0 0 1,
  0 0 1,0 0 1,
  0 0 1,0 0 1,
  0 0 1,0 0 1,
  0 0 1] }
}
}
DEF SHAPE_23 Shape {
 appearance USE APP_4
 geometry DEF FACE_23 IndexedFaceSet {
  coord DEF COORD_23 Coordinate { point [
  0.68897638 0.14614173 -0.5573622,0.68897638 0.14614173 -0.30011811,
  0.68897638 -0.082204724 -0.5573622,0.68897638 -0.082204724 -0.30011811] }
 coordIndex [
  1,2,0,-1,1,3,2,-1]
  normalPerVertex TRUE
  normal DEF NORM_23 Normal { vector [
  1 0 0,1 0 0,
  1 0 0,1 0 0] }
}
}
DEF SHAPE_24 Shape {
 appearance USE APP_4
 geometry DEF FACE_24 IndexedFaceSet {
  coord DEF COORD_24 Coordinate { point [
  0.61023622 0.18267717 -0.5573622,0.64874344 0.17801014 -0.5573622,
  0.66591392 0.17197618 -0.5573622,0.67614138 0.16613428 -0.5573622,
  0.68185894 0.16132098 -0.5573622,0.68593693 0.15619476 -0.5573622,
  0.68897638 0.14614173 -0.5573622,0.59898763 0.14614173 -0.5573622,
  0.59898763 -0.063937008 -0.5573622,0.57930259 -0.073070866 -0.5573622,
  0.58683403 -0.072375918 -0.5573622,0.59322201 -0.070395621 -0.5573622,
  0.53149606 -0.073070866 -0.5573622,0.36614173 -0.073070866 -0.5573622,
  0.36614173 -0.1096063 -0.5573622,0.62992126 -0.1096063 -0.5573622,
  0.65880167 -0.10610603 -0.5573622,0.67167953 -0.10158056 -0.5573622,
  0.67929545 -0.097237871 -0.5573622,0.68483002 -0.092291099 -0.5573622,
  0.68897638 -0.082204724 -0.5573622] }
 coordIndex [
  12,14,13,-1,15,9,10,-1,15,12,9,-1,15,14,12,-1,11,15,10,-1,8,15,11,-1,16,15,8,-1,20,17,16,-1,
  20,18,17,-1,20,19,18,-1,20,16,8,-1,1,7,0,-1,6,8,7,-1,6,20,8,-1,2,7,1,-1,2,6,7,-1,
  3,6,2,-1,4,5,6,-1,4,6,3,-1]
  normalPerVertex TRUE
  normal DEF NORM_24 Normal { vector [
  0 0 -1,0 0 -1,
  0 0 -1,0 0 -1,
  0 0 -1,0 0 -1,
  0 0 -1,0 0 -1,
  0 0 -1,0 0 -1,
  0 0 -1,0 0 -1,
  0 0 -1,0 0 -1,
  0 0 -1,0 0 -1,
  0 0 -1,0 0 -1,
  0 0 -1,0 0 -1,
  0 0 -1] }
}
}
DEF SHAPE_25 Shape {
 appearance USE APP_4
 geometry DEF FACE_25 IndexedFaceSet {
  coord DEF COORD_25 Coordinate { point [
  0.59898763 -0.063937008 -0.30011811,0.59898763 -0.063937008 -0.5573622,
  0.59898763 0.14614173 -0.5573622,0.59898763 0.14614173 -0.30011811] }
 coordIndex [
  3,1,0,-1,3,2,1,-1]
  normalPerVertex TRUE
  normal DEF NORM_25 Normal { vector [
  -1 0 0,-1 0 0,
  -1 0 0,-1 0 0] }
}
}
DEF SHAPE_26 Shape {
 appearance USE APP_4
 geometry DEF FACE_26 IndexedFaceSet {
  coord DEF COORD_26 Coordinate { point [
  0.59898763 -0.063937008 0.12862205,0.59898763 -0.063937008 -0.12862205,
  0.59898763 0.14614173 -0.12862205,0.59898763 0.14614173 0.12862205] }
 coordIndex [
  3,1,0,-1,3,2,1,-1]
  normalPerVertex TRUE
  normal DEF NORM_26 Normal { vector [
  -1 0 0,-1 0 0,
  -1 0 0,-1 0 0] }
}
}
DEF SHAPE_27 Shape {
 appearance USE APP_4
 geometry DEF FACE_27 IndexedFaceSet {
  coord DEF COORD_27 Coordinate { point [
  0.59898763 -0.063937008 0.5573622,0.59898763 -0.063937008 0.30011811,
  0.59898763 0.14614173 0.30011811,0.59898763 0.14614173 0.5573622] }
 coordIndex [
  3,1,0,-1,3,2,1,-1]
  normalPerVertex TRUE
  normal DEF NORM_27 Normal { vector [
  -1 0 0,-1 0 0,
  -1 0 0,-1 0 0] }
}
}
DEF SHAPE_28 Shape {
 appearance USE APP_4
 geometry DEF FACE_28 IndexedFaceSet {
  coord DEF COORD_28 Coordinate { point [
  0.59898763 -0.063937008 -0.30011811,0.59898763 -0.063937008 -0.5573622,
  0.59322201 -0.070395621 -0.30011811,0.58684157 -0.072374469 -0.30011811,
  0.57930259 -0.073070866 -0.30011811,0.57930259 -0.073070866 -0.5573622,
  0.58683403 -0.072375918 -0.5573622,0.59322201 -0.070395621 -0.5573622,
  0.59760551 -0.067299133 -0.42874016] }
 coordIndex [
  8,0,1,-1,8,2,0,-1,8,3,2,-1,8,4,3,-1,8,5,4,-1,8,6,5,-1,8,7,6,-1,8,1,7,-1]
  normalPerVertex TRUE
  normal DEF NORM_28 Normal { vector [
  -0.83956567 0.54323353 -0.0051782602,-0.83956567 0.54323353 0.0051782602,
  -0.57051891 0.8212844 0.00032833401,-0.18869105 0.98176832 0.022948986,
  -0.26718247 0.96363181 0.0052215519,-0.26719546 0.96362822 -0.0052195414,
  -0.18869105 0.98176832 -0.02294899,-0.57034623 0.82140433 -0.00033710601,
  -0.42089808 0.90710793 0] }
}
}
DEF SHAPE_29 Shape {
 appearance USE APP_4
 geometry DEF FACE_29 IndexedFaceSet {
  coord DEF COORD_29 Coordinate { point [
  0.57930259 -0.073070866 -0.30011811,0.57930259 -0.073070866 -0.5573622,
  0.53149606 -0.073070866 -0.30011811,0.53149606 -0.073070866 -0.5573622] }
 coordIndex [
  0,3,2,-1,0,1,3,-1]
  normalPerVertex TRUE
  normal DEF NORM_29 Normal { vector [
  0 1 0,0 1 0,
  0 1 0,0 1 0] }
}
}
DEF SHAPE_30 Shape {
 appearance USE APP_4
 geometry DEF FACE_30 IndexedFaceSet {
  coord DEF COORD_30 Coordinate { point [
  0.57930259 -0.073070866 0.12862205,0.57930259 -0.073070866 -0.12862205,
  0.53149606 -0.073070866 0.12862205,0.53149606 -0.073070866 -0.12862205] }
 coordIndex [
  0,3,2,-1,0,1,3,-1]
  normalPerVertex TRUE
  normal DEF NORM_30 Normal { vector [
  0 1 0,0 1 0,
  0 1 0,0 1 0] }
}
}
DEF SHAPE_31 Shape {
 appearance USE APP_4
 geometry DEF FACE_31 IndexedFaceSet {
  coord DEF COORD_31 Coordinate { point [
  0.57930259 -0.073070866 0.5573622,0.57930259 -0.073070866 0.30011811,
  0.53149606 -0.073070866 0.5573622,0.53149606 -0.073070866 0.30011811] }
 coordIndex [
  0,3,2,-1,0,1,3,-1]
  normalPerVertex TRUE
  normal DEF NORM_31 Normal { vector [
  0 1 0,0 1 0,
  0 1 0,0 1 0] }
}
}
DEF SHAPE_32 Shape {
 appearance USE APP_4
 geometry DEF FACE_32 IndexedFaceSet {
  coord DEF COORD_32 Coordinate { point [
  0.59898763 -0.063937008 0.12862205,0.59898763 -0.063937008 -0.12862205,
  0.59322201 -0.070395621 0.12862205,0.58684157 -0.072374469 0.12862205,
  0.57930259 -0.073070866 0.12862205,0.57930259 -0.073070866 -0.12862205,
  0.58683403 -0.072375918 -0.12862205,0.59322201 -0.070395621 -0.12862205,
  0.59760551 -0.067299133 0] }
 coordIndex [
  8,0,1,-1,8,2,0,-1,8,3,2,-1,8,4,3,-1,8,5,4,-1,8,6,5,-1,8,7,6,-1,8,1,7,-1]
  normalPerVertex TRUE
  normal DEF NORM_32 Normal { vector [
  -0.83956567 0.54323353 -0.0051782602,-0.83956567 0.54323353 0.0051782602,
  -0.57051891 0.8212844 0.00032833401,-0.18869105 0.98176832 0.022948986,
  -0.26718247 0.96363181 0.0052215519,-0.26719546 0.96362822 -0.0052195414,
  -0.18869105 0.98176832 -0.02294899,-0.57034623 0.82140433 -0.00033710601,
  -0.42089808 0.90710793 0] }
}
}
DEF SHAPE_33 Shape {
 appearance USE APP_4
 geometry DEF FACE_33 IndexedFaceSet {
  coord DEF COORD_33 Coordinate { point [
  0.68897638 0.14614173 0.12862205,0.68747204 0.15324928 0.12862205,
  0.68301297 0.16008922 0.12862205,0.67474623 0.16709107 0.12862205,
  0.65673111 0.1756276 0.12862205,0.63378363 0.18100519 0.12862205,
  0.61023622 0.18267717 0.12862205,0.68897638 -0.082204724 0.12862205,
  0.68573155 -0.091162676 0.12862205,0.67959386 -0.097024714 0.12862205,
  0.66761406 -0.10329892 0.12862205,0.64919602 -0.1081057 0.12862205,
  0.62992126 -0.1096063 0.12862205,0.36614173 -0.1096063 0.12862205,
  0.36614173 -0.073070866 0.12862205,0.53149606 -0.073070866 0.12862205,
  0.57930259 -0.073070866 0.12862205,0.59898763 -0.063937008 0.12862205,
  0.59322201 -0.070395621 0.12862205,0.58684157 -0.072374469 0.12862205,
  0.59898763 0.14614173 0.12862205] }
 coordIndex [
  7,9,8,-1,10,9,7,-1,11,10,7,-1,17,12,11,-1,17,11,7,-1,18,12,17,-1,19,12,18,-1,16,12,19,-1,
  15,12,16,-1,0,17,7,-1,2,0,1,-1,3,0,2,-1,4,0,3,-1,13,12,15,-1,20,17,0,-1,20,0,4,-1,
  5,20,4,-1,14,13,15,-1,6,20,5,-1]
  normalPerVertex TRUE
  normal DEF NORM_33 Normal { vector [
  0 0 1,0 0 1,
  0 0 1,0 0 1,
  0 0 1,0 0 1,
  0 0 1,0 0 1,
  0 0 1,0 0 1,
  0 0 1,0 0 1,
  0 0 1,0 0 1,
  0 0 1,0 0 1,
  0 0 1,0 0 1,
  0 0 1,0 0 1,
  0 0 1] }
}
}
DEF SHAPE_34 Shape {
 appearance USE APP_4
 geometry DEF FACE_34 IndexedFaceSet {
  coord DEF COORD_34 Coordinate { point [
  0.68897638 0.14614173 -0.12862205,0.68897638 0.14614173 0.12862205,
  0.61023622 0.18267717 -0.12862205,0.64874344 0.17801014 -0.12862205,
  0.66591392 0.17197618 -0.12862205,0.67614138 0.16613428 -0.12862205,
  0.68185894 0.16132098 -0.12862205,0.68593693 0.15619476 -0.12862205,
  0.61023622 0.18267717 0.12862205,0.68747204 0.15324928 0.12862205,
  0.68301297 0.16008922 0.12862205,0.67474623 0.16709107 0.12862205,
  0.65673111 0.1756276 0.12862205,0.63378363 0.18100519 0.12862205] }
 coordIndex [
  9,1,0,-1,9,0,7,-1,10,7,6,-1,10,9,7,-1,11,5,4,-1,11,6,5,-1,11,10,6,-1,12,4,3,-1,
  12,11,4,-1,13,3,2,-1,13,12,3,-1,8,13,2,-1]
  normalPerVertex TRUE
  normal DEF NORM_34 Normal { vector [
  0.96668632 0.25596003 -0.0014189803,0.97832687 0.20706648 0,
  0.10162268 0.99481897 -0.0028363502,0.20034972 0.97972242 -0.0019899678,
  0.40997247 0.91209785 0.00028775432,0.55560938 0.83144345 -7.9144006e-05,
  0.68411254 0.72937636 0.00038527795,0.88512552 0.46535177 -0.00074046608,
  0.070826482 0.99748865 0,0.93629473 0.3512148 -0.00058323146,
  0.74851834 0.66311383 0.00058962636,0.52712723 0.84978564 0.0011202984,
  0.32456778 0.94586183 0.0010777628,0.13654754 0.99063234 -0.0015310063] }
}
}
DEF SHAPE_35 Shape {
 appearance USE APP_4
 geometry DEF FACE_35 IndexedFaceSet {
  coord DEF COORD_35 Coordinate { point [
  0.61023622 0.18267717 -0.12862205,0.64874344 0.17801014 -0.12862205,
  0.66591392 0.17197618 -0.12862205,0.67614138 0.16613428 -0.12862205,
  0.68185894 0.16132098 -0.12862205,0.68593693 0.15619476 -0.12862205,
  0.68897638 0.14614173 -0.12862205,0.59898763 0.14614173 -0.12862205,
  0.59898763 -0.063937008 -0.12862205,0.57930259 -0.073070866 -0.12862205,
  0.58683403 -0.072375918 -0.12862205,0.59322201 -0.070395621 -0.12862205,
  0.53149606 -0.073070866 -0.12862205,0.36614173 -0.073070866 -0.12862205,
  0.36614173 -0.1096063 -0.12862205,0.62992126 -0.1096063 -0.12862205,
  0.65880167 -0.10610603 -0.12862205,0.67167953 -0.10158056 -0.12862205,
  0.67929545 -0.097237871 -0.12862205,0.68483002 -0.092291099 -0.12862205,
  0.68897638 -0.082204724 -0.12862205] }
 coordIndex [
  12,14,13,-1,15,9,10,-1,15,12,9,-1,15,14,12,-1,11,15,10,-1,8,15,11,-1,16,15,8,-1,20,17,16,-1,
  20,18,17,-1,20,19,18,-1,20,16,8,-1,1,7,0,-1,6,8,7,-1,6,20,8,-1,2,7,1,-1,2,6,7,-1,
  3,6,2,-1,4,5,6,-1,4,6,3,-1]
  normalPerVertex TRUE
  normal DEF NORM_35 Normal { vector [
  0 0 -1,0 0 -1,
  0 0 -1,0 0 -1,
  0 0 -1,0 0 -1,
  0 0 -1,0 0 -1,
  0 0 -1,0 0 -1,
  0 0 -1,0 0 -1,
  0 0 -1,0 0 -1,
  0 0 -1,0 0 -1,
  0 0 -1,0 0 -1,
  0 0 -1,0 0 -1,
  0 0 -1] }
}
}
DEF SHAPE_36 Shape {
 appearance USE APP_4
 geometry DEF FACE_36 IndexedFaceSet {
  coord DEF COORD_36 Coordinate { point [
  0.36614173 -0.073070866 0.12862205,0.36614173 -0.073070866 -0.12862205,
  0.36614173 -0.1096063 0.12862205,0.36614173 -0.1096063 -0.12862205] }
 coordIndex [
  1,2,0,-1,1,3,2,-1]
  normalPerVertex TRUE
  normal DEF NORM_36 Normal { vector [
  -1 0 0,-1 0 0,
  -1 0 0,-1 0 0] }
}
}
DEF SHAPE_37 Shape {
 appearance USE APP_4
 geometry DEF FACE_37 IndexedFaceSet {
  coord DEF COORD_37 Coordinate { point [
  0.62992126 -0.1096063 -0.12862205,0.62992126 -0.1096063 0.12862205,
  0.36614173 -0.1096063 0.12862205,0.36614173 -0.1096063 -0.12862205] }
 coordIndex [
  2,0,1,-1,2,3,0,-1]
  normalPerVertex TRUE
  normal DEF NORM_37 Normal { vector [
  0 -1 0,0 -1 0,
  0 -1 0,0 -1 0] }
}
}
DEF SHAPE_38 Shape {
 appearance USE APP_4
 geometry DEF FACE_38 IndexedFaceSet {
  coord DEF COORD_38 Coordinate { point [
  0.62992126 -0.1096063 -0.12862205,0.65880167 -0.10610603 -0.12862205,
  0.67167953 -0.10158056 -0.12862205,0.67929545 -0.097237871 -0.12862205,
  0.68483002 -0.092291099 -0.12862205,0.68897638 -0.082204724 -0.12862205,
  0.68897638 -0.082204724 0.12862205,0.68573155 -0.091162676 0.12862205,
  0.67959386 -0.097024714 0.12862205,0.66761406 -0.10329892 0.12862205,
  0.64919602 -0.1081057 0.12862205,0.62992126 -0.1096063 0.12862205] }
 coordIndex [
  5,6,7,-1,4,7,8,-1,4,5,7,-1,3,4,8,-1,2,8,9,-1,2,3,8,-1,1,9,10,-1,1,2,9,-1,
  0,10,11,-1,0,1,10,-1]
  normalPerVertex TRUE
  normal DEF NORM_38 Normal { vector [
  0.10329336 -0.99464905 -0.001937385,0.208559 -0.97800909 -0.0011698799,
  0.42261127 -0.90631103 0.00016479702,0.57696383 -0.8167697 7.4966485e-06,
  0.79729522 -0.60358936 -0.00045531501,0.93225109 -0.361811 -0.00084000925,
  0.94021761 -0.3405743 0,0.8787308 -0.47731755 -0.00038034602,
  0.56525574 -0.82491545 0.00067628273,0.33924272 -0.94069846 0.00089011826,
  0.14574799 -0.98932138 -0.00085418898,0.077618423 -0.99698314 0] }
}
}
DEF SHAPE_39 Shape {
 appearance USE APP_4
 geometry DEF FACE_39 IndexedFaceSet {
  coord DEF COORD_39 Coordinate { point [
  0.68897638 0.14614173 -0.12862205,0.68897638 0.14614173 0.12862205,
  0.68897638 -0.082204724 -0.12862205,0.68897638 -0.082204724 0.12862205] }
 coordIndex [
  1,2,0,-1,1,3,2,-1]
  normalPerVertex TRUE
  normal DEF NORM_39 Normal { vector [
  1 0 0,1 0 0,
  1 0 0,1 0 0] }
}
}
DEF SHAPE_40 Shape {
 appearance USE APP_4
 geometry DEF FACE_40 IndexedFaceSet {
  coord DEF COORD_40 Coordinate { point [
  0.59898763 -0.063937008 0.5573622,0.59898763 -0.063937008 0.30011811,
  0.59322201 -0.070395621 0.5573622,0.58684157 -0.072374469 0.5573622,
  0.57930259 -0.073070866 0.5573622,0.57930259 -0.073070866 0.30011811,
  0.58683403 -0.072375918 0.30011811,0.59322201 -0.070395621 0.30011811,
  0.59760551 -0.067299133 0.42874016] }
 coordIndex [
  8,0,1,-1,8,2,0,-1,8,3,2,-1,8,4,3,-1,8,5,4,-1,8,6,5,-1,8,7,6,-1,8,1,7,-1]
  normalPerVertex TRUE
  normal DEF NORM_40 Normal { vector [
  -0.83956567 0.54323353 -0.0051782602,-0.83956567 0.54323353 0.0051782602,
  -0.57051891 0.8212844 0.00032833401,-0.18869105 0.98176832 0.022948986,
  -0.26718247 0.96363181 0.0052215519,-0.26719546 0.96362822 -0.0052195414,
  -0.18869105 0.98176832 -0.02294899,-0.57034623 0.82140433 -0.00033710601,
  -0.42089808 0.90710793 0] }
}
}
DEF SHAPE_41 Shape {
 appearance USE APP_4
 geometry DEF FACE_41 IndexedFaceSet {
  coord DEF COORD_41 Coordinate { point [
  0.68897638 0.14614173 0.5573622,0.68747204 0.15324928 0.5573622,
  0.68301297 0.16008922 0.5573622,0.67474623 0.16709107 0.5573622,
  0.65673111 0.1756276 0.5573622,0.63378363 0.18100519 0.5573622,
  0.61023622 0.18267717 0.5573622,0.68897638 -0.082204724 0.5573622,
  0.68573155 -0.091162676 0.5573622,0.67959386 -0.097024714 0.5573622,
  0.66761406 -0.10329892 0.5573622,0.64919602 -0.1081057 0.5573622,
  0.62992126 -0.1096063 0.5573622,0.36614173 -0.1096063 0.5573622,
  0.36614173 -0.073070866 0.5573622,0.53149606 -0.073070866 0.5573622,
  0.57930259 -0.073070866 0.5573622,0.59898763 -0.063937008 0.5573622,
  0.59322201 -0.070395621 0.5573622,0.58684157 -0.072374469 0.5573622,
  0.59898763 0.14614173 0.5573622] }
 coordIndex [
  7,9,8,-1,10,9,7,-1,11,10,7,-1,17,12,11,-1,17,11,7,-1,18,12,17,-1,19,12,18,-1,16,12,19,-1,
  15,12,16,-1,0,17,7,-1,2,0,1,-1,3,0,2,-1,4,0,3,-1,13,12,15,-1,20,17,0,-1,20,0,4,-1,
  5,20,4,-1,14,13,15,-1,6,20,5,-1]
  normalPerVertex TRUE
  normal DEF NORM_41 Normal { vector [
  0 0 1,0 0 1,
  0 0 1,0 0 1,
  0 0 1,0 0 1,
  0 0 1,0 0 1,
  0 0 1,0 0 1,
  0 0 1,0 0 1,
  0 0 1,0 0 1,
  0 0 1,0 0 1,
  0 0 1,0 0 1,
  0 0 1,0 0 1,
  0 0 1] }
}
}
DEF SHAPE_42 Shape {
 appearance USE APP_4
 geometry DEF FACE_42 IndexedFaceSet {
  coord DEF COORD_42 Coordinate { point [
  0.68897638 0.14614173 0.30011811,0.68897638 0.14614173 0.5573622,
  0.61023622 0.18267717 0.30011811,0.64874344 0.17801014 0.30011811,
  0.66591392 0.17197618 0.30011811,0.67614138 0.16613428 0.30011811,
  0.68185894 0.16132098 0.30011811,0.68593693 0.15619476 0.30011811,
  0.61023622 0.18267717 0.5573622,0.68747204 0.15324928 0.5573622,
  0.68301297 0.16008922 0.5573622,0.67474623 0.16709107 0.5573622,
  0.65673111 0.1756276 0.5573622,0.63378363 0.18100519 0.5573622] }
 coordIndex [
  9,1,0,-1,9,0,7,-1,10,7,6,-1,10,9,7,-1,11,5,4,-1,11,6,5,-1,11,10,6,-1,12,4,3,-1,
  12,11,4,-1,13,3,2,-1,13,12,3,-1,8,13,2,-1]
  normalPerVertex TRUE
  normal DEF NORM_42 Normal { vector [
  0.96668632 0.25596003 -0.0014189803,0.97832687 0.20706648 0,
  0.10162268 0.99481897 -0.0028363502,0.20034972 0.97972242 -0.0019899678,
  0.40997247 0.91209785 0.00028775432,0.55560938 0.83144345 -7.9144006e-05,
  0.68411254 0.72937636 0.00038527795,0.88512552 0.46535177 -0.00074046608,
  0.070826482 0.99748865 0,0.93629473 0.3512148 -0.00058323146,
  0.74851834 0.66311383 0.00058962636,0.52712723 0.84978564 0.0011202984,
  0.32456778 0.94586183 0.0010777628,0.13654754 0.99063234 -0.0015310063] }
}
}
DEF SHAPE_43 Shape {
 appearance USE APP_4
 geometry DEF FACE_43 IndexedFaceSet {
  coord DEF COORD_43 Coordinate { point [
  0.61023622 0.18267717 0.30011811,0.64874344 0.17801014 0.30011811,
  0.66591392 0.17197618 0.30011811,0.67614138 0.16613428 0.30011811,
  0.68185894 0.16132098 0.30011811,0.68593693 0.15619476 0.30011811,
  0.68897638 0.14614173 0.30011811,0.59898763 0.14614173 0.30011811,
  0.59898763 -0.063937008 0.30011811,0.57930259 -0.073070866 0.30011811,
  0.58683403 -0.072375918 0.30011811,0.59322201 -0.070395621 0.30011811,
  0.53149606 -0.073070866 0.30011811,0.36614173 -0.073070866 0.30011811,
  0.36614173 -0.1096063 0.30011811,0.62992126 -0.1096063 0.30011811,
  0.65880167 -0.10610603 0.30011811,0.67167953 -0.10158056 0.30011811,
  0.67929545 -0.097237871 0.30011811,0.68483002 -0.092291099 0.30011811,
  0.68897638 -0.082204724 0.30011811] }
 coordIndex [
  12,14,13,-1,15,9,10,-1,15,12,9,-1,15,14,12,-1,11,15,10,-1,8,15,11,-1,16,15,8,-1,20,17,16,-1,
  20,18,17,-1,20,19,18,-1,20,16,8,-1,1,7,0,-1,6,8,7,-1,6,20,8,-1,2,7,1,-1,2,6,7,-1,
  3,6,2,-1,4,5,6,-1,4,6,3,-1]
  normalPerVertex TRUE
  normal DEF NORM_43 Normal { vector [
  0 0 -1,0 0 -1,
  0 0 -1,0 0 -1,
  0 0 -1,0 0 -1,
  0 0 -1,0 0 -1,
  0 0 -1,0 0 -1,
  0 0 -1,0 0 -1,
  0 0 -1,0 0 -1,
  0 0 -1,0 0 -1,
  0 0 -1,0 0 -1,
  0 0 -1,0 0 -1,
  0 0 -1] }
}
}
DEF SHAPE_44 Shape {
 appearance USE APP_4
 geometry DEF FACE_44 IndexedFaceSet {
  coord DEF COORD_44 Coordinate { point [
  0.36614173 -0.073070866 0.5573622,0.36614173 -0.073070866 0.30011811,
  0.36614173 -0.1096063 0.5573622,0.36614173 -0.1096063 0.30011811] }
 coordIndex [
  1,2,0,-1,1,3,2,-1]
  normalPerVertex TRUE
  normal DEF NORM_44 Normal { vector [
  -1 0 0,-1 0 0,
  -1 0 0,-1 0 0] }
}
}
DEF SHAPE_45 Shape {
 appearance USE APP_4
 geometry DEF FACE_45 IndexedFaceSet {
  coord DEF COORD_45 Coordinate { point [
  0.36614173 -0.1096063 0.30011811,0.62992126 -0.1096063 0.30011811,
  0.36614173 -0.1096063 0.5573622,0.62992126 -0.1096063 0.5573622] }
 coordIndex [
  0,3,2,-1,0,1,3,-1]
  normalPerVertex TRUE
  normal DEF NORM_45 Normal { vector [
  0 -1 0,0 -1 0,
  0 -1 0,0 -1 0] }
}
}
DEF SHAPE_46 Shape {
 appearance USE APP_4
 geometry DEF FACE_46 IndexedFaceSet {
  coord DEF COORD_46 Coordinate { point [
  0.68897638 -0.082204724 0.5573622,0.68573155 -0.091162676 0.5573622,
  0.67959386 -0.097024714 0.5573622,0.66761406 -0.10329892 0.5573622,
  0.64919602 -0.1081057 0.5573622,0.62992126 -0.1096063 0.5573622,
  0.62992126 -0.1096063 0.30011811,0.65880167 -0.10610603 0.30011811,
  0.67167953 -0.10158056 0.30011811,0.67929545 -0.097237871 0.30011811,
  0.68483002 -0.092291099 0.30011811,0.68897638 -0.082204724 0.30011811] }
 coordIndex [
  11,0,1,-1,10,1,2,-1,10,11,1,-1,9,10,2,-1,8,2,3,-1,8,9,2,-1,7,3,4,-1,7,8,3,-1,
  6,4,5,-1,6,7,4,-1]
  normalPerVertex TRUE
  normal DEF NORM_46 Normal { vector [
  0.94021761 -0.3405743 0,0.8787308 -0.47731755 -0.00038034602,
  0.56525574 -0.82491545 0.00067628273,0.33924272 -0.94069846 0.00089011826,
  0.14574799 -0.98932138 -0.00085418898,0.077618423 -0.99698314 0,
  0.10329336 -0.99464905 -0.001937385,0.208559 -0.97800909 -0.0011698799,
  0.42261127 -0.90631103 0.00016479702,0.57696383 -0.8167697 7.4966485e-06,
  0.79729522 -0.60358936 -0.00045531501,0.93225109 -0.361811 -0.00084000925] }
}
}
DEF SHAPE_47 Shape {
 appearance USE APP_4
 geometry DEF FACE_47 IndexedFaceSet {
  coord DEF COORD_47 Coordinate { point [
  0.68897638 0.14614173 0.30011811,0.68897638 0.14614173 0.5573622,
  0.68897638 -0.082204724 0.30011811,0.68897638 -0.082204724 0.5573622] }
 coordIndex [
  1,2,0,-1,1,3,2,-1]
  normalPerVertex TRUE
  normal DEF NORM_47 Normal { vector [
  1 0 0,1 0 0,
  1 0 0,1 0 0] }
}
}
DEF SHAPE_48 Shape {
 appearance USE APP_4
 geometry DEF FACE_48 IndexedFaceSet {
  coord DEF COORD_48 Coordinate { point [
  0.36614173 -0.073070866 -0.30011811,0.36614173 -0.073070866 -0.5573622,
  0.36614173 -0.1096063 -0.30011811,0.36614173 -0.1096063 -0.5573622] }
 coordIndex [
  1,2,0,-1,1,3,2,-1]
  normalPerVertex TRUE
  normal DEF NORM_48 Normal { vector [
  -1 0 0,-1 0 0,
  -1 0 0,-1 0 0] }
}
}
DEF SHAPE_49 Shape {
 appearance USE APP_4
 geometry DEF FACE_49 IndexedFaceSet {
  coord DEF COORD_49 Coordinate { point [
  0.36614173 -0.1096063 -0.5573622,0.62992126 -0.1096063 -0.5573622,
  0.36614173 -0.1096063 -0.30011811,0.62992126 -0.1096063 -0.30011811] }
 coordIndex [
  0,3,2,-1,0,1,3,-1]
  normalPerVertex TRUE
  normal DEF NORM_49 Normal { vector [
  0 -1 0,0 -1 0,
  0 -1 0,0 -1 0] }
}
}
DEF SHAPE_50 Shape {
 appearance USE APP_4
 geometry DEF FACE_50 IndexedFaceSet {
  coord DEF COORD_50 Coordinate { point [
  0.62992126 -0.1096063 -0.5573622,0.65880167 -0.10610603 -0.5573622,
  0.67167953 -0.10158056 -0.5573622,0.67929545 -0.097237871 -0.5573622,
  0.68483002 -0.092291099 -0.5573622,0.68897638 -0.082204724 -0.5573622,
  0.68897638 -0.082204724 -0.30011811,0.68573155 -0.091162676 -0.30011811,
  0.67959386 -0.097024714 -0.30011811,0.66761406 -0.10329892 -0.30011811,
  0.64919602 -0.1081057 -0.30011811,0.62992126 -0.1096063 -0.30011811] }
 coordIndex [
  5,6,7,-1,4,7,8,-1,4,5,7,-1,3,4,8,-1,2,8,9,-1,2,3,8,-1,1,9,10,-1,1,2,9,-1,
  0,10,11,-1,0,1,10,-1]
  normalPerVertex TRUE
  normal DEF NORM_50 Normal { vector [
  0.10329336 -0.99464905 -0.001937385,0.208559 -0.97800909 -0.0011698799,
  0.42261127 -0.90631103 0.00016479702,0.57696383 -0.8167697 7.4966485e-06,
  0.79729522 -0.60358936 -0.00045531501,0.93225109 -0.361811 -0.00084000925,
  0.94021761 -0.3405743 0,0.8787308 -0.47731755 -0.00038034602,
  0.56525574 -0.82491545 0.00067628273,0.33924272 -0.94069846 0.00089011826,
  0.14574799 -0.98932138 -0.00085418898,0.077618423 -0.99698314 0] }
}
}
DEF SHAPE_51 Shape {
 appearance USE APP_3
 geometry DEF FACE_51 IndexedFaceSet {
  coord DEF COORD_51 Coordinate { point [
  0.53149606 -0.073070866 0.72885827,0.61023622 0.18267717 0.72885827,
  -0.53149606 -0.073070866 0.72885827,-0.61023622 0.18267717 0.72885827] }
 coordIndex [
  2,0,1,-1,3,2,1,-1]
  normalPerVertex TRUE
  normal DEF NORM_51 Normal { vector [
  0 0 1,0 0 1,
  0 0 1,0 0 1] }
}
}
DEF SHAPE_52 Shape {
 appearance USE APP_3
 geometry DEF FACE_52 IndexedFaceSet {
  coord DEF COORD_52 Coordinate { point [
  -0.59898763 0.14614173 0.5573622,-0.61023622 0.18267717 0.5573622,
  -0.59898763 0.14614173 0.30011811,-0.61023622 0.18267717 0.30011811,
  -0.61023622 0.18267717 0.12862205,-0.59898763 0.14614173 0.12862205,
  -0.59898763 0.14614173 -0.12862205,-0.61023622 0.18267717 -0.12862205,
  -0.61023622 0.18267717 -0.30011811,-0.59898763 0.14614173 -0.30011811,
  -0.59898763 0.14614173 -0.5573622,-0.61023622 0.18267717 -0.5573622,
  -0.61023622 0.18267717 -0.72885827,-0.53149606 -0.073070866 -0.72885827,
  -0.53149606 -0.073070866 -0.5573622,-0.53149606 -0.073070866 -0.30011811,
  -0.53149606 -0.073070866 -0.12862205,-0.53149606 -0.073070866 0.12862205,
  -0.53149606 -0.073070866 0.30011811,-0.53149606 -0.073070866 0.5573622,
  -0.53149606 -0.073070866 0.72885827,-0.61023622 0.18267717 0.72885827] }
 coordIndex [
  0,19,20,-1,0,20,21,-1,18,19,0,-1,1,0,21,-1,2,18,0,-1,5,17,18,-1,5,18,2,-1,16,17,5,-1,
  4,2,3,-1,4,5,2,-1,6,16,5,-1,9,15,16,-1,9,16,6,-1,14,15,9,-1,8,6,7,-1,8,9,6,-1,
  10,13,14,-1,10,14,9,-1,12,10,11,-1,12,13,10,-1]
  normalPerVertex TRUE
  normal DEF NORM_52 Normal { vector [
  -0.9557281 -0.29425126 0,-0.9557281 -0.29425126 0,
  -0.9557281 -0.29425126 0,-0.9557281 -0.29425126 0,
  -0.9557281 -0.29425126 0,-0.9557281 -0.29425126 0,
  -0.9557281 -0.29425126 0,-0.9557281 -0.29425126 0,
  -0.9557281 -0.29425126 0,-0.9557281 -0.29425126 0,
  -0.9557281 -0.29425126 0,-0.9557281 -0.29425126 0,
  -0.9557281 -0.29425126 0,-0.9557281 -0.29425126 0,
  -0.9557281 -0.29425126 0,-0.9557281 -0.29425126 0,
  -0.9557281 -0.29425126 0,-0.9557281 -0.29425126 0,
  -0.9557281 -0.29425126 0,-0.9557281 -0.29425126 0,
  -0.9557281 -0.29425126 0,-0.9557281 -0.29425126 0] }
}
}
DEF SHAPE_53 Shape {
 appearance USE APP_4
 geometry DEF FACE_53 IndexedFaceSet {
  coord DEF COORD_53 Coordinate { point [
  -0.57930259 -0.073070866 -0.30011811,-0.57930259 -0.073070866 -0.5573622,
  -0.53149606 -0.073070866 -0.5573622,-0.53149606 -0.073070866 -0.30011811] }
 coordIndex [
  3,1,0,-1,3,2,1,-1]
  normalPerVertex TRUE
  normal DEF NORM_53 Normal { vector [
  0 1 0,0 1 0,
  0 1 0,0 1 0] }
}
}
DEF SHAPE_54 Shape {
 appearance USE APP_4
 geometry DEF FACE_54 IndexedFaceSet {
  coord DEF COORD_54 Coordinate { point [
  -0.57930259 -0.073070866 0.12862205,-0.57930259 -0.073070866 -0.12862205,
  -0.53149606 -0.073070866 -0.12862205,-0.53149606 -0.073070866 0.12862205] }
 coordIndex [
  3,1,0,-1,3,2,1,-1]
  normalPerVertex TRUE
  normal DEF NORM_54 Normal { vector [
  0 1 0,0 1 0,
  0 1 0,0 1 0] }
}
}
DEF SHAPE_55 Shape {
 appearance USE APP_4
 geometry DEF FACE_55 IndexedFaceSet {
  coord DEF COORD_55 Coordinate { point [
  -0.57930259 -0.073070866 0.5573622,-0.57930259 -0.073070866 0.30011811,
  -0.53149606 -0.073070866 0.30011811,-0.53149606 -0.073070866 0.5573622] }
 coordIndex [
  3,1,0,-1,3,2,1,-1]
  normalPerVertex TRUE
  normal DEF NORM_55 Normal { vector [
  0 1 0,0 1 0,
  0 1 0,0 1 0] }
}
}
DEF SHAPE_56 Shape {
 appearance USE APP_4
 geometry DEF FACE_56 IndexedFaceSet {
  coord DEF COORD_56 Coordinate { point [
  -0.57930259 -0.073070866 -0.30011811,-0.57930259 -0.073070866 -0.5573622,
  -0.58683403 -0.072375918 -0.30011811,-0.59322201 -0.070395621 -0.30011811,
  -0.59898763 -0.063937008 -0.30011811,-0.59898763 -0.063937008 -0.5573622,
  -0.59322201 -0.070395621 -0.5573622,-0.58684157 -0.072374469 -0.5573622,
  -0.59760551 -0.067299133 -0.42874016] }
 coordIndex [
  8,0,1,-1,8,2,0,-1,8,3,2,-1,8,4,3,-1,8,5,4,-1,8,6,5,-1,8,7,6,-1,8,1,7,-1]
  normalPerVertex TRUE
  normal DEF NORM_56 Normal { vector [
  0.26719546 0.96362822 0.0052195414,0.26718247 0.96363181 -0.0052215519,
  0.18869105 0.98176832 0.02294899,0.57034623 0.82140433 0.00033710601,
  0.83956567 0.54323353 -0.0051782602,0.83956567 0.54323353 0.0051782602,
  0.57051891 0.8212844 -0.00032833401,0.18869105 0.98176832 -0.022948986,
  0.42089808 0.90710793 0] }
}
}
DEF SHAPE_57 Shape {
 appearance USE APP_4
 geometry DEF FACE_57 IndexedFaceSet {
  coord DEF COORD_57 Coordinate { point [
  -0.61023622 0.18267717 -0.30011811,-0.64874344 0.17801014 -0.30011811,
  -0.66591392 0.17197618 -0.30011811,-0.67614138 0.16613428 -0.30011811,
  -0.68185894 0.16132098 -0.30011811,-0.68593693 0.15619476 -0.30011811,
  -0.68897638 0.14614173 -0.30011811,-0.59898763 0.14614173 -0.30011811,
  -0.59898763 -0.063937008 -0.30011811,-0.57930259 -0.073070866 -0.30011811,
  -0.58683403 -0.072375918 -0.30011811,-0.59322201 -0.070395621 -0.30011811,
  -0.53149606 -0.073070866 -0.30011811,-0.36614173 -0.073070866 -0.30011811,
  -0.36614173 -0.1096063 -0.30011811,-0.62992126 -0.1096063 -0.30011811,
  -0.65880167 -0.10610603 -0.30011811,-0.67167953 -0.10158056 -0.30011811,
  -0.67929545 -0.097237871 -0.30011811,-0.68483002 -0.092291099 -0.30011811,
  -0.68897638 -0.082204724 -0.30011811] }
 coordIndex [
  12,14,13,-1,15,9,10,-1,15,12,9,-1,15,14,12,-1,11,15,10,-1,8,15,11,-1,16,15,8,-1,20,17,16,-1,
  20,18,17,-1,20,19,18,-1,20,16,8,-1,1,7,0,-1,6,8,7,-1,6,20,8,-1,2,7,1,-1,2,6,7,-1,
  3,6,2,-1,4,5,6,-1,4,6,3,-1]
  normalPerVertex TRUE
  normal DEF NORM_57 Normal { vector [
  0 0 1,0 0 1,
  0 0 1,0 0 1,
  0 0 1,0 0 1,
  0 0 1,0 0 1,
  0 0 1,0 0 1,
  0 0 1,0 0 1,
  0 0 1,0 0 1,
  0 0 1,0 0 1,
  0 0 1,0 0 1,
  0 0 1,0 0 1,
  0 0 1] }
}
}
DEF SHAPE_58 Shape {
 appearance USE APP_4
 geometry DEF FACE_58 IndexedFaceSet {
  coord DEF COORD_58 Coordinate { point [
  -0.61023622 0.18267717 -0.5573622,-0.61023622 0.18267717 -0.30011811,
  -0.68897638 0.14614173 -0.5573622,-0.68747204 0.15324928 -0.5573622,
  -0.68301297 0.16008922 -0.5573622,-0.67474623 0.16709107 -0.5573622,
  -0.65673111 0.1756276 -0.5573622,-0.63378363 0.18100519 -0.5573622,
  -0.68897638 0.14614173 -0.30011811,-0.64874344 0.17801014 -0.30011811,
  -0.66591392 0.17197618 -0.30011811,-0.67614138 0.16613428 -0.30011811,
  -0.68185894 0.16132098 -0.30011811,-0.68593693 0.15619476 -0.30011811] }
 coordIndex [
  1,0,7,-1,9,7,6,-1,9,1,7,-1,10,6,5,-1,10,9,6,-1,11,10,5,-1,12,5,4,-1,12,11,5,-1,
  13,4,3,-1,13,12,4,-1,8,3,2,-1,8,13,3,-1]
  normalPerVertex TRUE
  normal DEF NORM_58 Normal { vector [
  -0.070826482 0.99748865 0,-0.10162268 0.99481897 0.0028363502,
  -0.97832687 0.20706648 0,-0.93629473 0.3512148 0.00058323146,
  -0.74851834 0.66311383 -0.00058962636,-0.52712723 0.84978564 -0.0011202984,
  -0.32456778 0.94586183 -0.0010777628,-0.13654754 0.99063234 0.0015310063,
  -0.96668632 0.25596003 0.0014189803,-0.20034972 0.97972242 0.0019899678,
  -0.40997247 0.91209785 -0.00028775432,-0.55560938 0.83144345 7.9144006e-05,
  -0.68411254 0.72937636 -0.00038527795,-0.88512552 0.46535177 0.00074046608] }
}
}
DEF SHAPE_59 Shape {
 appearance USE APP_4
 geometry DEF FACE_59 IndexedFaceSet {
  coord DEF COORD_59 Coordinate { point [
  -0.68897638 0.14614173 -0.5573622,-0.68897638 0.14614173 -0.30011811,
  -0.68897638 -0.082204724 -0.30011811,-0.68897638 -0.082204724 -0.5573622] }
 coordIndex [
  0,2,1,-1,0,3,2,-1]
  normalPerVertex TRUE
  normal DEF NORM_59 Normal { vector [
  -1 0 0,-1 0 0,
  -1 0 0,-1 0 0] }
}
}
DEF SHAPE_60 Shape {
 appearance USE APP_4
 geometry DEF FACE_60 IndexedFaceSet {
  coord DEF COORD_60 Coordinate { point [
  -0.68897638 -0.082204724 -0.5573622,-0.68573155 -0.091162676 -0.5573622,
  -0.67959386 -0.097024714 -0.5573622,-0.66761406 -0.10329892 -0.5573622,
  -0.64919602 -0.1081057 -0.5573622,-0.62992126 -0.1096063 -0.5573622,
  -0.62992126 -0.1096063 -0.30011811,-0.65880167 -0.10610603 -0.30011811,
  -0.67167953 -0.10158056 -0.30011811,-0.67929545 -0.097237871 -0.30011811,
  -0.68483002 -0.092291099 -0.30011811,-0.68897638 -0.082204724 -0.30011811] }
 coordIndex [
  4,5,6,-1,4,6,7,-1,3,7,8,-1,3,4,7,-1,2,8,9,-1,2,9,10,-1,2,3,8,-1,1,10,11,-1,
  1,2,10,-1,0,1,11,-1]
  normalPerVertex TRUE
  normal DEF NORM_60 Normal { vector [
  -0.94021761 -0.3405743 0,-0.8787308 -0.47731755 0.00038034602,
  -0.56525574 -0.82491545 -0.00067628273,-0.33924272 -0.94069846 -0.00089011826,
  -0.14574799 -0.98932138 0.00085418898,-0.077618423 -0.99698314 0,
  -0.10329336 -0.99464905 0.001937385,-0.208559 -0.97800909 0.0011698799,
  -0.42261127 -0.90631103 -0.00016479702,-0.57696383 -0.8167697 -7.4966485e-06,
  -0.79729522 -0.60358936 0.00045531501,-0.93225109 -0.361811 0.00084000925] }
}
}
DEF SHAPE_61 Shape {
 appearance USE APP_4
 geometry DEF FACE_61 IndexedFaceSet {
  coord DEF COORD_61 Coordinate { point [
  -0.62992126 -0.1096063 -0.30011811,-0.62992126 -0.1096063 -0.5573622,
  -0.36614173 -0.1096063 -0.30011811,-0.36614173 -0.1096063 -0.5573622] }
 coordIndex [
  1,2,0,-1,1,3,2,-1]
  normalPerVertex TRUE
  normal DEF NORM_61 Normal { vector [
  0 -1 0,0 -1 0,
  0 -1 0,0 -1 0] }
}
}
DEF SHAPE_62 Shape {
 appearance USE APP_4
 geometry DEF FACE_62 IndexedFaceSet {
  coord DEF COORD_62 Coordinate { point [
  -0.36614173 -0.073070866 -0.5573622,-0.36614173 -0.073070866 -0.30011811,
  -0.36614173 -0.1096063 -0.5573622,-0.36614173 -0.1096063 -0.30011811] }
 coordIndex [
  1,2,0,-1,1,3,2,-1]
  normalPerVertex TRUE
  normal DEF NORM_62 Normal { vector [
  1 0 0,1 0 0,
  1 0 0,1 0 0] }
}
}
DEF SHAPE_63 Shape {
 appearance USE APP_4
 geometry DEF FACE_63 IndexedFaceSet {
  coord DEF COORD_63 Coordinate { point [
  -0.68897638 0.14614173 -0.5573622,-0.68747204 0.15324928 -0.5573622,
  -0.68301297 0.16008922 -0.5573622,-0.67474623 0.16709107 -0.5573622,
  -0.65673111 0.1756276 -0.5573622,-0.63378363 0.18100519 -0.5573622,
  -0.61023622 0.18267717 -0.5573622,-0.68897638 -0.082204724 -0.5573622,
  -0.68573155 -0.091162676 -0.5573622,-0.67959386 -0.097024714 -0.5573622,
  -0.66761406 -0.10329892 -0.5573622,-0.64919602 -0.1081057 -0.5573622,
  -0.62992126 -0.1096063 -0.5573622,-0.36614173 -0.1096063 -0.5573622,
  -0.36614173 -0.073070866 -0.5573622,-0.53149606 -0.073070866 -0.5573622,
  -0.57930259 -0.073070866 -0.5573622,-0.59898763 -0.063937008 -0.5573622,
  -0.59322201 -0.070395621 -0.5573622,-0.58684157 -0.072374469 -0.5573622,
  -0.59898763 0.14614173 -0.5573622] }
 coordIndex [
  7,9,8,-1,10,9,7,-1,11,10,7,-1,17,12,11,-1,17,11,7,-1,18,12,17,-1,19,12,18,-1,16,12,19,-1,
  15,12,16,-1,0,17,7,-1,2,0,1,-1,3,0,2,-1,4,0,3,-1,13,12,15,-1,20,17,0,-1,20,0,4,-1,
  5,20,4,-1,14,13,15,-1,6,20,5,-1]
  normalPerVertex TRUE
  normal DEF NORM_63 Normal { vector [
  0 0 -1,0 0 -1,
  0 0 -1,0 0 -1,
  0 0 -1,0 0 -1,
  0 0 -1,0 0 -1,
  0 0 -1,0 0 -1,
  0 0 -1,0 0 -1,
  0 0 -1,0 0 -1,
  0 0 -1,0 0 -1,
  0 0 -1,0 0 -1,
  0 0 -1,0 0 -1,
  0 0 -1] }
}
}
DEF SHAPE_64 Shape {
 appearance USE APP_4
 geometry DEF FACE_64 IndexedFaceSet {
  coord DEF COORD_64 Coordinate { point [
  -0.59898763 -0.063937008 -0.30011811,-0.59898763 -0.063937008 -0.5573622,
  -0.59898763 0.14614173 -0.30011811,-0.59898763 0.14614173 -0.5573622] }
 coordIndex [
  0,3,2,-1,0,1,3,-1]
  normalPerVertex TRUE
  normal DEF NORM_64 Normal { vector [
  1 0 0,1 0 0,
  1 0 0,1 0 0] }
}
}
DEF SHAPE_65 Shape {
 appearance USE APP_4
 geometry DEF FACE_65 IndexedFaceSet {
  coord DEF COORD_65 Coordinate { point [
  -0.59898763 -0.063937008 0.12862205,-0.59898763 -0.063937008 -0.12862205,
  -0.59898763 0.14614173 0.12862205,-0.59898763 0.14614173 -0.12862205] }
 coordIndex [
  0,3,2,-1,0,1,3,-1]
  normalPerVertex TRUE
  normal DEF NORM_65 Normal { vector [
  1 0 0,1 0 0,
  1 0 0,1 0 0] }
}
}
DEF SHAPE_66 Shape {
 appearance USE APP_4
 geometry DEF FACE_66 IndexedFaceSet {
  coord DEF COORD_66 Coordinate { point [
  -0.59898763 -0.063937008 0.5573622,-0.59898763 -0.063937008 0.30011811,
  -0.59898763 0.14614173 0.5573622,-0.59898763 0.14614173 0.30011811] }
 coordIndex [
  0,3,2,-1,0,1,3,-1]
  normalPerVertex TRUE
  normal DEF NORM_66 Normal { vector [
  1 0 0,1 0 0,
  1 0 0,1 0 0] }
}
}
DEF SHAPE_67 Shape {
 appearance USE APP_4
 geometry DEF FACE_67 IndexedFaceSet {
  coord DEF COORD_67 Coordinate { point [
  -0.57930259 -0.073070866 0.12862205,-0.57930259 -0.073070866 -0.12862205,
  -0.58683403 -0.072375918 0.12862205,-0.59322201 -0.070395621 0.12862205,
  -0.59898763 -0.063937008 0.12862205,-0.59898763 -0.063937008 -0.12862205,
  -0.59322201 -0.070395621 -0.12862205,-0.58684157 -0.072374469 -0.12862205,
  -0.59760551 -0.067299133 0] }
 coordIndex [
  8,0,1,-1,8,2,0,-1,8,3,2,-1,8,4,3,-1,8,5,4,-1,8,6,5,-1,8,7,6,-1,8,1,7,-1]
  normalPerVertex TRUE
  normal DEF NORM_67 Normal { vector [
  0.26719546 0.96362822 0.0052195414,0.26718247 0.96363181 -0.0052215519,
  0.18869105 0.98176832 0.02294899,0.57034623 0.82140433 0.00033710601,
  0.83956567 0.54323353 -0.0051782602,0.83956567 0.54323353 0.0051782602,
  0.57051891 0.8212844 -0.00032833401,0.18869105 0.98176832 -0.022948986,
  0.42089808 0.90710793 0] }
}
}
DEF SHAPE_68 Shape {
 appearance USE APP_4
 geometry DEF FACE_68 IndexedFaceSet {
  coord DEF COORD_68 Coordinate { point [
  -0.61023622 0.18267717 0.12862205,-0.64874344 0.17801014 0.12862205,
  -0.66591392 0.17197618 0.12862205,-0.67614138 0.16613428 0.12862205,
  -0.68185894 0.16132098 0.12862205,-0.68593693 0.15619476 0.12862205,
  -0.68897638 0.14614173 0.12862205,-0.59898763 0.14614173 0.12862205,
  -0.59898763 -0.063937008 0.12862205,-0.57930259 -0.073070866 0.12862205,
  -0.58683403 -0.072375918 0.12862205,-0.59322201 -0.070395621 0.12862205,
  -0.53149606 -0.073070866 0.12862205,-0.36614173 -0.073070866 0.12862205,
  -0.36614173 -0.1096063 0.12862205,-0.62992126 -0.1096063 0.12862205,
  -0.65880167 -0.10610603 0.12862205,-0.67167953 -0.10158056 0.12862205,
  -0.67929545 -0.097237871 0.12862205,-0.68483002 -0.092291099 0.12862205,
  -0.68897638 -0.082204724 0.12862205] }
 coordIndex [
  12,14,13,-1,15,9,10,-1,15,12,9,-1,15,14,12,-1,11,15,10,-1,8,15,11,-1,16,15,8,-1,20,17,16,-1,
  20,18,17,-1,20,19,18,-1,20,16,8,-1,1,7,0,-1,6,8,7,-1,6,20,8,-1,2,7,1,-1,2,6,7,-1,
  3,6,2,-1,4,5,6,-1,4,6,3,-1]
  normalPerVertex TRUE
  normal DEF NORM_68 Normal { vector [
  0 0 1,0 0 1,
  0 0 1,0 0 1,
  0 0 1,0 0 1,
  0 0 1,0 0 1,
  0 0 1,0 0 1,
  0 0 1,0 0 1,
  0 0 1,0 0 1,
  0 0 1,0 0 1,
  0 0 1,0 0 1,
  0 0 1,0 0 1,
  0 0 1] }
}
}
DEF SHAPE_69 Shape {
 appearance USE APP_4
 geometry DEF FACE_69 IndexedFaceSet {
  coord DEF COORD_69 Coordinate { point [
  -0.61023622 0.18267717 -0.12862205,-0.61023622 0.18267717 0.12862205,
  -0.68897638 0.14614173 -0.12862205,-0.68747204 0.15324928 -0.12862205,
  -0.68301297 0.16008922 -0.12862205,-0.67474623 0.16709107 -0.12862205,
  -0.65673111 0.1756276 -0.12862205,-0.63378363 0.18100519 -0.12862205,
  -0.68897638 0.14614173 0.12862205,-0.64874344 0.17801014 0.12862205,
  -0.66591392 0.17197618 0.12862205,-0.67614138 0.16613428 0.12862205,
  -0.68185894 0.16132098 0.12862205,-0.68593693 0.15619476 0.12862205] }
 coordIndex [
  1,0,7,-1,9,7,6,-1,9,1,7,-1,10,6,5,-1,10,9,6,-1,11,10,5,-1,12,5,4,-1,12,11,5,-1,
  13,4,3,-1,13,12,4,-1,8,3,2,-1,8,13,3,-1]
  normalPerVertex TRUE
  normal DEF NORM_69 Normal { vector [
  -0.070826482 0.99748865 0,-0.10162268 0.99481897 0.0028363502,
  -0.97832687 0.20706648 0,-0.93629473 0.3512148 0.00058323146,
  -0.74851834 0.66311383 -0.00058962636,-0.52712723 0.84978564 -0.0011202984,
  -0.32456778 0.94586183 -0.0010777628,-0.13654754 0.99063234 0.0015310063,
  -0.96668632 0.25596003 0.0014189803,-0.20034972 0.97972242 0.0019899678,
  -0.40997247 0.91209785 -0.00028775432,-0.55560938 0.83144345 7.9144006e-05,
  -0.68411254 0.72937636 -0.00038527795,-0.88512552 0.46535177 0.00074046608] }
}
}
DEF SHAPE_70 Shape {
 appearance USE APP_4
 geometry DEF FACE_70 IndexedFaceSet {
  coord DEF COORD_70 Coordinate { point [
  -0.68897638 0.14614173 -0.12862205,-0.68897638 0.14614173 0.12862205,
  -0.68897638 -0.082204724 0.12862205,-0.68897638 -0.082204724 -0.12862205] }
 coordIndex [
  0,2,1,-1,0,3,2,-1]
  normalPerVertex TRUE
  normal DEF NORM_70 Normal { vector [
  -1 0 0,-1 0 0,
  -1 0 0,-1 0 0] }
}
}
DEF SHAPE_71 Shape {
 appearance USE APP_4
 geometry DEF FACE_71 IndexedFaceSet {
  coord DEF COORD_71 Coordinate { point [
  -0.62992126 -0.1096063 0.12862205,-0.65880167 -0.10610603 0.12862205,
  -0.67167953 -0.10158056 0.12862205,-0.67929545 -0.097237871 0.12862205,
  -0.68483002 -0.092291099 0.12862205,-0.68897638 -0.082204724 0.12862205,
  -0.68897638 -0.082204724 -0.12862205,-0.68573155 -0.091162676 -0.12862205,
  -0.67959386 -0.097024714 -0.12862205,-0.66761406 -0.10329892 -0.12862205,
  -0.64919602 -0.1081057 -0.12862205,-0.62992126 -0.1096063 -0.12862205] }
 coordIndex [
  10,0,1,-1,10,11,0,-1,9,1,2,-1,9,10,1,-1,8,2,3,-1,8,3,4,-1,8,9,2,-1,7,4,5,-1,
  7,8,4,-1,6,7,5,-1]
  normalPerVertex TRUE
  normal DEF NORM_71 Normal { vector [
  -0.10329336 -0.99464905 0.001937385,-0.208559 -0.97800909 0.0011698799,
  -0.42261127 -0.90631103 -0.00016479702,-0.57696383 -0.8167697 -7.4966485e-06,
  -0.79729522 -0.60358936 0.00045531501,-0.93225109 -0.361811 0.00084000925,
  -0.94021761 -0.3405743 0,-0.8787308 -0.47731755 0.00038034602,
  -0.56525574 -0.82491545 -0.00067628273,-0.33924272 -0.94069846 -0.00089011826,
  -0.14574799 -0.98932138 0.00085418898,-0.077618423 -0.99698314 0] }
}
}
DEF SHAPE_72 Shape {
 appearance USE APP_4
 geometry DEF FACE_72 IndexedFaceSet {
  coord DEF COORD_72 Coordinate { point [
  -0.62992126 -0.1096063 0.12862205,-0.62992126 -0.1096063 -0.12862205,
  -0.36614173 -0.1096063 0.12862205,-0.36614173 -0.1096063 -0.12862205] }
 coordIndex [
  1,2,0,-1,1,3,2,-1]
  normalPerVertex TRUE
  normal DEF NORM_72 Normal { vector [
  0 -1 0,0 -1 0,
  0 -1 0,0 -1 0] }
}
}
DEF SHAPE_73 Shape {
 appearance USE APP_4
 geometry DEF FACE_73 IndexedFaceSet {
  coord DEF COORD_73 Coordinate { point [
  -0.36614173 -0.073070866 -0.12862205,-0.36614173 -0.073070866 0.12862205,
  -0.36614173 -0.1096063 -0.12862205,-0.36614173 -0.1096063 0.12862205] }
 coordIndex [
  1,2,0,-1,1,3,2,-1]
  normalPerVertex TRUE
  normal DEF NORM_73 Normal { vector [
  1 0 0,1 0 0,
  1 0 0,1 0 0] }
}
}
DEF SHAPE_74 Shape {
 appearance USE APP_4
 geometry DEF FACE_74 IndexedFaceSet {
  coord DEF COORD_74 Coordinate { point [
  -0.68897638 0.14614173 -0.12862205,-0.68747204 0.15324928 -0.12862205,
  -0.68301297 0.16008922 -0.12862205,-0.67474623 0.16709107 -0.12862205,
  -0.65673111 0.1756276 -0.12862205,-0.63378363 0.18100519 -0.12862205,
  -0.61023622 0.18267717 -0.12862205,-0.68897638 -0.082204724 -0.12862205,
  -0.68573155 -0.091162676 -0.12862205,-0.67959386 -0.097024714 -0.12862205,
  -0.66761406 -0.10329892 -0.12862205,-0.64919602 -0.1081057 -0.12862205,
  -0.62992126 -0.1096063 -0.12862205,-0.36614173 -0.1096063 -0.12862205,
  -0.36614173 -0.073070866 -0.12862205,-0.53149606 -0.073070866 -0.12862205,
  -0.57930259 -0.073070866 -0.12862205,-0.59898763 -0.063937008 -0.12862205,
  -0.59322201 -0.070395621 -0.12862205,-0.58684157 -0.072374469 -0.12862205,
  -0.59898763 0.14614173 -0.12862205] }
 coordIndex [
  7,9,8,-1,10,9,7,-1,11,10,7,-1,17,12,11,-1,17,11,7,-1,18,12,17,-1,19,12,18,-1,16,12,19,-1,
  15,12,16,-1,0,17,7,-1,2,0,1,-1,3,0,2,-1,4,0,3,-1,13,12,15,-1,20,17,0,-1,20,0,4,-1,
  5,20,4,-1,14,13,15,-1,6,20,5,-1]
  normalPerVertex TRUE
  normal DEF NORM_74 Normal { vector [
  0 0 -1,0 0 -1,
  0 0 -1,0 0 -1,
  0 0 -1,0 0 -1,
  0 0 -1,0 0 -1,
  0 0 -1,0 0 -1,
  0 0 -1,0 0 -1,
  0 0 -1,0 0 -1,
  0 0 -1,0 0 -1,
  0 0 -1,0 0 -1,
  0 0 -1,0 0 -1,
  0 0 -1] }
}
}
DEF SHAPE_75 Shape {
 appearance USE APP_4
 geometry DEF FACE_75 IndexedFaceSet {
  coord DEF COORD_75 Coordinate { point [
  -0.57930259 -0.073070866 0.5573622,-0.57930259 -0.073070866 0.30011811,
  -0.58683403 -0.072375918 0.5573622,-0.59322201 -0.070395621 0.5573622,
  -0.59898763 -0.063937008 0.5573622,-0.59898763 -0.063937008 0.30011811,
  -0.59322201 -0.070395621 0.30011811,-0.58684157 -0.072374469 0.30011811,
  -0.59760551 -0.067299133 0.42874016] }
 coordIndex [
  8,0,1,-1,8,2,0,-1,8,3,2,-1,8,4,3,-1,8,5,4,-1,8,6,5,-1,8,7,6,-1,8,1,7,-1]
  normalPerVertex TRUE
  normal DEF NORM_75 Normal { vector [
  0.26719546 0.96362822 0.0052195414,0.26718247 0.96363181 -0.0052215519,
  0.18869105 0.98176832 0.02294899,0.57034623 0.82140433 0.00033710601,
  0.83956567 0.54323353 -0.0051782602,0.83956567 0.54323353 0.0051782602,
  0.57051891 0.8212844 -0.00032833401,0.18869105 0.98176832 -0.022948986,
  0.42089808 0.90710793 0] }
}
}
DEF SHAPE_76 Shape {
 appearance USE APP_4
 geometry DEF FACE_76 IndexedFaceSet {
  coord DEF COORD_76 Coordinate { point [
  -0.61023622 0.18267717 0.5573622,-0.64874344 0.17801014 0.5573622,
  -0.66591392 0.17197618 0.5573622,-0.67614138 0.16613428 0.5573622,
  -0.68185894 0.16132098 0.5573622,-0.68593693 0.15619476 0.5573622,
  -0.68897638 0.14614173 0.5573622,-0.59898763 0.14614173 0.5573622,
  -0.59898763 -0.063937008 0.5573622,-0.57930259 -0.073070866 0.5573622,
  -0.58683403 -0.072375918 0.5573622,-0.59322201 -0.070395621 0.5573622,
  -0.53149606 -0.073070866 0.5573622,-0.36614173 -0.073070866 0.5573622,
  -0.36614173 -0.1096063 0.5573622,-0.62992126 -0.1096063 0.5573622,
  -0.65880167 -0.10610603 0.5573622,-0.67167953 -0.10158056 0.5573622,
  -0.67929545 -0.097237871 0.5573622,-0.68483002 -0.092291099 0.5573622,
  -0.68897638 -0.082204724 0.5573622] }
 coordIndex [
  12,14,13,-1,15,9,10,-1,15,12,9,-1,15,14,12,-1,11,15,10,-1,8,15,11,-1,16,15,8,-1,20,17,16,-1,
  20,18,17,-1,20,19,18,-1,20,16,8,-1,1,7,0,-1,6,8,7,-1,6,20,8,-1,2,7,1,-1,2,6,7,-1,
  3,6,2,-1,4,5,6,-1,4,6,3,-1]
  normalPerVertex TRUE
  normal DEF NORM_76 Normal { vector [
  0 0 1,0 0 1,
  0 0 1,0 0 1,
  0 0 1,0 0 1,
  0 0 1,0 0 1,
  0 0 1,0 0 1,
  0 0 1,0 0 1,
  0 0 1,0 0 1,
  0 0 1,0 0 1,
  0 0 1,0 0 1,
  0 0 1,0 0 1,
  0 0 1] }
}
}
DEF SHAPE_77 Shape {
 appearance USE APP_4
 geometry DEF FACE_77 IndexedFaceSet {
  coord DEF COORD_77 Coordinate { point [
  -0.61023622 0.18267717 0.30011811,-0.61023622 0.18267717 0.5573622,
  -0.68897638 0.14614173 0.30011811,-0.68747204 0.15324928 0.30011811,
  -0.68301297 0.16008922 0.30011811,-0.67474623 0.16709107 0.30011811,
  -0.65673111 0.1756276 0.30011811,-0.63378363 0.18100519 0.30011811,
  -0.68897638 0.14614173 0.5573622,-0.64874344 0.17801014 0.5573622,
  -0.66591392 0.17197618 0.5573622,-0.67614138 0.16613428 0.5573622,
  -0.68185894 0.16132098 0.5573622,-0.68593693 0.15619476 0.5573622] }
 coordIndex [
  1,0,7,-1,9,7,6,-1,9,1,7,-1,10,6,5,-1,10,9,6,-1,11,10,5,-1,12,5,4,-1,12,11,5,-1,
  13,4,3,-1,13,12,4,-1,8,3,2,-1,8,13,3,-1]
  normalPerVertex TRUE
  normal DEF NORM_77 Normal { vector [
  -0.070826482 0.99748865 0,-0.10162268 0.99481897 0.0028363502,
  -0.97832687 0.20706648 0,-0.93629473 0.3512148 0.00058323146,
  -0.74851834 0.66311383 -0.00058962636,-0.52712723 0.84978564 -0.0011202984,
  -0.32456778 0.94586183 -0.0010777628,-0.13654754 0.99063234 0.0015310063,
  -0.96668632 0.25596003 0.0014189803,-0.20034972 0.97972242 0.0019899678,
  -0.40997247 0.91209785 -0.00028775432,-0.55560938 0.83144345 7.9144006e-05,
  -0.68411254 0.72937636 -0.00038527795,-0.88512552 0.46535177 0.00074046608] }
}
}
DEF SHAPE_78 Shape {
 appearance USE APP_4
 geometry DEF FACE_78 IndexedFaceSet {
  coord DEF COORD_78 Coordinate { point [
  -0.68897638 0.14614173 0.30011811,-0.68897638 0.14614173 0.5573622,
  -0.68897638 -0.082204724 0.5573622,-0.68897638 -0.082204724 0.30011811] }
 coordIndex [
  0,2,1,-1,0,3,2,-1]
  normalPerVertex TRUE
  normal DEF NORM_78 Normal { vector [
  -1 0 0,-1 0 0,
  -1 0 0,-1 0 0] }
}
}
DEF SHAPE_79 Shape {
 appearance USE APP_4
 geometry DEF FACE_79 IndexedFaceSet {
  coord DEF COORD_79 Coordinate { point [
  -0.68897638 -0.082204724 0.30011811,-0.68573155 -0.091162676 0.30011811,
  -0.67959386 -0.097024714 0.30011811,-0.66761406 -0.10329892 0.30011811,
  -0.64919602 -0.1081057 0.30011811,-0.62992126 -0.1096063 0.30011811,
  -0.62992126 -0.1096063 0.5573622,-0.65880167 -0.10610603 0.5573622,
  -0.67167953 -0.10158056 0.5573622,-0.67929545 -0.097237871 0.5573622,
  -0.68483002 -0.092291099 0.5573622,-0.68897638 -0.082204724 0.5573622] }
 coordIndex [
  4,5,6,-1,4,6,7,-1,3,7,8,-1,3,4,7,-1,2,8,9,-1,2,9,10,-1,2,3,8,-1,1,10,11,-1,
  1,2,10,-1,0,1,11,-1]
  normalPerVertex TRUE
  normal DEF NORM_79 Normal { vector [
  -0.94021761 -0.3405743 0,-0.8787308 -0.47731755 0.00038034602,
  -0.56525574 -0.82491545 -0.00067628273,-0.33924272 -0.94069846 -0.00089011826,
  -0.14574799 -0.98932138 0.00085418898,-0.077618423 -0.99698314 0,
  -0.10329336 -0.99464905 0.001937385,-0.208559 -0.97800909 0.0011698799,
  -0.42261127 -0.90631103 -0.00016479702,-0.57696383 -0.8167697 -7.4966485e-06,
  -0.79729522 -0.60358936 0.00045531501,-0.93225109 -0.361811 0.00084000925] }
}
}
DEF SHAPE_80 Shape {
 appearance USE APP_4
 geometry DEF FACE_80 IndexedFaceSet {
  coord DEF COORD_80 Coordinate { point [
  -0.62992126 -0.1096063 0.30011811,-0.36614173 -0.1096063 0.30011811,
  -0.36614173 -0.1096063 0.5573622,-0.62992126 -0.1096063 0.5573622] }
 coordIndex [
  3,0,1,-1,3,1,2,-1]
  normalPerVertex TRUE
  normal DEF NORM_80 Normal { vector [
  0 -1 0,0 -1 0,
  0 -1 0,0 -1 0] }
}
}
DEF SHAPE_81 Shape {
 appearance USE APP_4
 geometry DEF FACE_81 IndexedFaceSet {
  coord DEF COORD_81 Coordinate { point [
  -0.36614173 -0.073070866 0.30011811,-0.36614173 -0.073070866 0.5573622,
  -0.36614173 -0.1096063 0.30011811,-0.36614173 -0.1096063 0.5573622] }
 coordIndex [
  1,2,0,-1,1,3,2,-1]
  normalPerVertex TRUE
  normal DEF NORM_81 Normal { vector [
  1 0 0,1 0 0,
  1 0 0,1 0 0] }
}
}
DEF SHAPE_82 Shape {
 appearance USE APP_4
 geometry DEF FACE_82 IndexedFaceSet {
  coord DEF COORD_82 Coordinate { point [
  -0.68897638 0.14614173 0.30011811,-0.68747204 0.15324928 0.30011811,
  -0.68301297 0.16008922 0.30011811,-0.67474623 0.16709107 0.30011811,
  -0.65673111 0.1756276 0.30011811,-0.63378363 0.18100519 0.30011811,
  -0.61023622 0.18267717 0.30011811,-0.68897638 -0.082204724 0.30011811,
  -0.68573155 -0.091162676 0.30011811,-0.67959386 -0.097024714 0.30011811,
  -0.66761406 -0.10329892 0.30011811,-0.64919602 -0.1081057 0.30011811,
  -0.62992126 -0.1096063 0.30011811,-0.36614173 -0.1096063 0.30011811,
  -0.36614173 -0.073070866 0.30011811,-0.53149606 -0.073070866 0.30011811,
  -0.57930259 -0.073070866 0.30011811,-0.59898763 -0.063937008 0.30011811,
  -0.59322201 -0.070395621 0.30011811,-0.58684157 -0.072374469 0.30011811,
  -0.59898763 0.14614173 0.30011811] }
 coordIndex [
  7,9,8,-1,10,9,7,-1,11,10,7,-1,17,12,11,-1,17,11,7,-1,18,12,17,-1,19,12,18,-1,16,12,19,-1,
  15,12,16,-1,0,17,7,-1,2,0,1,-1,3,0,2,-1,4,0,3,-1,13,12,15,-1,20,17,0,-1,20,0,4,-1,
  5,20,4,-1,14,13,15,-1,6,20,5,-1]
  normalPerVertex TRUE
  normal DEF NORM_82 Normal { vector [
  0 0 -1,0 0 -1,
  0 0 -1,0 0 -1,
  0 0 -1,0 0 -1,
  0 0 -1,0 0 -1,
  0 0 -1,0 0 -1,
  0 0 -1,0 0 -1,
  0 0 -1,0 0 -1,
  0 0 -1,0 0 -1,
  0 0 -1,0 0 -1,
  0 0 -1,0 0 -1,
  0 0 -1] }
}
}
DEF SHAPE_83 Shape {
 appearance USE APP_3
 geometry DEF FACE_83 IndexedFaceSet {
  coord DEF COORD_83 Coordinate { point [
  0.61023622 0.18267717 -0.72885827,0.53149606 -0.073070866 -0.72885827,
  -0.61023622 0.18267717 -0.72885827,-0.53149606 -0.073070866 -0.72885827] }
 coordIndex [
  1,3,2,-1,0,1,2,-1]
  normalPerVertex TRUE
  normal DEF NORM_83 Normal { vector [
  0 0 -1,0 0 -1,
  0 0 -1,0 0 -1] }
}
}
] }
] }
] }
