#VRML V2.0 utf8
WorldInfo {
  title "/home/atait/.config/kicad/scripting/plugins/kicad-sandwiches/examples/kisandwich-out/sandwich-example-sandwich_LOW.wrl - Generated by Pcbnew"
}
Transform {
  scale 2.54 2.54 2.54
  children [
Transform {
  translation 64.1756 -37.95 0.314961
  scale 1 1 1
  children [
    Inline {
      url "shapes3D/SOIC-8_3.9x4.9mm_P1.27mm.wrl"
    } ]
  }
Transform {
  children [
    Group {
      children [
        Shape {
          appearance Appearance {
            material Material {
              diffuseColor 0.07 0.3 0.12
              specularColor 0.01 0.03 0.01
              emissiveColor 0 0 0
              ambientIntensity 0.8
              transparency 0
              shininess 0.02
            }
          }
          geometry IndexedFaceSet {
            solid TRUE
            coord Coordinate {
              point [
74.022047 -40.341732 0.310039, 73.94524 -40.334167 0.310039,
73.871385 -40.311764 0.310039, 73.803319 -40.275382 0.310039,
73.743659 -40.22642 0.310039, 73.694697 -40.16676 0.310039,
73.658315 -40.098694 0.310039, 73.635911 -40.024839 0.310039,
73.628346 -39.948031 0.310039, 73.628346 -36.011024 0.310039,
73.635911 -35.934217 0.310039, 73.658315 -35.860361 0.310039,
73.694697 -35.792295 0.310039, 73.743659 -35.732635 0.310039,
73.803319 -35.683673 0.310039, 73.871385 -35.647291 0.310039,
73.94524 -35.624888 0.310039, 74.022047 -35.617323 0.310039,
77.959055 -35.617323 0.310039, 78.035862 -35.624888 0.310039,
78.109718 -35.647291 0.310039, 78.177783 -35.683673 0.310039,
78.237444 -35.732635 0.310039, 78.286406 -35.792295 0.310039,
78.322787 -35.860361 0.310039, 78.345191 -35.934217 0.310039,
78.352756 -36.011024 0.310039, 78.352756 -39.948031 0.310039,
78.345191 -40.024839 0.310039, 78.322787 -40.098694 0.310039,
78.286406 -40.16676 0.310039, 78.237444 -40.22642 0.310039,
78.177783 -40.275382 0.310039, 78.109718 -40.311764 0.310039,
78.035862 -40.334167 0.310039, 77.959055 -40.341732 0.310039,
74.52126 -41.000002 0.310039, 74.56063 -40.931811 0.310039,
74.63937 -40.931811 0.310039, 74.67874 -41.000002 0.310039,
74.63937 -41.068193 0.310039, 74.56063 -41.068193 0.310039,
69.514173 -34.731496 0.310039, 69.553543 -34.663305 0.310039,
69.632283 -34.663305 0.310039, 69.671654 -34.731496 0.310039,
69.632283 -34.799687 0.310039, 69.553543 -34.799687 0.310039,
68.155906 -34.731496 0.310039, 68.116535 -34.799687 0.310039,
68.037795 -34.799687 0.310039, 67.998425 -34.731496 0.310039,
68.037795 -34.663305 0.310039, 68.116535 -34.663305 0.310039,
68.608661 -40.046457 0.310039, 68.618504 -40.029409 0.310039,
68.638189 -40.029409 0.310039, 68.648031 -40.046457 0.310039,
68.638189 -40.063504 0.310039, 68.618504 -40.063504 0.310039,
69.789764 -39.27874 0.310039, 69.829134 -39.210549 0.310039,
69.907874 -39.210549 0.310039, 69.947244 -39.27874 0.310039,
69.907874 -39.346931 0.310039, 69.829134 -39.346931 0.310039,
65.872441 -32.959843 0.310039, 65.911811 -32.891652 0.310039,
65.990551 -32.891652 0.310039, 66.029921 -32.959843 0.310039,
65.990551 -33.028033 0.310039, 65.911811 -33.028033 0.310039,
50.4 -24.2 0.310039, 50.4 -55.696063 0.310039,
89.770079 -55.696063 0.310039, 89.770079 -24.2 0.310039,
64.848819 -41.54252 0.310039, 64.858661 -41.525472 0.310039,
64.878346 -41.525472 0.310039, 64.888189 -41.54252 0.310039,
64.878346 -41.559567 0.310039, 64.858661 -41.559567 0.310039,
65.970866 -35.381102 0.310039, 65.980709 -35.364055 0.310039,
66.000394 -35.364055 0.310039, 66.010236 -35.381102 0.310039,
66.000394 -35.39815 0.310039, 65.980709 -35.39815 0.310039,
66.915748 -35.125197 0.310039, 66.925591 -35.108149 0.310039,
66.945276 -35.108149 0.310039, 66.955118 -35.125197 0.310039,
66.945276 -35.142245 0.310039, 66.925591 -35.142245 0.310039,
74.022047 -40.341732 -0.310039, 73.94524 -40.334167 -0.310039,
73.871385 -40.311764 -0.310039, 73.803319 -40.275382 -0.310039,
73.743659 -40.22642 -0.310039, 73.694697 -40.16676 -0.310039,
73.658315 -40.098694 -0.310039, 73.635911 -40.024839 -0.310039,
73.628346 -39.948031 -0.310039, 73.628346 -36.011024 -0.310039,
73.635911 -35.934217 -0.310039, 73.658315 -35.860361 -0.310039,
73.694697 -35.792295 -0.310039, 73.743659 -35.732635 -0.310039,
73.803319 -35.683673 -0.310039, 73.871385 -35.647291 -0.310039,
73.94524 -35.624888 -0.310039, 74.022047 -35.617323 -0.310039,
77.959055 -35.617323 -0.310039, 78.035862 -35.624888 -0.310039,
78.109718 -35.647291 -0.310039, 78.177783 -35.683673 -0.310039,
78.237444 -35.732635 -0.310039, 78.286406 -35.792295 -0.310039,
78.322787 -35.860361 -0.310039, 78.345191 -35.934217 -0.310039,
78.352756 -36.011024 -0.310039, 78.352756 -39.948031 -0.310039,
78.345191 -40.024839 -0.310039, 78.322787 -40.098694 -0.310039,
78.286406 -40.16676 -0.310039, 78.237444 -40.22642 -0.310039,
78.177783 -40.275382 -0.310039, 78.109718 -40.311764 -0.310039,
78.035862 -40.334167 -0.310039, 77.959055 -40.341732 -0.310039,
74.52126 -41.000002 -0.310039, 74.56063 -40.931811 -0.310039,
74.63937 -40.931811 -0.310039, 74.67874 -41.000002 -0.310039,
74.63937 -41.068193 -0.310039, 74.56063 -41.068193 -0.310039,
69.514173 -34.731496 -0.310039, 69.553543 -34.663305 -0.310039,
69.632283 -34.663305 -0.310039, 69.671654 -34.731496 -0.310039,
69.632283 -34.799687 -0.310039, 69.553543 -34.799687 -0.310039,
68.155906 -34.731496 -0.310039, 68.116535 -34.799687 -0.310039,
68.037795 -34.799687 -0.310039, 67.998425 -34.731496 -0.310039,
68.037795 -34.663305 -0.310039, 68.116535 -34.663305 -0.310039,
68.608661 -40.046457 -0.310039, 68.618504 -40.029409 -0.310039,
68.638189 -40.029409 -0.310039, 68.648031 -40.046457 -0.310039,
68.638189 -40.063504 -0.310039, 68.618504 -40.063504 -0.310039,
69.789764 -39.27874 -0.310039, 69.829134 -39.210549 -0.310039,
69.907874 -39.210549 -0.310039, 69.947244 -39.27874 -0.310039,
69.907874 -39.346931 -0.310039, 69.829134 -39.346931 -0.310039,
65.872441 -32.959843 -0.310039, 65.911811 -32.891652 -0.310039,
65.990551 -32.891652 -0.310039, 66.029921 -32.959843 -0.310039,
65.990551 -33.028033 -0.310039, 65.911811 -33.028033 -0.310039,
50.4 -24.2 -0.310039, 50.4 -55.696063 -0.310039,
89.770079 -55.696063 -0.310039, 89.770079 -24.2 -0.310039,
64.848819 -41.54252 -0.310039, 64.858661 -41.525472 -0.310039,
64.878346 -41.525472 -0.310039, 64.888189 -41.54252 -0.310039,
64.878346 -41.559567 -0.310039, 64.858661 -41.559567 -0.310039,
65.970866 -35.381102 -0.310039, 65.980709 -35.364055 -0.310039,
66.000394 -35.364055 -0.310039, 66.010236 -35.381102 -0.310039,
66.000394 -35.39815 -0.310039, 65.980709 -35.39815 -0.310039,
66.915748 -35.125197 -0.310039, 66.925591 -35.108149 -0.310039,
66.945276 -35.108149 -0.310039, 66.955118 -35.125197 -0.310039,
66.945276 -35.142245 -0.310039, 66.925591 -35.142245 -0.310039
              ]
            }
            coordIndex [
35, 0, 37, -1, 35, 37, 38, -1, 35, 38, 39, -1, 35, 39, 74, -1,
35, 74, 34, -1, 0, 1, 41, -1, 0, 41, 36, -1, 0, 36, 37, -1,
75, 72, 67, -1, 75, 67, 68, -1, 75, 68, 69, -1, 75, 69, 89, -1,
75, 89, 90, -1, 75, 90, 91, -1, 75, 91, 52, -1, 75, 52, 53, -1,
75, 53, 48, -1, 75, 48, 43, -1, 75, 43, 44, -1, 75, 44, 45, -1,
75, 45, 14, -1, 75, 14, 15, -1, 75, 15, 16, -1, 75, 16, 17, -1,
75, 17, 18, -1, 75, 18, 19, -1, 75, 19, 20, -1, 75, 20, 21, -1,
75, 21, 22, -1, 75, 22, 23, -1, 75, 23, 24, -1, 75, 24, 25, -1,
75, 25, 26, -1, 75, 26, 74, -1, 63, 64, 74, -1, 63, 74, 41, -1,
63, 41, 4, -1, 63, 4, 5, -1, 63, 5, 6, -1, 63, 6, 7, -1,
63, 7, 8, -1, 63, 8, 9, -1, 63, 9, 10, -1, 63, 10, 11, -1,
63, 11, 12, -1, 63, 12, 13, -1, 63, 13, 62, -1, 62, 13, 61, -1,
61, 13, 45, -1, 61, 45, 60, -1, 60, 45, 46, -1, 60, 46, 47, -1,
42, 43, 48, -1, 42, 48, 54, -1, 42, 54, 55, -1, 42, 55, 56, -1,
42, 56, 57, -1, 42, 57, 60, -1, 42, 60, 47, -1, 49, 50, 54, -1,
54, 50, 51, -1, 54, 51, 91, -1, 91, 51, 52, -1, 69, 70, 84, -1,
69, 84, 85, -1, 69, 85, 54, -1, 69, 54, 88, -1, 69, 88, 89, -1,
66, 67, 72, -1, 66, 72, 76, -1, 66, 76, 77, -1, 66, 77, 78, -1,
66, 78, 79, -1, 66, 79, 82, -1, 66, 82, 71, -1, 74, 26, 27, -1,
74, 27, 28, -1, 74, 28, 29, -1, 74, 29, 30, -1, 74, 30, 31, -1,
74, 31, 32, -1, 74, 32, 33, -1, 74, 33, 34, -1, 40, 41, 74, -1,
40, 74, 39, -1, 41, 1, 2, -1, 41, 2, 3, -1, 41, 3, 4, -1,
74, 64, 65, -1, 74, 65, 57, -1, 74, 57, 58, -1, 74, 58, 59, -1,
74, 59, 79, -1, 74, 79, 80, -1, 74, 80, 81, -1, 74, 81, 73, -1,
54, 91, 92, -1, 54, 92, 93, -1, 54, 93, 88, -1, 54, 85, 86, -1,
54, 86, 87, -1, 54, 87, 82, -1, 54, 82, 79, -1, 54, 79, 59, -1,
72, 73, 81, -1, 72, 81, 76, -1, 70, 71, 82, -1, 70, 82, 83, -1,
70, 83, 84, -1, 49, 54, 48, -1, 57, 65, 60, -1, 14, 45, 13, -1,
94, 129, 131, -1, 131, 129, 132, -1, 132, 129, 133, -1, 133, 129, 168, -1,
168, 129, 128, -1, 95, 94, 135, -1, 135, 94, 130, -1, 130, 94, 131, -1,
166, 169, 161, -1, 161, 169, 162, -1, 162, 169, 163, -1, 163, 169, 183, -1,
183, 169, 184, -1, 184, 169, 185, -1, 185, 169, 146, -1, 146, 169, 147, -1,
147, 169, 142, -1, 142, 169, 137, -1, 137, 169, 138, -1, 138, 169, 139, -1,
139, 169, 108, -1, 108, 169, 109, -1, 109, 169, 110, -1, 110, 169, 111, -1,
111, 169, 112, -1, 112, 169, 113, -1, 113, 169, 114, -1, 114, 169, 115, -1,
115, 169, 116, -1, 116, 169, 117, -1, 117, 169, 118, -1, 118, 169, 119, -1,
119, 169, 120, -1, 120, 169, 168, -1, 158, 157, 168, -1, 168, 157, 135, -1,
135, 157, 98, -1, 98, 157, 99, -1, 99, 157, 100, -1, 100, 157, 101, -1,
101, 157, 102, -1, 102, 157, 103, -1, 103, 157, 104, -1, 104, 157, 105, -1,
105, 157, 106, -1, 106, 157, 107, -1, 107, 157, 156, -1, 107, 156, 155, -1,
107, 155, 139, -1, 139, 155, 154, -1, 139, 154, 140, -1, 140, 154, 141, -1,
137, 136, 142, -1, 142, 136, 148, -1, 148, 136, 149, -1, 149, 136, 150, -1,
150, 136, 151, -1, 151, 136, 154, -1, 154, 136, 141, -1, 144, 143, 148, -1,
144, 148, 145, -1, 145, 148, 185, -1, 145, 185, 146, -1, 164, 163, 178, -1,
178, 163, 179, -1, 179, 163, 148, -1, 148, 163, 182, -1, 182, 163, 183, -1,
161, 160, 166, -1, 166, 160, 170, -1, 170, 160, 171, -1, 171, 160, 172, -1,
172, 160, 173, -1, 173, 160, 176, -1, 176, 160, 165, -1, 120, 168, 121, -1,
121, 168, 122, -1, 122, 168, 123, -1, 123, 168, 124, -1, 124, 168, 125, -1,
125, 168, 126, -1, 126, 168, 127, -1, 127, 168, 128, -1, 135, 134, 168, -1,
168, 134, 133, -1, 95, 135, 96, -1, 96, 135, 97, -1, 97, 135, 98, -1,
158, 168, 159, -1, 159, 168, 151, -1, 151, 168, 152, -1, 152, 168, 153, -1,
153, 168, 173, -1, 173, 168, 174, -1, 174, 168, 175, -1, 175, 168, 167, -1,
185, 148, 186, -1, 186, 148, 187, -1, 187, 148, 182, -1, 179, 148, 180, -1,
180, 148, 181, -1, 181, 148, 176, -1, 176, 148, 173, -1, 173, 148, 153, -1,
167, 166, 175, -1, 175, 166, 170, -1, 165, 164, 176, -1, 176, 164, 177, -1,
177, 164, 178, -1, 148, 143, 142, -1, 159, 151, 154, -1, 139, 108, 107, -1,
1, 0, 95, -1, 95, 0, 94, -1, 2, 1, 96, -1, 96, 1, 95, -1,
3, 2, 97, -1, 97, 2, 96, -1, 4, 3, 98, -1, 98, 3, 97, -1,
5, 4, 99, -1, 99, 4, 98, -1, 6, 5, 100, -1, 100, 5, 99, -1,
7, 6, 101, -1, 101, 6, 100, -1, 8, 7, 102, -1, 102, 7, 101, -1,
9, 8, 103, -1, 103, 8, 102, -1, 10, 9, 104, -1, 104, 9, 103, -1,
11, 10, 105, -1, 105, 10, 104, -1, 12, 11, 106, -1, 106, 11, 105, -1,
13, 12, 107, -1, 107, 12, 106, -1, 14, 13, 108, -1, 108, 13, 107, -1,
15, 14, 109, -1, 109, 14, 108, -1, 16, 15, 110, -1, 110, 15, 109, -1,
17, 16, 111, -1, 111, 16, 110, -1, 18, 17, 112, -1, 112, 17, 111, -1,
19, 18, 113, -1, 113, 18, 112, -1, 20, 19, 114, -1, 114, 19, 113, -1,
21, 20, 115, -1, 115, 20, 114, -1, 22, 21, 116, -1, 116, 21, 115, -1,
23, 22, 117, -1, 117, 22, 116, -1, 24, 23, 118, -1, 118, 23, 117, -1,
25, 24, 119, -1, 119, 24, 118, -1, 26, 25, 120, -1, 120, 25, 119, -1,
27, 26, 121, -1, 121, 26, 120, -1, 28, 27, 122, -1, 122, 27, 121, -1,
29, 28, 123, -1, 123, 28, 122, -1, 30, 29, 124, -1, 124, 29, 123, -1,
31, 30, 125, -1, 125, 30, 124, -1, 32, 31, 126, -1, 126, 31, 125, -1,
33, 32, 127, -1, 127, 32, 126, -1, 34, 33, 128, -1, 128, 33, 127, -1,
35, 34, 129, -1, 129, 34, 128, -1, 0, 35, 94, -1, 94, 35, 129, -1,
37, 36, 131, -1, 131, 36, 130, -1, 38, 37, 132, -1, 132, 37, 131, -1,
39, 38, 133, -1, 133, 38, 132, -1, 40, 39, 134, -1, 134, 39, 133, -1,
41, 40, 135, -1, 135, 40, 134, -1, 36, 41, 130, -1, 130, 41, 135, -1,
43, 42, 137, -1, 137, 42, 136, -1, 44, 43, 138, -1, 138, 43, 137, -1,
45, 44, 139, -1, 139, 44, 138, -1, 46, 45, 140, -1, 140, 45, 139, -1,
47, 46, 141, -1, 141, 46, 140, -1, 42, 47, 136, -1, 136, 47, 141, -1,
49, 48, 143, -1, 143, 48, 142, -1, 50, 49, 144, -1, 144, 49, 143, -1,
51, 50, 145, -1, 145, 50, 144, -1, 52, 51, 146, -1, 146, 51, 145, -1,
53, 52, 147, -1, 147, 52, 146, -1, 48, 53, 142, -1, 142, 53, 147, -1,
55, 54, 149, -1, 149, 54, 148, -1, 56, 55, 150, -1, 150, 55, 149, -1,
57, 56, 151, -1, 151, 56, 150, -1, 58, 57, 152, -1, 152, 57, 151, -1,
59, 58, 153, -1, 153, 58, 152, -1, 54, 59, 148, -1, 148, 59, 153, -1,
61, 60, 155, -1, 155, 60, 154, -1, 62, 61, 156, -1, 156, 61, 155, -1,
63, 62, 157, -1, 157, 62, 156, -1, 64, 63, 158, -1, 158, 63, 157, -1,
65, 64, 159, -1, 159, 64, 158, -1, 60, 65, 154, -1, 154, 65, 159, -1,
67, 66, 161, -1, 161, 66, 160, -1, 68, 67, 162, -1, 162, 67, 161, -1,
69, 68, 163, -1, 163, 68, 162, -1, 70, 69, 164, -1, 164, 69, 163, -1,
71, 70, 165, -1, 165, 70, 164, -1, 66, 71, 160, -1, 160, 71, 165, -1,
73, 72, 167, -1, 167, 72, 166, -1, 74, 73, 168, -1, 168, 73, 167, -1,
75, 74, 169, -1, 169, 74, 168, -1, 72, 75, 166, -1, 166, 75, 169, -1,
77, 76, 171, -1, 171, 76, 170, -1, 78, 77, 172, -1, 172, 77, 171, -1,
79, 78, 173, -1, 173, 78, 172, -1, 80, 79, 174, -1, 174, 79, 173, -1,
81, 80, 175, -1, 175, 80, 174, -1, 76, 81, 170, -1, 170, 81, 175, -1,
83, 82, 177, -1, 177, 82, 176, -1, 84, 83, 178, -1, 178, 83, 177, -1,
85, 84, 179, -1, 179, 84, 178, -1, 86, 85, 180, -1, 180, 85, 179, -1,
87, 86, 181, -1, 181, 86, 180, -1, 82, 87, 176, -1, 176, 87, 181, -1,
89, 88, 183, -1, 183, 88, 182, -1, 90, 89, 184, -1, 184, 89, 183, -1,
91, 90, 185, -1, 185, 90, 184, -1, 92, 91, 186, -1, 186, 91, 185, -1,
93, 92, 187, -1, 187, 92, 186, -1, 88, 93, 182, -1, 182, 93, 187, -1
            ]
          }
        }
      ]
    }
  ]
}
Transform {
  children [
    Group {
      children [
        Shape {
          appearance Appearance {
            material Material {
              diffuseColor 0.08 0.5 0.1
              specularColor 0.01 0.05 0.01
              emissiveColor 0 0 0
              ambientIntensity 0.8
              transparency 0
              shininess 0.02
            }
          }
          geometry IndexedFaceSet {
            solid TRUE
            coord Coordinate {
              point [
69.465509 -34.638931 0.314961, 69.435433 -34.731496 0.314961,
69.465509 -34.824061 0.314961, 69.544249 -34.881269 0.314961,
69.641577 -34.881269 0.314961, 69.720318 -34.824061 0.314961,
69.750394 -34.731496 0.314961, 69.720318 -34.638931 0.314961,
69.641577 -34.581723 0.314961, 69.544249 -34.581723 0.314961,
69.514173 -34.731496 0.314961, 69.553543 -34.663305 0.314961,
69.632283 -34.663305 0.314961, 69.671654 -34.731496 0.314961,
69.632283 -34.799687 0.314961, 69.553543 -34.799687 0.314961,
66.905906 -35.074054 0.314961, 66.876378 -35.125197 0.314961,
66.905906 -35.17634 0.314961, 66.916978 -35.17634 0.314961,
67.058114 -35.317475 0.314961, 67.076461 -35.322391 0.314961,
67.092913 -35.331889 0.314961, 67.354757 -35.331888 0.314961,
66.910005 -35.789231 0.314961, 65.548449 -37.150788 0.314961,
65.15 -37.150787 0.314961, 65.107381 -37.175394 0.314961,
65.107381 -37.224606 0.314961, 65.15 -37.249213 0.314961,
65.568833 -37.249213 0.314961, 65.585282 -37.239714 0.314961,
65.603632 -37.234799 0.314961, 66.979845 -35.858585 0.314961,
66.979947 -35.858204 0.314961, 66.980327 -35.858096 0.314961,
67.658255 -35.160982 0.314961, 68.002037 -34.862041 0.314961,
68.028501 -34.881269 0.314961, 68.125829 -34.881269 0.314961,
68.20457 -34.824061 0.314961, 68.234646 -34.731496 0.314961,
68.20457 -34.638931 0.314961, 68.125829 -34.581723 0.314961,
68.028501 -34.581723 0.314961, 67.949761 -34.638931 0.314961,
67.919685 -34.731496 0.314961, 67.937856 -34.787419 0.314961,
67.592117 -35.088061 0.314961, 67.591486 -35.089896 0.314961,
67.589611 -35.090398 0.314961, 67.446545 -35.233464 0.314961,
67.113297 -35.233464 0.314961, 66.980088 -35.100254 0.314961,
66.964961 -35.074054 0.314961, 66.915748 -35.125197 0.314961,
66.925591 -35.108149 0.314961, 66.945276 -35.108149 0.314961,
66.955118 -35.125197 0.314961, 66.945276 -35.142245 0.314961,
66.925591 -35.142245 0.314961, 67.998425 -34.731496 0.314961,
68.037795 -34.663305 0.314961, 68.116535 -34.663305 0.314961,
68.155906 -34.731496 0.314961, 68.116535 -34.799687 0.314961,
68.037795 -34.799687 0.314961, 65.823777 -32.867278 0.314961,
65.793701 -32.959843 0.314961, 65.823777 -33.052407 0.314961,
65.902517 -33.109615 0.314961, 65.999845 -33.109615 0.314961,
66.078585 -33.052407 0.314961, 66.108661 -32.959843 0.314961,
66.087109 -32.893512 0.314961, 66.955818 -32.024803 0.314961,
67.329134 -32.024803 0.314961, 69.592913 -32.024803 0.314961,
69.635533 -32.000197 0.314961, 69.635533 -31.950984 0.314961,
69.592913 -31.926378 0.314961, 67.329134 -31.926378 0.314961,
66.935433 -31.926378 0.314961, 66.918981 -31.935875 0.314961,
66.900635 -31.940792 0.314961, 66.018095 -32.823329 0.314961,
65.999845 -32.81007 0.314961, 65.902517 -32.81007 0.314961,
65.872441 -32.959843 0.314961, 65.911811 -32.891652 0.314961,
65.990551 -32.891652 0.314961, 66.029921 -32.959843 0.314961,
65.990551 -33.028033 0.314961, 65.911811 -33.028033 0.314961,
65.961024 -35.329959 0.314961, 65.959909 -35.33189 0.314961,
65.655906 -35.33189 0.314961, 65.639453 -35.341386 0.314961,
65.621107 -35.346304 0.314961, 64.365201 -36.602209 0.314961,
64.360283 -36.620556 0.314961, 64.350787 -36.637008 0.314961,
64.350787 -37.4 0.314961, 64.360283 -37.416449 0.314961,
64.365201 -37.434799 0.314961, 64.665201 -37.734799 0.314961,
64.683548 -37.739714 0.314961, 64.7 -37.749213 0.314961,
65.15 -37.749213 0.314961, 65.192619 -37.724606 0.314961,
65.192619 -37.675394 0.314961, 65.15 -37.650787 0.314961,
64.720385 -37.650788 0.314961, 64.449212 -37.379615 0.314961,
64.449214 -36.657393 0.314961, 65.67629 -35.430315 0.314961,
65.95991 -35.430315 0.314961, 65.961024 -35.432246 0.314961,
66.020079 -35.432246 0.314961, 66.021194 -35.430315 0.314961,
66.600787 -35.430315 0.314961, 66.617236 -35.420816 0.314961,
66.635586 -35.415901 0.314961, 66.753696 -35.297791 0.314961,
66.758611 -35.279442 0.314961, 66.76811 -35.262992 0.314961,
66.768109 -35.085344 0.314961, 66.994006 -34.859449 0.314961,
67.170956 -34.85945 0.314961, 67.333705 -35.0222 0.314961,
67.381241 -35.034937 0.314961, 67.41604 -35.000139 0.314961,
67.403302 -34.952603 0.314961, 67.226137 -34.775438 0.314961,
67.207787 -34.77052 0.314961, 67.191339 -34.761024 0.314961,
66.973621 -34.761024 0.314961, 66.957169 -34.77052 0.314961,
66.938823 -34.775438 0.314961, 66.684099 -35.030161 0.314961,
66.679181 -35.048508 0.314961, 66.669685 -35.06496 0.314961,
66.669684 -35.242607 0.314961, 66.580402 -35.331889 0.314961,
66.021194 -35.33189 0.314961, 66.020079 -35.329959 0.314961,
65.970866 -35.381102 0.314961, 65.980709 -35.364055 0.314961,
66.000394 -35.364055 0.314961, 66.010236 -35.381102 0.314961,
66.000394 -35.39815 0.314961, 65.980709 -35.39815 0.314961,
64.838976 -41.491376 0.314961, 64.837863 -41.493308 0.314961,
63.392826 -41.493308 0.314961, 62.849759 -40.950241 0.314961,
62.82653 -40.927012 0.314961, 62.826531 -40.927013 0.314961,
62.449212 -40.549694 0.314961, 62.449214 -38.637708 0.314961,
62.837708 -38.249213 0.314961, 63.201181 -38.249213 0.314961,
63.2438 -38.224606 0.314961, 63.2438 -38.175394 0.314961,
63.201181 -38.150787 0.314961, 62.817323 -38.150787 0.314961,
62.800871 -38.160284 0.314961, 62.782524 -38.165201 0.314961,
62.365201 -38.582524 0.314961, 62.360283 -38.600871 0.314961,
62.350787 -38.617323 0.314961, 62.350787 -40.570079 0.314961,
62.360283 -40.586528 0.314961, 62.365201 -40.604877 0.314961,
62.756933 -40.996609 0.314961, 62.780162 -41.019838 0.314961,
62.780162 -41.019838 0.314961, 63.337642 -41.577318 0.314961,
63.355989 -41.582233 0.314961, 63.372441 -41.591732 0.314961,
64.837863 -41.591733 0.314961, 64.838976 -41.593663 0.314961,
64.898031 -41.593663 0.314961, 64.927559 -41.54252 0.314961,
64.898031 -41.491376 0.314961, 64.848819 -41.54252 0.314961,
64.858661 -41.525472 0.314961, 64.878346 -41.525472 0.314961,
64.888189 -41.54252 0.314961, 64.878346 -41.559567 0.314961,
64.858661 -41.559567 0.314961, 69.947244 -39.27874 0.314961,
69.907874 -39.346931 0.314961, 69.829134 -39.346931 0.314961,
69.789764 -39.27874 0.314961, 69.829134 -39.210549 0.314961,
69.907874 -39.210549 0.314961, 68.598819 -39.995313 0.314961,
68.569291 -40.046457 0.314961, 68.598819 -40.0976 0.314961,
68.657874 -40.0976 0.314961, 68.65899 -40.09567 0.314961,
69.100787 -40.095669 0.314961, 69.117236 -40.08617 0.314961,
69.135586 -40.081255 0.314961, 69.745823 -39.471019 0.314961,
69.801589 -39.415253 0.314961, 69.81984 -39.428513 0.314961,
69.917168 -39.428513 0.314961, 69.995908 -39.371305 0.314961,
70.025984 -39.27874 0.314961, 69.995908 -39.186176 0.314961,
69.917168 -39.128967 0.314961, 69.81984 -39.128967 0.314961,
69.7411 -39.186176 0.314961, 69.711024 -39.27874 0.314961,
69.732578 -39.345072 0.314961, 69.676225 -39.401422 0.314961,
69.080403 -39.997244 0.314961, 68.65899 -39.997245 0.314961,
68.657874 -39.995313 0.314961, 68.608661 -40.046457 0.314961,
68.618504 -40.029409 0.314961, 68.638189 -40.029409 0.314961,
68.648031 -40.046457 0.314961, 68.638189 -40.063504 0.314961,
68.618504 -40.063504 0.314961, 74.472596 -40.907437 0.314961,
74.458511 -40.950789 0.314961, 66.13771 -40.950789 0.314961,
63.854725 -38.667805 0.314961, 63.854724 -37.920472 0.314961,
63.845225 -37.904021 0.314961, 63.84031 -37.885674 0.314961,
63.619838 -37.665201 0.314961, 63.601488 -37.660284 0.314961,
63.585039 -37.650787 0.314961, 63.201181 -37.650787 0.314961,
63.158562 -37.675394 0.314961, 63.158562 -37.724606 0.314961,
63.201181 -37.749213 0.314961, 63.564656 -37.749213 0.314961,
63.756299 -37.940857 0.314961, 63.756299 -38.688189 0.314961,
63.765795 -38.704638 0.314961, 63.770713 -38.722988 0.314961,
66.082526 -41.0348 0.314961, 66.100872 -41.039715 0.314961,
66.117324 -41.049214 0.314961, 74.45851 -41.049215 0.314961,
74.472596 -41.092566 0.314961, 74.551336 -41.149774 0.314961,
74.648664 -41.149774 0.314961, 74.727404 -41.092566 0.314961,
74.75748 -41.000002 0.314961, 74.727404 -40.907437 0.314961,
74.648664 -40.850229 0.314961, 74.551336 -40.850229 0.314961,
74.52126 -41.000002 0.314961, 74.56063 -40.931811 0.314961,
74.63937 -40.931811 0.314961, 74.67874 -41.000002 0.314961,
74.63937 -41.068193 0.314961, 74.56063 -41.068193 0.314961
              ]
            }
            coordIndex [
11, 12, 8, -1, 8, 12, 13, -1, 8, 13, 7, -1, 7, 13, 5, -1,
7, 5, 6, -1, 2, 3, 0, -1, 0, 3, 10, -1, 0, 10, 9, -1,
9, 10, 11, -1, 9, 11, 8, -1, 4, 5, 13, -1, 4, 13, 14, -1,
4, 14, 15, -1, 4, 15, 3, -1, 58, 59, 20, -1, 20, 59, 60, -1,
20, 60, 19, -1, 19, 60, 55, -1, 19, 55, 16, -1, 16, 55, 56, -1,
16, 56, 54, -1, 54, 56, 57, -1, 54, 57, 58, -1, 23, 24, 34, -1,
23, 34, 35, -1, 23, 35, 36, -1, 23, 36, 51, -1, 23, 51, 52, -1,
23, 52, 22, -1, 52, 53, 20, -1, 52, 20, 21, -1, 52, 21, 22, -1,
54, 58, 20, -1, 54, 20, 53, -1, 16, 17, 18, -1, 16, 18, 19, -1,
45, 46, 47, -1, 45, 47, 37, -1, 45, 37, 61, -1, 45, 61, 44, -1,
62, 63, 43, -1, 43, 63, 64, -1, 43, 64, 42, -1, 42, 64, 40, -1,
42, 40, 41, -1, 44, 61, 62, -1, 44, 62, 43, -1, 39, 40, 64, -1,
39, 64, 65, -1, 39, 65, 66, -1, 39, 66, 38, -1, 66, 61, 37, -1,
66, 37, 38, -1, 36, 37, 47, -1, 36, 47, 48, -1, 36, 48, 49, -1,
36, 49, 50, -1, 36, 50, 51, -1, 24, 25, 30, -1, 24, 30, 31, -1,
24, 31, 32, -1, 24, 32, 33, -1, 24, 33, 34, -1, 26, 27, 29, -1,
26, 29, 30, -1, 26, 30, 25, -1, 75, 76, 81, -1, 81, 76, 77, -1,
81, 77, 80, -1, 80, 77, 78, -1, 80, 78, 79, -1, 75, 81, 82, -1,
75, 82, 83, -1, 75, 83, 84, -1, 75, 84, 74, -1, 91, 92, 71, -1,
91, 71, 72, -1, 91, 72, 74, -1, 91, 74, 84, -1, 91, 84, 85, -1,
91, 85, 86, -1, 91, 86, 90, -1, 69, 70, 67, -1, 67, 70, 88, -1,
67, 88, 87, -1, 87, 88, 89, -1, 87, 89, 86, -1, 86, 89, 90, -1,
93, 88, 70, -1, 93, 70, 71, -1, 93, 71, 92, -1, 106, 107, 112, -1,
112, 107, 108, -1, 112, 108, 111, -1, 111, 108, 109, -1, 111, 109, 110, -1,
106, 112, 105, -1, 105, 112, 113, -1, 105, 113, 104, -1, 104, 113, 99, -1,
104, 99, 100, -1, 103, 104, 100, -1, 103, 100, 101, -1, 103, 101, 102, -1,
132, 133, 129, -1, 132, 129, 130, -1, 132, 130, 131, -1, 127, 128, 135, -1,
135, 128, 129, -1, 135, 129, 134, -1, 134, 129, 133, -1, 127, 135, 136, -1,
127, 136, 137, -1, 127, 137, 138, -1, 127, 138, 126, -1, 123, 124, 126, -1,
123, 126, 139, -1, 123, 139, 140, -1, 123, 140, 141, -1, 123, 141, 142, -1,
123, 142, 122, -1, 142, 143, 120, -1, 142, 120, 121, -1, 142, 121, 122, -1,
149, 118, 145, -1, 145, 118, 119, -1, 145, 119, 144, -1, 144, 119, 120, -1,
144, 120, 143, -1, 149, 150, 118, -1, 118, 150, 151, -1, 118, 151, 117, -1,
117, 151, 146, -1, 117, 146, 94, -1, 94, 146, 147, -1, 94, 147, 145, -1,
145, 147, 148, -1, 145, 148, 149, -1, 117, 94, 116, -1, 116, 94, 95, -1,
116, 95, 115, -1, 115, 95, 96, -1, 115, 96, 97, -1, 98, 99, 114, -1,
98, 114, 115, -1, 98, 115, 97, -1, 164, 165, 160, -1, 164, 160, 161, -1,
164, 161, 162, -1, 164, 162, 163, -1, 172, 173, 168, -1, 168, 173, 159, -1,
168, 159, 167, -1, 167, 159, 160, -1, 167, 160, 166, -1, 166, 160, 165, -1,
159, 173, 158, -1, 158, 173, 174, -1, 158, 174, 156, -1, 156, 174, 175, -1,
172, 168, 169, -1, 172, 169, 170, -1, 172, 170, 171, -1, 184, 152, 186, -1,
184, 186, 187, -1, 184, 187, 188, -1, 184, 188, 182, -1, 184, 182, 183, -1,
188, 189, 182, -1, 182, 189, 190, -1, 182, 190, 181, -1, 181, 190, 185, -1,
181, 185, 152, -1, 152, 185, 186, -1, 180, 181, 152, -1, 180, 152, 153, -1,
180, 153, 154, -1, 180, 154, 179, -1, 154, 155, 177, -1, 154, 177, 178, -1,
154, 178, 179, -1, 156, 176, 177, -1, 156, 177, 155, -1, 215, 216, 214, -1,
214, 216, 205, -1, 214, 205, 213, -1, 213, 205, 194, -1, 213, 194, 195, -1,
195, 196, 212, -1, 212, 196, 191, -1, 212, 191, 211, -1, 211, 191, 209, -1,
211, 209, 210, -1, 217, 218, 202, -1, 217, 202, 203, -1, 217, 203, 204, -1,
217, 204, 205, -1, 217, 205, 216, -1, 224, 200, 220, -1, 220, 200, 201, -1,
220, 201, 219, -1, 219, 201, 202, -1, 219, 202, 218, -1, 224, 225, 200, -1,
200, 225, 226, -1, 200, 226, 199, -1, 199, 226, 221, -1, 199, 221, 197, -1,
197, 221, 222, -1, 197, 222, 220, -1, 220, 222, 223, -1, 220, 223, 224, -1,
208, 209, 191, -1, 208, 191, 192, -1, 208, 192, 193, -1, 208, 193, 207, -1,
206, 207, 193, -1, 206, 193, 194, -1, 206, 194, 205, -1, 259, 260, 256, -1,
256, 260, 261, -1, 256, 261, 255, -1, 255, 261, 253, -1, 255, 253, 254, -1,
250, 251, 227, -1, 227, 251, 258, -1, 227, 258, 257, -1, 257, 258, 259, -1,
257, 259, 256, -1, 252, 253, 261, -1, 252, 261, 262, -1, 252, 262, 263, -1,
252, 263, 251, -1, 247, 248, 229, -1, 229, 248, 249, -1, 229, 249, 228, -1,
228, 249, 250, -1, 228, 250, 227, -1, 243, 244, 233, -1, 233, 244, 245, -1,
233, 245, 230, -1, 230, 245, 246, -1, 230, 246, 229, -1, 229, 246, 247, -1,
232, 233, 230, -1, 232, 230, 231, -1, 242, 243, 233, -1, 242, 233, 234, -1,
242, 234, 235, -1, 242, 235, 236, -1, 242, 236, 241, -1, 237, 238, 240, -1,
237, 240, 241, -1, 237, 241, 236, -1, 240, 238, 239, -1, 258, 251, 263, -1,
199, 197, 198, -1, 213, 195, 212, -1, 114, 99, 113, -1, 125, 126, 124, -1,
139, 126, 138, -1, 69, 67, 68, -1, 73, 74, 72, -1, 29, 27, 28, -1,
2, 0, 1, -1, 10, 3, 15, -1
            ]
          }
        }
      ]
    }
  ]
}
Transform {
  children [
    Group {
      children [
        Shape {
          appearance Appearance {
            material Material {
              diffuseColor 0.749 0.756 0.761
              specularColor 0.749 0.756 0.761
              emissiveColor 0 0 0
              ambientIntensity 0.8
              transparency 0
              shininess 0.8
            }
          }
          geometry IndexedFaceSet {
            solid TRUE
            coord Coordinate {
              point [
65.533858 -37.140945 0.319882, 65.532724 -37.129424 0.319882,
65.529363 -37.118345 0.319882, 65.523906 -37.108135 0.319882,
65.516561 -37.099187 0.319882, 65.507613 -37.091843 0.319882,
65.497403 -37.086385 0.319882, 65.486324 -37.083024 0.319882,
65.474803 -37.08189 0.319882, 64.825197 -37.08189 0.319882,
64.813676 -37.083024 0.319882, 64.802597 -37.086385 0.319882,
64.792387 -37.091843 0.319882, 64.783439 -37.099187 0.319882,
64.776094 -37.108135 0.319882, 64.770637 -37.118345 0.319882,
64.767276 -37.129424 0.319882, 64.766142 -37.140945 0.319882,
64.766142 -37.259055 0.319882, 64.767276 -37.270576 0.319882,
64.770637 -37.281655 0.319882, 64.776094 -37.291865 0.319882,
64.783439 -37.300813 0.319882, 64.792387 -37.308157 0.319882,
64.802597 -37.313615 0.319882, 64.813676 -37.316976 0.319882,
64.825197 -37.31811 0.319882, 65.474803 -37.31811 0.319882,
65.486324 -37.316976 0.319882, 65.497403 -37.313615 0.319882,
65.507613 -37.308157 0.319882, 65.516561 -37.300813 0.319882,
65.523906 -37.291865 0.319882, 65.529363 -37.281655 0.319882,
65.532724 -37.270576 0.319882, 65.533858 -37.259055 0.319882,
65.533858 -37.640945 0.319882, 65.532724 -37.629424 0.319882,
65.529363 -37.618345 0.319882, 65.523906 -37.608135 0.319882,
65.516561 -37.599187 0.319882, 65.507613 -37.591843 0.319882,
65.497403 -37.586385 0.319882, 65.486324 -37.583024 0.319882,
65.474803 -37.58189 0.319882, 64.825197 -37.58189 0.319882,
64.813676 -37.583024 0.319882, 64.802597 -37.586385 0.319882,
64.792387 -37.591843 0.319882, 64.783439 -37.599187 0.319882,
64.776094 -37.608135 0.319882, 64.770637 -37.618345 0.319882,
64.767276 -37.629424 0.319882, 64.766142 -37.640945 0.319882,
64.766142 -37.759055 0.319882, 64.767276 -37.770576 0.319882,
64.770637 -37.781655 0.319882, 64.776094 -37.791865 0.319882,
64.783439 -37.800813 0.319882, 64.792387 -37.808157 0.319882,
64.802597 -37.813615 0.319882, 64.813676 -37.816976 0.319882,
64.825197 -37.81811 0.319882, 65.474803 -37.81811 0.319882,
65.486324 -37.816976 0.319882, 65.497403 -37.813615 0.319882,
65.507613 -37.808157 0.319882, 65.516561 -37.800813 0.319882,
65.523906 -37.791865 0.319882, 65.529363 -37.781655 0.319882,
65.532724 -37.770576 0.319882, 65.533858 -37.759055 0.319882,
65.533858 -38.140945 0.319882, 65.532724 -38.129424 0.319882,
65.529363 -38.118345 0.319882, 65.523906 -38.108135 0.319882,
65.516561 -38.099187 0.319882, 65.507613 -38.091843 0.319882,
65.497403 -38.086385 0.319882, 65.486324 -38.083024 0.319882,
65.474803 -38.08189 0.319882, 64.825197 -38.08189 0.319882,
64.813676 -38.083024 0.319882, 64.802597 -38.086385 0.319882,
64.792387 -38.091843 0.319882, 64.783439 -38.099187 0.319882,
64.776094 -38.108135 0.319882, 64.770637 -38.118345 0.319882,
64.767276 -38.129424 0.319882, 64.766142 -38.140945 0.319882,
64.766142 -38.259055 0.319882, 64.767276 -38.270576 0.319882,
64.770637 -38.281655 0.319882, 64.776094 -38.291865 0.319882,
64.783439 -38.300813 0.319882, 64.792387 -38.308157 0.319882,
64.802597 -38.313615 0.319882, 64.813676 -38.316976 0.319882,
64.825197 -38.31811 0.319882, 65.474803 -38.31811 0.319882,
65.486324 -38.316976 0.319882, 65.497403 -38.313615 0.319882,
65.507613 -38.308157 0.319882, 65.516561 -38.300813 0.319882,
65.523906 -38.291865 0.319882, 65.529363 -38.281655 0.319882,
65.532724 -38.270576 0.319882, 65.533858 -38.259055 0.319882,
65.533858 -38.640945 0.319882, 65.532724 -38.629424 0.319882,
65.529363 -38.618345 0.319882, 65.523906 -38.608135 0.319882,
65.516561 -38.599187 0.319882, 65.507613 -38.591843 0.319882,
65.497403 -38.586385 0.319882, 65.486324 -38.583024 0.319882,
65.474803 -38.58189 0.319882, 64.825197 -38.58189 0.319882,
64.813676 -38.583024 0.319882, 64.802597 -38.586385 0.319882,
64.792387 -38.591843 0.319882, 64.783439 -38.599187 0.319882,
64.776094 -38.608135 0.319882, 64.770637 -38.618345 0.319882,
64.767276 -38.629424 0.319882, 64.766142 -38.640945 0.319882,
64.766142 -38.759055 0.319882, 64.767276 -38.770576 0.319882,
64.770637 -38.781655 0.319882, 64.776094 -38.791865 0.319882,
64.783439 -38.800813 0.319882, 64.792387 -38.808157 0.319882,
64.802597 -38.813615 0.319882, 64.813676 -38.816976 0.319882,
64.825197 -38.81811 0.319882, 65.474803 -38.81811 0.319882,
65.486324 -38.816976 0.319882, 65.497403 -38.813615 0.319882,
65.507613 -38.808157 0.319882, 65.516561 -38.800813 0.319882,
65.523906 -38.791865 0.319882, 65.529363 -38.781655 0.319882,
65.532724 -38.770576 0.319882, 65.533858 -38.759055 0.319882,
63.585039 -38.640945 0.319882, 63.583905 -38.629424 0.319882,
63.580544 -38.618345 0.319882, 63.575087 -38.608135 0.319882,
63.567743 -38.599187 0.319882, 63.558794 -38.591843 0.319882,
63.548584 -38.586385 0.319882, 63.537506 -38.583024 0.319882,
63.525984 -38.58189 0.319882, 62.876378 -38.58189 0.319882,
62.864857 -38.583024 0.319882, 62.853778 -38.586385 0.319882,
62.843569 -38.591843 0.319882, 62.83462 -38.599187 0.319882,
62.827276 -38.608135 0.319882, 62.821818 -38.618345 0.319882,
62.818457 -38.629424 0.319882, 62.817323 -38.640945 0.319882,
62.817323 -38.759055 0.319882, 62.818457 -38.770576 0.319882,
62.821818 -38.781655 0.319882, 62.827276 -38.791865 0.319882,
62.83462 -38.800813 0.319882, 62.843569 -38.808157 0.319882,
62.853778 -38.813615 0.319882, 62.864857 -38.816976 0.319882,
62.876378 -38.81811 0.319882, 63.525984 -38.81811 0.319882,
63.537506 -38.816976 0.319882, 63.548584 -38.813615 0.319882,
63.558794 -38.808157 0.319882, 63.567743 -38.800813 0.319882,
63.575087 -38.791865 0.319882, 63.580544 -38.781655 0.319882,
63.583905 -38.770576 0.319882, 63.585039 -38.759055 0.319882,
63.585039 -38.140945 0.319882, 63.583905 -38.129424 0.319882,
63.580544 -38.118345 0.319882, 63.575087 -38.108135 0.319882,
63.567743 -38.099187 0.319882, 63.558794 -38.091843 0.319882,
63.548584 -38.086385 0.319882, 63.537506 -38.083024 0.319882,
63.525984 -38.08189 0.319882, 62.876378 -38.08189 0.319882,
62.864857 -38.083024 0.319882, 62.853778 -38.086385 0.319882,
62.843569 -38.091843 0.319882, 62.83462 -38.099187 0.319882,
62.827276 -38.108135 0.319882, 62.821818 -38.118345 0.319882,
62.818457 -38.129424 0.319882, 62.817323 -38.140945 0.319882,
62.817323 -38.259055 0.319882, 62.818457 -38.270576 0.319882,
62.821818 -38.281655 0.319882, 62.827276 -38.291865 0.319882,
62.83462 -38.300813 0.319882, 62.843569 -38.308157 0.319882,
62.853778 -38.313615 0.319882, 62.864857 -38.316976 0.319882,
62.876378 -38.31811 0.319882, 63.525984 -38.31811 0.319882,
63.537506 -38.316976 0.319882, 63.548584 -38.313615 0.319882,
63.558794 -38.308157 0.319882, 63.567743 -38.300813 0.319882,
63.575087 -38.291865 0.319882, 63.580544 -38.281655 0.319882,
63.583905 -38.270576 0.319882, 63.585039 -38.259055 0.319882,
63.585039 -37.640945 0.319882, 63.583905 -37.629424 0.319882,
63.580544 -37.618345 0.319882, 63.575087 -37.608135 0.319882,
63.567743 -37.599187 0.319882, 63.558794 -37.591843 0.319882,
63.548584 -37.586385 0.319882, 63.537506 -37.583024 0.319882,
63.525984 -37.58189 0.319882, 62.876378 -37.58189 0.319882,
62.864857 -37.583024 0.319882, 62.853778 -37.586385 0.319882,
62.843569 -37.591843 0.319882, 62.83462 -37.599187 0.319882,
62.827276 -37.608135 0.319882, 62.821818 -37.618345 0.319882,
62.818457 -37.629424 0.319882, 62.817323 -37.640945 0.319882,
62.817323 -37.759055 0.319882, 62.818457 -37.770576 0.319882,
62.821818 -37.781655 0.319882, 62.827276 -37.791865 0.319882,
62.83462 -37.800813 0.319882, 62.843569 -37.808157 0.319882,
62.853778 -37.813615 0.319882, 62.864857 -37.816976 0.319882,
62.876378 -37.81811 0.319882, 63.525984 -37.81811 0.319882,
63.537506 -37.816976 0.319882, 63.548584 -37.813615 0.319882,
63.558794 -37.808157 0.319882, 63.567743 -37.800813 0.319882,
63.575087 -37.791865 0.319882, 63.580544 -37.781655 0.319882,
63.583905 -37.770576 0.319882, 63.585039 -37.759055 0.319882,
63.585039 -37.140945 0.319882, 63.583905 -37.129424 0.319882,
63.580544 -37.118345 0.319882, 63.575087 -37.108135 0.319882,
63.567743 -37.099187 0.319882, 63.558794 -37.091843 0.319882,
63.548584 -37.086385 0.319882, 63.537506 -37.083024 0.319882,
63.525984 -37.08189 0.319882, 62.876378 -37.08189 0.319882,
62.864857 -37.083024 0.319882, 62.853778 -37.086385 0.319882,
62.843569 -37.091843 0.319882, 62.83462 -37.099187 0.319882,
62.827276 -37.108135 0.319882, 62.821818 -37.118345 0.319882,
62.818457 -37.129424 0.319882, 62.817323 -37.140945 0.319882,
62.817323 -37.259055 0.319882, 62.818457 -37.270576 0.319882,
62.821818 -37.281655 0.319882, 62.827276 -37.291865 0.319882,
62.83462 -37.300813 0.319882, 62.843569 -37.308157 0.319882,
62.853778 -37.313615 0.319882, 62.864857 -37.316976 0.319882,
62.876378 -37.31811 0.319882, 63.525984 -37.31811 0.319882,
63.537506 -37.316976 0.319882, 63.548584 -37.313615 0.319882,
63.558794 -37.308157 0.319882, 63.567743 -37.300813 0.319882,
63.575087 -37.291865 0.319882, 63.580544 -37.281655 0.319882,
63.583905 -37.270576 0.319882, 63.585039 -37.259055 0.319882
              ]
            }
            coordIndex [
17, 19, 16, -1, 16, 19, 20, -1, 16, 20, 15, -1, 15, 20, 21, -1,
15, 21, 14, -1, 14, 21, 22, -1, 14, 22, 13, -1, 13, 22, 23, -1,
13, 23, 12, -1, 12, 23, 24, -1, 12, 24, 11, -1, 11, 24, 25, -1,
11, 25, 10, -1, 10, 25, 26, -1, 10, 26, 9, -1, 9, 26, 27, -1,
9, 27, 8, -1, 8, 27, 28, -1, 8, 28, 7, -1, 7, 28, 29, -1,
7, 29, 6, -1, 6, 29, 30, -1, 6, 30, 5, -1, 5, 30, 31, -1,
5, 31, 4, -1, 4, 31, 32, -1, 4, 32, 3, -1, 3, 32, 33, -1,
3, 33, 2, -1, 2, 33, 34, -1, 2, 34, 1, -1, 1, 34, 35, -1,
1, 35, 0, -1, 53, 55, 52, -1, 52, 55, 56, -1, 52, 56, 51, -1,
51, 56, 57, -1, 51, 57, 50, -1, 50, 57, 58, -1, 50, 58, 49, -1,
49, 58, 59, -1, 49, 59, 48, -1, 48, 59, 60, -1, 48, 60, 47, -1,
47, 60, 61, -1, 47, 61, 46, -1, 46, 61, 62, -1, 46, 62, 45, -1,
45, 62, 63, -1, 45, 63, 44, -1, 44, 63, 64, -1, 44, 64, 43, -1,
43, 64, 65, -1, 43, 65, 42, -1, 42, 65, 66, -1, 42, 66, 41, -1,
41, 66, 67, -1, 41, 67, 40, -1, 40, 67, 68, -1, 40, 68, 39, -1,
39, 68, 69, -1, 39, 69, 38, -1, 38, 69, 70, -1, 38, 70, 37, -1,
37, 70, 71, -1, 37, 71, 36, -1, 89, 91, 88, -1, 88, 91, 92, -1,
88, 92, 87, -1, 87, 92, 93, -1, 87, 93, 86, -1, 86, 93, 94, -1,
86, 94, 85, -1, 85, 94, 95, -1, 85, 95, 84, -1, 84, 95, 96, -1,
84, 96, 83, -1, 83, 96, 97, -1, 83, 97, 82, -1, 82, 97, 98, -1,
82, 98, 81, -1, 81, 98, 99, -1, 81, 99, 80, -1, 80, 99, 100, -1,
80, 100, 79, -1, 79, 100, 101, -1, 79, 101, 78, -1, 78, 101, 102, -1,
78, 102, 77, -1, 77, 102, 103, -1, 77, 103, 76, -1, 76, 103, 104, -1,
76, 104, 75, -1, 75, 104, 105, -1, 75, 105, 74, -1, 74, 105, 106, -1,
74, 106, 73, -1, 73, 106, 107, -1, 73, 107, 72, -1, 125, 127, 124, -1,
124, 127, 128, -1, 124, 128, 123, -1, 123, 128, 129, -1, 123, 129, 122, -1,
122, 129, 130, -1, 122, 130, 121, -1, 121, 130, 131, -1, 121, 131, 120, -1,
120, 131, 132, -1, 120, 132, 119, -1, 119, 132, 133, -1, 119, 133, 118, -1,
118, 133, 134, -1, 118, 134, 117, -1, 117, 134, 135, -1, 117, 135, 116, -1,
116, 135, 136, -1, 116, 136, 115, -1, 115, 136, 137, -1, 115, 137, 114, -1,
114, 137, 138, -1, 114, 138, 113, -1, 113, 138, 139, -1, 113, 139, 112, -1,
112, 139, 140, -1, 112, 140, 111, -1, 111, 140, 141, -1, 111, 141, 110, -1,
110, 141, 142, -1, 110, 142, 109, -1, 109, 142, 143, -1, 109, 143, 108, -1,
161, 163, 160, -1, 160, 163, 164, -1, 160, 164, 159, -1, 159, 164, 165, -1,
159, 165, 158, -1, 158, 165, 166, -1, 158, 166, 157, -1, 157, 166, 167, -1,
157, 167, 156, -1, 156, 167, 168, -1, 156, 168, 155, -1, 155, 168, 169, -1,
155, 169, 154, -1, 154, 169, 170, -1, 154, 170, 153, -1, 153, 170, 171, -1,
153, 171, 152, -1, 152, 171, 172, -1, 152, 172, 151, -1, 151, 172, 173, -1,
151, 173, 150, -1, 150, 173, 174, -1, 150, 174, 149, -1, 149, 174, 175, -1,
149, 175, 148, -1, 148, 175, 176, -1, 148, 176, 147, -1, 147, 176, 177, -1,
147, 177, 146, -1, 146, 177, 178, -1, 146, 178, 145, -1, 145, 178, 179, -1,
145, 179, 144, -1, 197, 199, 196, -1, 196, 199, 200, -1, 196, 200, 195, -1,
195, 200, 201, -1, 195, 201, 194, -1, 194, 201, 202, -1, 194, 202, 193, -1,
193, 202, 203, -1, 193, 203, 192, -1, 192, 203, 204, -1, 192, 204, 191, -1,
191, 204, 205, -1, 191, 205, 190, -1, 190, 205, 206, -1, 190, 206, 189, -1,
189, 206, 207, -1, 189, 207, 188, -1, 188, 207, 208, -1, 188, 208, 187, -1,
187, 208, 209, -1, 187, 209, 186, -1, 186, 209, 210, -1, 186, 210, 185, -1,
185, 210, 211, -1, 185, 211, 184, -1, 184, 211, 212, -1, 184, 212, 183, -1,
183, 212, 213, -1, 183, 213, 182, -1, 182, 213, 214, -1, 182, 214, 181, -1,
181, 214, 215, -1, 181, 215, 180, -1, 233, 235, 232, -1, 232, 235, 236, -1,
232, 236, 231, -1, 231, 236, 237, -1, 231, 237, 230, -1, 230, 237, 238, -1,
230, 238, 229, -1, 229, 238, 239, -1, 229, 239, 228, -1, 228, 239, 240, -1,
228, 240, 227, -1, 227, 240, 241, -1, 227, 241, 226, -1, 226, 241, 242, -1,
226, 242, 225, -1, 225, 242, 243, -1, 225, 243, 224, -1, 224, 243, 244, -1,
224, 244, 223, -1, 223, 244, 245, -1, 223, 245, 222, -1, 222, 245, 246, -1,
222, 246, 221, -1, 221, 246, 247, -1, 221, 247, 220, -1, 220, 247, 248, -1,
220, 248, 219, -1, 219, 248, 249, -1, 219, 249, 218, -1, 218, 249, 250, -1,
218, 250, 217, -1, 217, 250, 251, -1, 217, 251, 216, -1, 269, 271, 268, -1,
268, 271, 272, -1, 268, 272, 267, -1, 267, 272, 273, -1, 267, 273, 266, -1,
266, 273, 274, -1, 266, 274, 265, -1, 265, 274, 275, -1, 265, 275, 264, -1,
264, 275, 276, -1, 264, 276, 263, -1, 263, 276, 277, -1, 263, 277, 262, -1,
262, 277, 278, -1, 262, 278, 261, -1, 261, 278, 279, -1, 261, 279, 260, -1,
260, 279, 280, -1, 260, 280, 259, -1, 259, 280, 281, -1, 259, 281, 258, -1,
258, 281, 282, -1, 258, 282, 257, -1, 257, 282, 283, -1, 257, 283, 256, -1,
256, 283, 284, -1, 256, 284, 255, -1, 255, 284, 285, -1, 255, 285, 254, -1,
254, 285, 286, -1, 254, 286, 253, -1, 253, 286, 287, -1, 253, 287, 252, -1,
271, 269, 270, -1, 235, 233, 234, -1, 199, 197, 198, -1, 163, 161, 162, -1,
127, 125, 126, -1, 91, 89, 90, -1, 55, 53, 54, -1, 19, 17, 18, -1
            ]
          }
        }
      ]
    }
  ]
}
Transform {
  children [
    Group {
      children [
        Shape {
          appearance Appearance {
            material Material {
              diffuseColor 0.08 0.5 0.1
              specularColor 0.01 0.05 0.01
              emissiveColor 0 0 0
              ambientIntensity 0.8
              transparency 0
              shininess 0.02
            }
          }
          geometry IndexedFaceSet {
            solid TRUE
            coord Coordinate {
              point [
66.078585 -33.052407 -0.314961, 66.108661 -32.959843 -0.314961,
66.078585 -32.867278 -0.314961, 65.999845 -32.81007 -0.314961,
65.902517 -32.81007 -0.314961, 65.823777 -32.867278 -0.314961,
65.793701 -32.959843 -0.314961, 65.815255 -33.026174 -0.314961,
65.758903 -33.082524 -0.314961, 65.753984 -33.100871 -0.314961,
65.744489 -33.117322 -0.314961, 65.744489 -33.983465 -0.314961,
65.753984 -33.999914 -0.314961, 65.758903 -34.018264 -0.314961,
66.890779 -35.150139 -0.314961, 66.905906 -35.17634 -0.314961,
66.964961 -35.17634 -0.314961, 66.994488 -35.125197 -0.314961,
66.964961 -35.074054 -0.314961, 66.953886 -35.074053 -0.314961,
65.842913 -33.96308 -0.314961, 65.842913 -33.137707 -0.314961,
65.884266 -33.096355 -0.314961, 65.902517 -33.109615 -0.314961,
65.999845 -33.109615 -0.314961, 66.029921 -32.959843 -0.314961,
65.990551 -33.028033 -0.314961, 65.911811 -33.028033 -0.314961,
65.872441 -32.959843 -0.314961, 65.911811 -32.891652 -0.314961,
65.990551 -32.891652 -0.314961, 66.955118 -35.125197 -0.314961,
66.945276 -35.142245 -0.314961, 66.925591 -35.142245 -0.314961,
66.915748 -35.125197 -0.314961, 66.925591 -35.108149 -0.314961,
66.945276 -35.108149 -0.314961, 69.514173 -34.731496 -0.314961,
69.553543 -34.663305 -0.314961, 69.632283 -34.663305 -0.314961,
69.671654 -34.731496 -0.314961, 69.632283 -34.799687 -0.314961,
69.553543 -34.799687 -0.314961, 67.949761 -34.638931 -0.314961,
67.919685 -34.731496 -0.314961, 67.949761 -34.824061 -0.314961,
68.028501 -34.881269 -0.314961, 68.125829 -34.881269 -0.314961,
68.20457 -34.824061 -0.314961, 68.218656 -34.780709 -0.314961,
68.903937 -34.780709 -0.314961, 69.451424 -34.780709 -0.314961,
69.465509 -34.824061 -0.314961, 69.544249 -34.881269 -0.314961,
69.641577 -34.881269 -0.314961, 69.720318 -34.824061 -0.314961,
69.750394 -34.731496 -0.314961, 69.720318 -34.638931 -0.314961,
69.641577 -34.581723 -0.314961, 69.544249 -34.581723 -0.314961,
69.465509 -34.638931 -0.314961, 69.451424 -34.682284 -0.314961,
68.903937 -34.682283 -0.314961, 68.218656 -34.682284 -0.314961,
68.20457 -34.638931 -0.314961, 68.125829 -34.581723 -0.314961,
68.028501 -34.581723 -0.314961, 67.998425 -34.731496 -0.314961,
68.037795 -34.663305 -0.314961, 68.116535 -34.663305 -0.314961,
68.155906 -34.731496 -0.314961, 68.116535 -34.799687 -0.314961,
68.037795 -34.799687 -0.314961, 65.961024 -35.329959 -0.314961,
65.931496 -35.381102 -0.314961, 65.961024 -35.432246 -0.314961,
66.020079 -35.432246 -0.314961, 66.021195 -35.430316 -0.314961,
66.074068 -35.430315 -0.314961, 67.101969 -35.430315 -0.314961,
67.118418 -35.420816 -0.314961, 67.136768 -35.415901 -0.314961,
67.255665 -35.297004 -0.314961, 67.260579 -35.278655 -0.314961,
67.270079 -35.262205 -0.314961, 67.270079 -34.988189 -0.314961,
67.260579 -34.971737 -0.314961, 67.255665 -34.95339 -0.314961,
66.782437 -34.480162 -0.314961, 66.734901 -34.467425 -0.314961,
66.700103 -34.502223 -0.314961, 66.71284 -34.549759 -0.314961,
67.171653 -35.008573 -0.314961, 67.171653 -35.24182 -0.314961,
67.081586 -35.331891 -0.314961, 66.074068 -35.33189 -0.314961,
66.021195 -35.331891 -0.314961, 66.020079 -35.329959 -0.314961,
65.970866 -35.381102 -0.314961, 65.980709 -35.364055 -0.314961,
66.000394 -35.364055 -0.314961, 66.010236 -35.381102 -0.314961,
66.000394 -35.39815 -0.314961, 65.980709 -35.39815 -0.314961,
69.7411 -39.186176 -0.314961, 69.711024 -39.27874 -0.314961,
69.7411 -39.371305 -0.314961, 69.81984 -39.428513 -0.314961,
69.917168 -39.428513 -0.314961, 69.995908 -39.371305 -0.314961,
70.025984 -39.27874 -0.314961, 69.995908 -39.186176 -0.314961,
69.917168 -39.128967 -0.314961, 69.81984 -39.128967 -0.314961,
69.789764 -39.27874 -0.314961, 69.829134 -39.210549 -0.314961,
69.907874 -39.210549 -0.314961, 69.947244 -39.27874 -0.314961,
69.907874 -39.346931 -0.314961, 69.829134 -39.346931 -0.314961,
68.598819 -39.995313 -0.314961, 68.597705 -39.997245 -0.314961,
67.466929 -39.997244 -0.314961, 67.450477 -40.006741 -0.314961,
67.432131 -40.011658 -0.314961, 65.950481 -41.493307 -0.314961,
64.899147 -41.493308 -0.314961, 64.898031 -41.491376 -0.314961,
64.838976 -41.491376 -0.314961, 64.809449 -41.54252 -0.314961,
64.838976 -41.593663 -0.314961, 64.898031 -41.593663 -0.314961,
64.899147 -41.591733 -0.314961, 65.970866 -41.591732 -0.314961,
65.987315 -41.582233 -0.314961, 66.005665 -41.577318 -0.314961,
67.487313 -40.095669 -0.314961, 68.597705 -40.09567 -0.314961,
68.598819 -40.0976 -0.314961, 68.657874 -40.0976 -0.314961,
68.687402 -40.046457 -0.314961, 68.657874 -39.995313 -0.314961,
68.608661 -40.046457 -0.314961, 68.618504 -40.029409 -0.314961,
68.638189 -40.029409 -0.314961, 68.648031 -40.046457 -0.314961,
68.638189 -40.063504 -0.314961, 68.618504 -40.063504 -0.314961,
64.848819 -41.54252 -0.314961, 64.858661 -41.525472 -0.314961,
64.878346 -41.525472 -0.314961, 64.888189 -41.54252 -0.314961,
64.878346 -41.559567 -0.314961, 64.858661 -41.559567 -0.314961,
74.472596 -40.907437 -0.314961, 74.44252 -41.000002 -0.314961,
74.472596 -41.092566 -0.314961, 74.551336 -41.149774 -0.314961,
74.648664 -41.149774 -0.314961, 74.727404 -41.092566 -0.314961,
74.75748 -41.000002 -0.314961, 74.727404 -40.907437 -0.314961,
74.648664 -40.850229 -0.314961, 74.551336 -40.850229 -0.314961,
74.52126 -41.000002 -0.314961, 74.56063 -40.931811 -0.314961,
74.63937 -40.931811 -0.314961, 74.67874 -41.000002 -0.314961,
74.63937 -41.068193 -0.314961, 74.56063 -41.068193 -0.314961
              ]
            }
            coordIndex [
30, 29, 3, -1, 30, 3, 25, -1, 25, 3, 2, -1, 25, 2, 0, -1,
0, 2, 1, -1, 21, 20, 5, -1, 21, 5, 28, -1, 28, 5, 4, -1,
28, 4, 29, -1, 29, 4, 3, -1, 0, 24, 25, -1, 25, 24, 26, -1,
26, 24, 27, -1, 27, 24, 23, -1, 23, 22, 27, -1, 27, 22, 28, -1,
28, 22, 21, -1, 17, 16, 18, -1, 18, 16, 31, -1, 31, 16, 32, -1,
32, 16, 33, -1, 33, 16, 15, -1, 20, 19, 35, -1, 35, 19, 36, -1,
36, 19, 31, -1, 31, 19, 18, -1, 15, 14, 34, -1, 34, 14, 35, -1,
35, 14, 20, -1, 20, 14, 13, -1, 7, 5, 20, -1, 7, 20, 8, -1,
8, 20, 13, -1, 8, 13, 9, -1, 9, 13, 12, -1, 9, 12, 10, -1,
10, 12, 11, -1, 39, 38, 58, -1, 39, 58, 40, -1, 40, 58, 57, -1,
40, 57, 55, -1, 55, 57, 56, -1, 53, 52, 60, -1, 53, 60, 37, -1,
37, 60, 59, -1, 37, 59, 38, -1, 38, 59, 58, -1, 55, 54, 40, -1,
40, 54, 41, -1, 41, 54, 42, -1, 42, 54, 53, -1, 47, 71, 70, -1,
47, 70, 48, -1, 48, 70, 64, -1, 48, 64, 49, -1, 49, 64, 63, -1,
49, 63, 50, -1, 50, 63, 62, -1, 50, 62, 51, -1, 51, 62, 61, -1,
51, 61, 52, -1, 52, 61, 60, -1, 66, 65, 68, -1, 68, 65, 69, -1,
69, 65, 70, -1, 70, 65, 64, -1, 68, 67, 66, -1, 66, 67, 43, -1,
43, 67, 46, -1, 46, 67, 72, -1, 46, 72, 47, -1, 47, 72, 71, -1,
44, 43, 45, -1, 45, 43, 46, -1, 82, 92, 87, -1, 82, 87, 83, -1,
83, 87, 86, -1, 83, 86, 84, -1, 84, 86, 85, -1, 91, 90, 89, -1,
91, 89, 92, -1, 92, 89, 88, -1, 92, 88, 87, -1, 94, 93, 79, -1,
79, 93, 80, -1, 80, 93, 81, -1, 81, 93, 82, -1, 82, 93, 92, -1,
76, 101, 97, -1, 76, 97, 77, -1, 77, 97, 96, -1, 77, 96, 78, -1,
78, 96, 95, -1, 78, 95, 79, -1, 79, 95, 94, -1, 102, 101, 76, -1,
102, 76, 103, -1, 103, 76, 75, -1, 103, 75, 98, -1, 98, 75, 73, -1,
98, 73, 99, -1, 99, 73, 97, -1, 99, 97, 100, -1, 100, 97, 101, -1,
116, 115, 112, -1, 116, 112, 117, -1, 117, 112, 111, -1, 117, 111, 109, -1,
109, 111, 110, -1, 107, 106, 104, -1, 107, 104, 114, -1, 114, 104, 113, -1,
114, 113, 115, -1, 115, 113, 112, -1, 109, 108, 117, -1, 117, 108, 118, -1,
118, 108, 119, -1, 119, 108, 107, -1, 120, 141, 143, -1, 143, 141, 144, -1,
144, 141, 145, -1, 145, 141, 139, -1, 139, 141, 140, -1, 146, 145, 139, -1,
146, 139, 147, -1, 147, 139, 138, -1, 147, 138, 142, -1, 142, 138, 120, -1,
142, 120, 143, -1, 122, 121, 136, -1, 136, 121, 137, -1, 137, 121, 138, -1,
138, 121, 120, -1, 135, 134, 124, -1, 135, 124, 136, -1, 136, 124, 123, -1,
136, 123, 122, -1, 134, 133, 124, -1, 124, 133, 125, -1, 125, 133, 126, -1,
126, 133, 132, -1, 128, 127, 149, -1, 149, 127, 150, -1, 150, 127, 151, -1,
151, 127, 131, -1, 131, 127, 132, -1, 132, 127, 126, -1, 152, 151, 131, -1,
152, 131, 153, -1, 153, 131, 130, -1, 153, 130, 148, -1, 148, 130, 128, -1,
148, 128, 149, -1, 166, 165, 162, -1, 166, 162, 167, -1, 167, 162, 161, -1,
167, 161, 159, -1, 159, 161, 160, -1, 157, 156, 154, -1, 157, 154, 164, -1,
164, 154, 163, -1, 164, 163, 165, -1, 165, 163, 162, -1, 159, 158, 167, -1,
167, 158, 168, -1, 168, 158, 169, -1, 169, 158, 157, -1, 154, 156, 155, -1,
157, 164, 169, -1, 128, 130, 129, -1, 104, 106, 105, -1, 107, 114, 119, -1,
73, 75, 74, -1, 53, 37, 42, -1, 6, 5, 7, -1, 33, 15, 34, -1
            ]
          }
        }
      ]
    }
  ]
}
Transform {
  children [
    Group {
      children [
        Shape {
          appearance Appearance {
            material Material {
              diffuseColor 0.749 0.756 0.761
              specularColor 0.749 0.756 0.761
              emissiveColor 0 0 0
              ambientIntensity 0.8
              transparency 0
              shininess 0.8
            }
          }
          geometry IndexedFaceSet {
            solid TRUE
            coord Coordinate {
              point [

              ]
            }
            coordIndex [

            ]
          }
        }
      ]
    }
  ]
}
Transform {
  children [
    Group {
      children [
        Shape {
          appearance Appearance {
            material Material {
              diffuseColor 0.749 0.756 0.761
              specularColor 0.749 0.756 0.761
              emissiveColor 0 0 0
              ambientIntensity 0.8
              transparency 0
              shininess 0.8
            }
          }
          geometry IndexedFaceSet {
            solid TRUE
            coord Coordinate {
              point [

              ]
            }
            coordIndex [

            ]
          }
        }
      ]
    }
  ]
}
Transform {
  children [
    Group {
      children [
        Shape {
          appearance Appearance {
            material Material {
              diffuseColor 0.9 0.9 0.9
              specularColor 0.1 0.1 0.1
              emissiveColor 0 0 0
              ambientIntensity 0.9
              transparency 0
              shininess 0.02
            }
          }
          geometry IndexedFaceSet {
            solid TRUE
            coord Coordinate {
              point [
63.860864 -36.370247 0.334646, 63.8461 -36.395819 0.334646,
63.8461 -36.714529 0.334646, 63.849642 -36.720664 0.334646,
63.849218 -36.727734 0.334646, 63.867965 -36.76523 0.334646,
63.872186 -36.768016 0.334646, 63.873496 -36.772904 0.334646,
63.892244 -36.791651 0.334646, 63.89713 -36.79296 0.334646,
63.899918 -36.797182 0.334646, 63.937413 -36.81593 0.334646,
63.944484 -36.815506 0.334646, 63.950619 -36.819047 0.334646,
64.025609 -36.819047 0.334646, 64.031743 -36.815506 0.334646,
64.038814 -36.81593 0.334646, 64.076309 -36.797182 0.334646,
64.079096 -36.79296 0.334646, 64.083983 -36.791651 0.334646,
64.102731 -36.772904 0.334646, 64.10404 -36.768017 0.334646,
64.108262 -36.76523 0.334646, 64.12701 -36.727734 0.334646,
64.126585 -36.720664 0.334646, 64.130127 -36.714529 0.334646,
64.130127 -36.395819 0.334646, 64.115363 -36.370247 0.334646,
64.085836 -36.370247 0.334646, 64.071072 -36.395819 0.334646,
64.071073 -36.707559 0.334646, 64.057585 -36.734533 0.334646,
64.045613 -36.746505 0.334646, 64.018638 -36.759992 0.334646,
63.95759 -36.759993 0.334646, 63.930614 -36.746505 0.334646,
63.918643 -36.734534 0.334646, 63.905156 -36.707559 0.334646,
63.905156 -36.395819 0.334646, 63.890392 -36.370247 0.334646,
64.357246 -36.37944 0.334646, 64.321371 -36.43325 0.334646,
64.289333 -36.46529 0.334646, 64.256124 -36.481895 0.334646,
64.239854 -36.506536 0.334646, 64.253059 -36.532946 0.334646,
64.282534 -36.534715 0.334646, 64.320029 -36.515968 0.334646,
64.322816 -36.511745 0.334646, 64.327703 -36.510437 0.334646,
64.352286 -36.485852 0.334646, 64.352287 -36.759992 0.334646,
64.269329 -36.759992 0.334646, 64.243757 -36.774756 0.334646,
64.243757 -36.804283 0.334646, 64.269329 -36.819047 0.334646,
64.4943 -36.819047 0.334646, 64.519872 -36.804283 0.334646,
64.519872 -36.774756 0.334646, 64.4943 -36.759992 0.334646,
64.411342 -36.759992 0.334646, 64.411342 -36.395819 0.334646,
64.407833 -36.389739 0.334646, 64.408283 -36.382731 0.334646,
64.400973 -36.377858 0.334646, 64.396578 -36.370247 0.334646,
64.389558 -36.370248 0.334646, 64.383715 -36.366353 0.334646,
64.375839 -36.370248 0.334646, 64.367051 -36.370247 0.334646,
64.363542 -36.376329 0.334646, 64.943307 -38.982874 0.334646,
64.964958 -38.970374 0.334646, 64.964958 -38.945374 0.334646,
64.943307 -38.932874 0.334646, 64.175591 -38.932874 0.334646,
64.175591 -38.932874 0.334646, 64.175591 -38.932874 0.334646,
63.407874 -38.932874 0.334646, 63.386223 -38.945374 0.334646,
63.386223 -38.970374 0.334646, 63.407874 -38.982874 0.334646,
64.175591 -38.982874 0.334646, 64.175591 -38.982874 0.334646,
64.943307 -36.967126 0.334646, 64.964958 -36.954626 0.334646,
64.964958 -36.929626 0.334646, 64.943307 -36.917126 0.334646,
64.175591 -36.917126 0.334646, 64.175591 -36.917126 0.334646,
64.175591 -36.917126 0.334646, 62.817323 -36.917126 0.334646,
62.795672 -36.929626 0.334646, 62.795672 -36.954626 0.334646,
62.817323 -36.967126 0.334646, 64.175591 -36.967126 0.334646,
64.175591 -36.967126 0.334646
              ]
            }
            coordIndex [
24, 25, 26, -1, 24, 26, 27, -1, 24, 27, 22, -1, 24, 22, 23, -1,
18, 19, 28, -1, 28, 19, 20, -1, 28, 20, 27, -1, 27, 20, 21, -1,
27, 21, 22, -1, 17, 18, 28, -1, 17, 28, 30, -1, 17, 30, 31, -1,
17, 31, 32, -1, 17, 32, 16, -1, 1, 3, 0, -1, 0, 3, 5, -1,
0, 5, 39, -1, 39, 5, 6, -1, 39, 6, 7, -1, 32, 33, 14, -1,
32, 14, 15, -1, 32, 15, 16, -1, 34, 35, 11, -1, 34, 11, 12, -1,
34, 12, 13, -1, 34, 13, 14, -1, 34, 14, 33, -1, 8, 9, 38, -1,
38, 9, 10, -1, 38, 10, 37, -1, 37, 10, 11, -1, 37, 11, 36, -1,
36, 11, 35, -1, 39, 7, 8, -1, 39, 8, 38, -1, 64, 65, 60, -1,
64, 60, 62, -1, 64, 62, 63, -1, 49, 50, 40, -1, 40, 50, 51, -1,
40, 51, 60, -1, 60, 51, 56, -1, 60, 56, 59, -1, 59, 56, 57, -1,
59, 57, 58, -1, 60, 65, 66, -1, 60, 66, 67, -1, 60, 67, 68, -1,
60, 68, 69, -1, 60, 69, 70, -1, 60, 70, 40, -1, 52, 53, 55, -1,
52, 55, 56, -1, 52, 56, 51, -1, 44, 45, 43, -1, 43, 45, 46, -1,
43, 46, 42, -1, 42, 46, 47, -1, 42, 47, 41, -1, 41, 47, 48, -1,
41, 48, 40, -1, 40, 48, 49, -1, 79, 81, 78, -1, 78, 81, 82, -1,
78, 82, 77, -1, 76, 83, 71, -1, 76, 71, 74, -1, 74, 71, 72, -1,
74, 72, 73, -1, 92, 94, 91, -1, 91, 94, 95, -1, 91, 95, 90, -1,
89, 96, 84, -1, 89, 84, 87, -1, 87, 84, 85, -1, 87, 85, 86, -1,
94, 92, 93, -1, 81, 79, 80, -1, 55, 53, 54, -1, 61, 62, 60, -1,
5, 3, 4, -1, 3, 1, 2, -1, 30, 28, 29, -1
            ]
          }
        }
      ]
    }
  ]
}
Transform {
  children [
    Group {
      children [
        Shape {
          appearance Appearance {
            material Material {
              diffuseColor 0.9 0.9 0.9
              specularColor 0.1 0.1 0.1
              emissiveColor 0 0 0
              ambientIntensity 0.9
              transparency 0
              shininess 0.02
            }
          }
          geometry IndexedFaceSet {
            solid TRUE
            coord Coordinate {
              point [
72.178222 -39.4144 -0.334646, 72.171917 -39.409987 -0.334646,
72.168068 -39.403321 -0.334646, 72.162392 -39.403322 -0.334646,
72.157739 -39.400066 -0.334646, 72.150766 -39.403322 -0.334646,
72.143068 -39.403321 -0.334646, 72.14023 -39.408238 -0.334646,
72.135085 -39.410638 -0.334646, 72.134416 -39.418306 -0.334646,
72.130568 -39.424972 -0.334646, 72.130568 -39.661192 -0.334646,
72.143068 -39.682843 -0.334646, 72.168068 -39.682843 -0.334646,
72.180568 -39.661192 -0.334646, 72.180567 -39.53766 -0.334646,
72.211653 -39.604273 -0.334646, 72.213616 -39.605647 -0.334646,
72.213825 -39.608034 -0.334646, 72.223441 -39.612522 -0.334646,
72.232136 -39.618606 -0.334646, 72.234308 -39.617593 -0.334646,
72.236479 -39.618606 -0.334646, 72.245174 -39.612522 -0.334646,
72.254791 -39.608034 -0.334646, 72.254999 -39.605647 -0.334646,
72.256962 -39.604273 -0.334646, 72.288047 -39.53766 -0.334646,
72.288048 -39.661192 -0.334646, 72.300548 -39.682843 -0.334646,
72.325548 -39.682843 -0.334646, 72.338048 -39.661192 -0.334646,
72.338048 -39.424972 -0.334646, 72.334201 -39.418307 -0.334646,
72.333531 -39.410638 -0.334646, 72.328388 -39.408238 -0.334646,
72.325548 -39.403321 -0.334646, 72.317852 -39.403322 -0.334646,
72.310876 -39.400066 -0.334646, 72.306226 -39.403322 -0.334646,
72.300548 -39.403321 -0.334646, 72.2967 -39.409987 -0.334646,
72.290393 -39.4144 -0.334646, 72.234308 -39.534583 -0.334646,
72.073741 -39.425013 -0.334646, 72.072008 -39.418543 -0.334646,
72.06076 -39.407294 -0.334646, 72.057349 -39.40638 -0.334646,
72.055582 -39.403321 -0.334646, 72.052049 -39.403321 -0.334646,
72.049552 -39.400823 -0.334646, 72.043083 -39.402558 -0.334646,
72.036611 -39.400824 -0.334646, 72.034114 -39.403321 -0.334646,
72.030582 -39.403321 -0.334646, 72.028814 -39.406379 -0.334646,
72.025404 -39.407294 -0.334646, 72.014155 -39.418543 -0.334646,
72.012423 -39.425014 -0.334646, 72.007685 -39.42975 -0.334646,
72.009417 -39.436219 -0.334646, 72.007685 -39.442691 -0.334646,
72.012423 -39.447428 -0.334646, 72.014156 -39.453898 -0.334646,
72.025404 -39.465147 -0.334646, 72.028815 -39.46606 -0.334646,
72.030582 -39.46912 -0.334646, 72.034114 -39.46912 -0.334646,
72.036611 -39.471617 -0.334646, 72.043081 -39.469883 -0.334646,
72.049552 -39.471617 -0.334646, 72.052049 -39.469119 -0.334646,
72.055582 -39.46912 -0.334646, 72.057348 -39.466061 -0.334646,
72.060759 -39.465147 -0.334646, 72.072008 -39.453898 -0.334646,
72.07374 -39.447427 -0.334646, 72.078479 -39.442691 -0.334646,
72.076747 -39.436221 -0.334646, 72.078479 -39.42975 -0.334646,
72.068082 -39.503712 -0.334646, 72.055582 -39.482061 -0.334646,
72.030582 -39.482061 -0.334646, 72.018082 -39.503712 -0.334646,
72.018082 -39.661192 -0.334646, 72.030582 -39.682843 -0.334646,
72.055582 -39.682843 -0.334646, 72.068082 -39.661192 -0.334646,
71.604251 -39.515029 -0.334646, 71.600675 -39.512668 -0.334646,
71.599567 -39.508531 -0.334646, 71.588318 -39.497283 -0.334646,
71.584182 -39.496175 -0.334646, 71.581821 -39.4926 -0.334646,
71.559324 -39.481351 -0.334646, 71.553339 -39.481711 -0.334646,
71.548144 -39.478712 -0.334646, 71.514398 -39.478712 -0.334646,
71.509205 -39.481711 -0.334646, 71.503218 -39.481351 -0.334646,
71.48072 -39.4926 -0.334646, 71.478362 -39.496175 -0.334646,
71.474223 -39.497283 -0.334646, 71.462975 -39.508531 -0.334646,
71.461867 -39.512669 -0.334646, 71.458292 -39.515029 -0.334646,
71.447043 -39.537526 -0.334646, 71.447403 -39.543513 -0.334646,
71.444404 -39.548706 -0.334646, 71.444404 -39.616198 -0.334646,
71.447403 -39.621392 -0.334646, 71.447043 -39.627378 -0.334646,
71.458292 -39.649875 -0.334646, 71.461867 -39.652236 -0.334646,
71.462974 -39.656372 -0.334646, 71.474223 -39.667621 -0.334646,
71.47836 -39.668729 -0.334646, 71.480721 -39.672304 -0.334646,
71.503218 -39.683553 -0.334646, 71.509206 -39.683195 -0.334646,
71.514398 -39.686192 -0.334646, 71.548144 -39.686192 -0.334646,
71.55334 -39.683195 -0.334646, 71.559324 -39.683553 -0.334646,
71.581821 -39.672304 -0.334646, 71.58418 -39.668729 -0.334646,
71.588319 -39.667621 -0.334646, 71.599567 -39.656373 -0.334646,
71.600677 -39.652235 -0.334646, 71.604251 -39.649875 -0.334646,
71.615499 -39.627378 -0.334646, 71.615142 -39.621393 -0.334646,
71.618138 -39.616198 -0.334646, 71.618138 -39.548706 -0.334646,
71.615142 -39.543514 -0.334646, 71.615499 -39.537526 -0.334646,
71.930528 -39.672304 -0.334646, 71.932888 -39.66873 -0.334646,
71.937025 -39.667621 -0.334646, 71.948274 -39.656373 -0.334646,
71.949383 -39.652235 -0.334646, 71.952957 -39.649875 -0.334646,
71.964205 -39.627378 -0.334646, 71.963848 -39.621393 -0.334646,
71.966844 -39.616198 -0.334646, 71.966844 -39.548706 -0.334646,
71.963848 -39.543514 -0.334646, 71.964205 -39.537526 -0.334646,
71.952957 -39.515029 -0.334646, 71.949382 -39.512668 -0.334646,
71.948273 -39.508531 -0.334646, 71.937025 -39.497283 -0.334646,
71.932888 -39.496174 -0.334646, 71.930528 -39.4926 -0.334646,
71.908031 -39.481351 -0.334646, 71.902043 -39.48171 -0.334646,
71.89685 -39.478712 -0.334646, 71.851856 -39.478712 -0.334646,
71.846663 -39.481711 -0.334646, 71.840675 -39.481351 -0.334646,
71.818178 -39.4926 -0.334646, 71.804404 -39.513463 -0.334646,
71.815584 -39.535824 -0.334646, 71.840539 -39.537321 -0.334646,
71.857757 -39.528711 -0.334646, 71.890949 -39.528712 -0.334646,
71.904538 -39.535507 -0.334646, 71.91005 -39.541018 -0.334646,
71.916845 -39.554608 -0.334646, 71.916844 -39.610295 -0.334646,
71.910048 -39.623885 -0.334646, 71.904538 -39.629397 -0.334646,
71.890948 -39.636192 -0.334646, 71.857758 -39.636192 -0.334646,
71.840539 -39.627583 -0.334646, 71.815584 -39.629081 -0.334646,
71.804404 -39.651442 -0.334646, 71.818178 -39.672304 -0.334646,
71.840676 -39.683553 -0.334646, 71.846664 -39.683195 -0.334646,
71.851856 -39.686192 -0.334646, 71.89685 -39.686192 -0.334646,
71.902044 -39.683193 -0.334646, 71.908031 -39.683553 -0.334646,
71.753121 -39.503712 -0.334646, 71.740621 -39.482061 -0.334646,
71.715621 -39.482061 -0.334646, 71.711166 -39.489781 -0.334646,
71.694307 -39.481351 -0.334646, 71.688322 -39.481711 -0.334646,
71.683127 -39.478712 -0.334646, 71.66063 -39.478712 -0.334646,
71.638979 -39.491212 -0.334646, 71.638979 -39.516212 -0.334646,
71.66063 -39.528712 -0.334646, 71.677224 -39.528711 -0.334646,
71.690816 -39.535508 -0.334646, 71.696326 -39.541018 -0.334646,
71.703121 -39.554608 -0.334646, 71.703121 -39.661192 -0.334646,
71.715621 -39.682843 -0.334646, 71.740621 -39.682843 -0.334646,
71.753121 -39.661192 -0.334646, 71.494401 -39.554607 -0.334646,
71.501197 -39.541017 -0.334646, 71.506709 -39.535507 -0.334646,
71.5203 -39.528712 -0.334646, 71.54224 -39.528711 -0.334646,
71.555833 -39.535508 -0.334646, 71.561343 -39.541018 -0.334646,
71.568139 -39.554608 -0.334646, 71.568137 -39.610296 -0.334646,
71.561344 -39.623886 -0.334646, 71.555833 -39.629398 -0.334646,
71.542242 -39.636192 -0.334646, 71.5203 -39.636192 -0.334646,
71.50671 -39.629397 -0.334646, 71.5012 -39.623887 -0.334646,
71.494402 -39.610295 -0.334646, 71.414207 -39.51212 -0.334646,
71.409717 -39.487527 -0.334646, 71.386174 -39.479118 -0.334646,
71.36712 -39.495303 -0.334646, 71.33442 -39.586862 -0.334646,
71.301721 -39.495303 -0.334646, 71.282667 -39.479118 -0.334646,
71.259124 -39.487527 -0.334646, 71.254634 -39.51212 -0.334646,
71.310877 -39.669601 -0.334646, 71.314509 -39.672687 -0.334646,
71.315367 -39.677377 -0.334646, 71.323416 -39.680252 -0.334646,
71.329931 -39.685786 -0.334646, 71.33442 -39.684182 -0.334646,
71.33891 -39.685786 -0.334646, 71.345425 -39.680252 -0.334646,
71.353474 -39.677377 -0.334646, 71.35433 -39.672687 -0.334646,
71.357964 -39.669601 -0.334646, 71.21885 -39.425014 -0.334646,
71.217115 -39.418543 -0.334646, 71.205867 -39.407294 -0.334646,
71.202454 -39.406379 -0.334646, 71.200689 -39.403321 -0.334646,
71.197157 -39.403321 -0.334646, 71.194659 -39.400824 -0.334646,
71.188189 -39.402557 -0.334646, 71.181719 -39.400823 -0.334646,
71.17922 -39.40332 -0.334646, 71.175689 -39.403321 -0.334646,
71.173923 -39.40638 -0.334646, 71.170511 -39.407294 -0.334646,
71.159262 -39.418543 -0.334646, 71.157529 -39.425013 -0.334646,
71.152792 -39.42975 -0.334646, 71.154526 -39.436221 -0.334646,
71.152792 -39.442691 -0.334646, 71.157529 -39.447428 -0.334646,
71.159263 -39.453898 -0.334646, 71.170512 -39.465147 -0.334646,
71.173924 -39.466061 -0.334646, 71.175689 -39.46912 -0.334646,
71.179221 -39.469119 -0.334646, 71.181719 -39.471617 -0.334646,
71.188189 -39.469883 -0.334646, 71.19466 -39.471617 -0.334646,
71.197158 -39.46912 -0.334646, 71.200689 -39.46912 -0.334646,
71.202455 -39.466061 -0.334646, 71.205867 -39.465147 -0.334646,
71.217115 -39.453898 -0.334646, 71.218849 -39.447428 -0.334646,
71.223585 -39.442691 -0.334646, 71.221854 -39.436222 -0.334646,
71.223586 -39.42975 -0.334646, 71.213189 -39.503712 -0.334646,
71.200689 -39.482061 -0.334646, 71.175689 -39.482061 -0.334646,
71.163189 -39.503712 -0.334646, 71.163189 -39.661192 -0.334646,
71.175689 -39.682843 -0.334646, 71.200689 -39.682843 -0.334646,
71.213189 -39.661192 -0.334646, 71.064386 -39.683553 -0.334646,
71.086883 -39.672304 -0.334646, 71.091329 -39.66557 -0.334646,
71.098063 -39.661124 -0.334646, 71.109312 -39.638627 -0.334646,
71.108952 -39.63264 -0.334646, 71.111952 -39.627446 -0.334646,
71.111952 -39.604949 -0.334646, 71.108952 -39.599755 -0.334646,
71.109312 -39.593769 -0.334646, 71.098063 -39.571271 -0.334646,
71.091329 -39.566825 -0.334646, 71.086883 -39.560091 -0.334646,
71.064386 -39.548843 -0.334646, 71.058401 -39.549203 -0.334646,
71.053206 -39.546204 -0.334646, 71.002863 -39.546203 -0.334646,
70.999463 -39.544503 -0.334646, 70.999466 -39.54336 -0.334646,
71.004349 -39.533595 -0.334646, 71.014115 -39.528713 -0.334646,
71.047302 -39.528711 -0.334646, 71.064522 -39.537321 -0.334646,
71.089477 -39.535824 -0.334646, 71.100658 -39.513463 -0.334646,
71.086883 -39.4926 -0.334646, 71.064386 -39.481351 -0.334646,
71.0584 -39.481711 -0.334646, 71.053206 -39.478712 -0.334646,
71.008211 -39.478712 -0.334646, 71.003019 -39.481711 -0.334646,
70.997031 -39.481351 -0.334646, 70.974534 -39.4926 -0.334646,
70.970088 -39.499334 -0.334646, 70.963354 -39.50378 -0.334646,
70.952105 -39.526277 -0.334646, 70.952463 -39.532263 -0.334646,
70.949465 -39.537457 -0.334646, 70.949465 -39.661192 -0.334646,
70.961965 -39.682843 -0.334646, 70.984362 -39.682843 -0.334646,
70.985782 -39.683553 -0.334646, 70.99177 -39.683194 -0.334646,
70.996963 -39.686192 -0.334646, 71.053206 -39.686192 -0.334646,
71.058401 -39.683195 -0.334646, 71.061953 -39.610852 -0.334646,
71.061953 -39.621545 -0.334646, 71.057069 -39.63131 -0.334646,
71.047304 -39.636192 -0.334646, 71.002863 -39.636192 -0.334646,
70.999466 -39.634493 -0.334646, 70.999466 -39.596204 -0.334646,
71.047304 -39.596204 -0.334646, 71.057069 -39.601086 -0.334646,
70.850662 -39.604813 -0.334646, 70.87316 -39.593564 -0.334646,
70.877606 -39.58683 -0.334646, 70.88434 -39.582384 -0.334646,
70.895589 -39.559887 -0.334646, 70.895231 -39.553901 -0.334646,
70.898228 -39.548706 -0.334646, 70.898228 -39.537457 -0.334646,
70.895232 -39.532265 -0.334646, 70.895589 -39.526277 -0.334646,
70.88434 -39.50378 -0.334646, 70.877606 -39.499334 -0.334646,
70.87316 -39.4926 -0.334646, 70.850663 -39.481351 -0.334646,
70.844677 -39.481711 -0.334646, 70.839482 -39.478712 -0.334646,
70.805737 -39.478712 -0.334646, 70.800544 -39.481711 -0.334646,
70.794556 -39.481351 -0.334646, 70.772059 -39.4926 -0.334646,
70.758284 -39.513463 -0.334646, 70.769465 -39.535824 -0.334646,
70.79442 -39.537321 -0.334646, 70.811638 -39.528712 -0.334646,
70.833579 -39.528711 -0.334646, 70.843344 -39.533594 -0.334646,
70.848089 -39.543082 -0.334646, 70.843346 -39.55257 -0.334646,
70.833581 -39.557452 -0.334646, 70.805737 -39.557452 -0.334646,
70.800542 -39.56045 -0.334646, 70.794556 -39.560091 -0.334646,
70.772059 -39.57134 -0.334646, 70.767613 -39.578074 -0.334646,
70.760879 -39.58252 -0.334646, 70.74963 -39.605017 -0.334646,
70.74999 -39.611004 -0.334646, 70.746991 -39.616198 -0.334646,
70.746991 -39.627446 -0.334646, 70.749992 -39.632641 -0.334646,
70.74963 -39.638627 -0.334646, 70.760879 -39.661124 -0.334646,
70.767613 -39.66557 -0.334646, 70.772059 -39.672304 -0.334646,
70.794556 -39.683553 -0.334646, 70.800544 -39.683194 -0.334646,
70.805737 -39.686192 -0.334646, 70.850731 -39.686192 -0.334646,
70.855927 -39.683195 -0.334646, 70.861911 -39.683553 -0.334646,
70.884409 -39.672304 -0.334646, 70.898183 -39.651442 -0.334646,
70.887003 -39.629081 -0.334646, 70.862048 -39.627583 -0.334646,
70.844829 -39.636192 -0.334646, 70.811638 -39.636192 -0.334646,
70.801873 -39.63131 -0.334646, 70.797129 -39.621822 -0.334646,
70.801873 -39.612334 -0.334646, 70.81164 -39.607453 -0.334646,
70.839482 -39.607452 -0.334646, 70.844678 -39.604455 -0.334646
              ]
            }
            coordIndex [
32, 31, 33, -1, 33, 31, 34, -1, 34, 31, 35, -1, 35, 31, 36, -1,
36, 31, 30, -1, 36, 30, 37, -1, 37, 30, 38, -1, 38, 30, 39, -1,
39, 30, 40, -1, 40, 30, 29, -1, 28, 27, 42, -1, 28, 42, 29, -1,
29, 42, 41, -1, 29, 41, 40, -1, 43, 42, 22, -1, 22, 42, 23, -1,
23, 42, 25, -1, 25, 42, 26, -1, 26, 42, 27, -1, 0, 43, 15, -1,
15, 43, 16, -1, 16, 43, 17, -1, 17, 43, 18, -1, 18, 43, 19, -1,
19, 43, 20, -1, 20, 43, 21, -1, 21, 43, 22, -1, 15, 14, 0, -1,
0, 14, 1, -1, 1, 14, 2, -1, 2, 14, 13, -1, 2, 13, 3, -1,
3, 13, 4, -1, 4, 13, 5, -1, 5, 13, 6, -1, 6, 13, 12, -1,
6, 12, 7, -1, 7, 12, 8, -1, 8, 12, 9, -1, 9, 12, 10, -1,
10, 12, 11, -1, 45, 44, 76, -1, 76, 44, 77, -1, 77, 44, 78, -1,
78, 44, 79, -1, 71, 70, 49, -1, 71, 49, 72, -1, 72, 49, 48, -1,
72, 48, 73, -1, 73, 48, 47, -1, 73, 47, 74, -1, 74, 47, 46, -1,
74, 46, 75, -1, 75, 46, 45, -1, 75, 45, 76, -1, 66, 65, 54, -1,
66, 54, 67, -1, 67, 54, 53, -1, 67, 53, 68, -1, 68, 53, 52, -1,
68, 52, 69, -1, 69, 52, 51, -1, 69, 51, 70, -1, 70, 51, 50, -1,
70, 50, 49, -1, 60, 59, 58, -1, 60, 58, 62, -1, 62, 58, 57, -1,
62, 57, 63, -1, 63, 57, 56, -1, 63, 56, 64, -1, 64, 56, 55, -1,
64, 55, 65, -1, 65, 55, 54, -1, 85, 83, 82, -1, 85, 82, 86, -1,
86, 82, 81, -1, 86, 81, 87, -1, 87, 81, 80, -1, 89, 88, 128, -1,
128, 88, 129, -1, 129, 88, 130, -1, 130, 88, 131, -1, 131, 88, 134, -1,
134, 88, 135, -1, 131, 134, 132, -1, 132, 134, 133, -1, 149, 148, 140, -1,
140, 148, 141, -1, 141, 148, 142, -1, 142, 148, 143, -1, 143, 148, 146, -1,
146, 148, 147, -1, 143, 146, 144, -1, 144, 146, 145, -1, 149, 140, 139, -1,
149, 139, 150, -1, 150, 139, 138, -1, 150, 138, 151, -1, 151, 138, 152, -1,
152, 138, 137, -1, 152, 137, 153, -1, 153, 137, 136, -1, 153, 136, 168, -1,
168, 136, 169, -1, 153, 168, 167, -1, 153, 167, 154, -1, 154, 167, 166, -1,
154, 166, 155, -1, 155, 166, 156, -1, 157, 156, 164, -1, 164, 156, 165, -1,
165, 156, 166, -1, 162, 161, 160, -1, 162, 160, 163, -1, 163, 160, 159, -1,
163, 159, 164, -1, 164, 159, 158, -1, 164, 158, 157, -1, 182, 181, 171, -1,
182, 171, 183, -1, 183, 171, 170, -1, 183, 170, 136, -1, 136, 170, 169, -1,
180, 179, 173, -1, 180, 173, 181, -1, 181, 173, 172, -1, 181, 172, 171, -1,
173, 179, 178, -1, 173, 178, 174, -1, 174, 178, 177, -1, 174, 177, 175, -1,
175, 177, 176, -1, 199, 198, 187, -1, 199, 187, 200, -1, 200, 187, 186, -1,
200, 186, 201, -1, 201, 186, 185, -1, 201, 185, 202, -1, 202, 185, 184, -1,
187, 198, 197, -1, 187, 197, 188, -1, 188, 197, 196, -1, 188, 196, 189, -1,
189, 196, 190, -1, 190, 196, 195, -1, 190, 195, 191, -1, 191, 195, 194, -1,
191, 194, 192, -1, 192, 194, 193, -1, 89, 128, 127, -1, 89, 127, 90, -1,
90, 127, 126, -1, 90, 126, 91, -1, 91, 126, 92, -1, 92, 126, 125, -1,
92, 125, 93, -1, 93, 125, 124, -1, 93, 124, 210, -1, 210, 124, 211, -1,
93, 210, 209, -1, 93, 209, 94, -1, 94, 209, 208, -1, 94, 208, 95, -1,
95, 208, 96, -1, 97, 96, 206, -1, 206, 96, 207, -1, 207, 96, 208, -1,
204, 203, 99, -1, 204, 99, 205, -1, 205, 99, 98, -1, 205, 98, 206, -1,
206, 98, 97, -1, 114, 113, 103, -1, 114, 103, 115, -1, 115, 103, 102, -1,
115, 102, 116, -1, 116, 102, 101, -1, 116, 101, 117, -1, 117, 101, 100, -1,
117, 100, 203, -1, 203, 100, 99, -1, 104, 103, 113, -1, 104, 113, 105, -1,
105, 113, 112, -1, 105, 112, 107, -1, 107, 112, 110, -1, 107, 110, 108, -1,
108, 110, 109, -1, 122, 121, 213, -1, 122, 213, 123, -1, 123, 213, 212, -1,
123, 212, 124, -1, 124, 212, 211, -1, 120, 119, 215, -1, 120, 215, 121, -1,
121, 215, 214, -1, 121, 214, 213, -1, 217, 216, 118, -1, 118, 216, 119, -1,
119, 216, 215, -1, 203, 218, 117, -1, 117, 218, 118, -1, 118, 218, 217, -1,
238, 237, 222, -1, 238, 222, 219, -1, 219, 222, 221, -1, 219, 221, 220, -1,
223, 222, 234, -1, 234, 222, 235, -1, 235, 222, 236, -1, 236, 222, 237, -1,
224, 223, 228, -1, 228, 223, 229, -1, 229, 223, 230, -1, 230, 223, 231, -1,
231, 223, 232, -1, 232, 223, 233, -1, 233, 223, 234, -1, 224, 228, 225, -1,
225, 228, 226, -1, 226, 228, 227, -1, 240, 239, 271, -1, 271, 239, 272, -1,
272, 239, 273, -1, 273, 239, 274, -1, 269, 268, 241, -1, 269, 241, 270, -1,
270, 241, 240, -1, 270, 240, 271, -1, 267, 266, 243, -1, 267, 243, 268, -1,
268, 243, 242, -1, 268, 242, 241, -1, 264, 246, 245, -1, 264, 245, 265, -1,
265, 245, 244, -1, 265, 244, 266, -1, 266, 244, 243, -1, 248, 247, 262, -1,
262, 247, 263, -1, 263, 247, 264, -1, 264, 247, 246, -1, 250, 249, 260, -1,
260, 249, 261, -1, 261, 249, 262, -1, 262, 249, 248, -1, 255, 254, 253, -1,
255, 253, 257, -1, 257, 253, 252, -1, 257, 252, 258, -1, 258, 252, 251, -1,
258, 251, 259, -1, 259, 251, 250, -1, 259, 250, 260, -1, 280, 278, 277, -1,
280, 277, 281, -1, 281, 277, 276, -1, 281, 276, 282, -1, 282, 276, 275, -1,
309, 308, 305, -1, 305, 308, 306, -1, 306, 308, 307, -1, 304, 303, 311, -1,
304, 311, 305, -1, 305, 311, 310, -1, 305, 310, 309, -1, 300, 334, 314, -1,
300, 314, 301, -1, 301, 314, 313, -1, 301, 313, 302, -1, 302, 313, 312, -1,
302, 312, 303, -1, 303, 312, 311, -1, 294, 293, 286, -1, 286, 293, 287, -1,
287, 293, 288, -1, 288, 293, 291, -1, 291, 293, 292, -1, 288, 291, 289, -1,
289, 291, 290, -1, 294, 286, 285, -1, 294, 285, 295, -1, 295, 285, 284, -1,
295, 284, 296, -1, 296, 284, 283, -1, 296, 283, 329, -1, 329, 283, 330, -1,
335, 300, 299, -1, 335, 299, 336, -1, 336, 299, 298, -1, 336, 298, 337, -1,
337, 298, 297, -1, 337, 297, 329, -1, 329, 297, 296, -1, 316, 315, 323, -1,
316, 323, 317, -1, 317, 323, 322, -1, 317, 322, 319, -1, 319, 322, 320, -1,
330, 283, 328, -1, 330, 328, 331, -1, 331, 328, 327, -1, 331, 327, 332, -1,
332, 327, 333, -1, 325, 324, 314, -1, 325, 314, 326, -1, 326, 314, 334, -1,
326, 334, 327, -1, 327, 334, 333, -1, 315, 314, 323, -1, 323, 314, 324, -1,
342, 341, 343, -1, 343, 341, 346, -1, 346, 341, 347, -1, 347, 341, 348, -1,
348, 341, 349, -1, 349, 341, 340, -1, 382, 381, 369, -1, 382, 369, 395, -1,
395, 369, 368, -1, 395, 368, 396, -1, 396, 368, 367, -1, 396, 367, 397, -1,
397, 367, 366, -1, 397, 366, 398, -1, 398, 366, 365, -1, 398, 365, 399, -1,
399, 365, 364, -1, 399, 364, 338, -1, 338, 364, 351, -1, 338, 351, 339, -1,
339, 351, 350, -1, 339, 350, 340, -1, 340, 350, 349, -1, 362, 361, 353, -1,
362, 353, 363, -1, 363, 353, 352, -1, 363, 352, 364, -1, 364, 352, 351, -1,
353, 361, 354, -1, 354, 361, 355, -1, 355, 361, 356, -1, 356, 361, 360, -1,
358, 357, 359, -1, 359, 357, 360, -1, 360, 357, 356, -1, 343, 346, 344, -1,
344, 346, 345, -1, 371, 370, 380, -1, 380, 370, 381, -1, 381, 370, 369, -1,
373, 372, 374, -1, 374, 372, 377, -1, 377, 372, 379, -1, 379, 372, 380, -1,
380, 372, 371, -1, 387, 386, 391, -1, 387, 391, 388, -1, 388, 391, 390, -1,
388, 390, 389, -1, 386, 385, 391, -1, 391, 385, 392, -1, 392, 385, 393, -1,
393, 385, 384, -1, 395, 394, 383, -1, 383, 394, 384, -1, 384, 394, 393, -1,
376, 375, 377, -1, 377, 375, 374, -1, 377, 379, 378, -1, 395, 383, 382, -1,
317, 319, 318, -1, 334, 300, 335, -1, 320, 322, 321, -1, 278, 280, 279, -1,
255, 257, 256, -1, 110, 112, 111, -1, 105, 107, 106, -1, 83, 85, 84, -1,
60, 62, 61, -1, 23, 25, 24, -1
            ]
          }
        }
      ]
    }
  ]
}
]
}
